<mxfile host="Electron" agent="Mozilla/5.0 (Windows NT 10.0; Win64; x64) AppleWebKit/537.36 (KHTML, like Gecko) draw.io/28.0.4 Chrome/138.0.7204.97 Electron/37.2.1 Safari/537.36" version="28.0.4">
  <diagram name="Page-1" id="_S99bWcx8oCqNMSJFD-m">
    <mxGraphModel dx="1127" dy="800" grid="1" gridSize="8" guides="1" tooltips="1" connect="1" arrows="1" fold="1" page="0" pageScale="1" pageWidth="3300" pageHeight="4681" background="#FFFFFF" math="0" shadow="0">
      <root>
        <mxCell id="0" />
        <mxCell id="1" parent="0" />
        <mxCell id="bbueA_-DxJjlaEZ4Q3kZ-5" value="" style="rounded=0;whiteSpace=wrap;html=1;fillColor=none;dashed=1;strokeColor=light-dark(#000000,#000000);" parent="1" vertex="1">
          <mxGeometry x="2039" y="680" width="864" height="824" as="geometry" />
        </mxCell>
        <mxCell id="bbueA_-DxJjlaEZ4Q3kZ-11" value="" style="rounded=0;whiteSpace=wrap;html=1;fillColor=none;dashed=1;strokeColor=light-dark(#000000,#000000);" parent="1" vertex="1">
          <mxGeometry x="2964" y="679" width="260" height="824" as="geometry" />
        </mxCell>
        <mxCell id="bbueA_-DxJjlaEZ4Q3kZ-21" value="" style="rounded=0;whiteSpace=wrap;html=1;fillColor=none;dashed=1;strokeColor=light-dark(#000000,#000000);shadow=0;labelBackgroundColor=light-dark(#121212,#FFFFFF);" parent="1" vertex="1">
          <mxGeometry x="1760" y="672" width="225" height="832" as="geometry" />
        </mxCell>
        <mxCell id="bbueA_-DxJjlaEZ4Q3kZ-26" value="&lt;h1&gt;&lt;span style=&quot;font-weight: normal;&quot;&gt;Sources&lt;/span&gt;&lt;/h1&gt;" style="rounded=0;whiteSpace=wrap;html=1;fillColor=none;fontColor=#000000;fontSize=13;strokeColor=none;labelBackgroundColor=#FFFFFF;fontStyle=0" parent="1" vertex="1">
          <mxGeometry x="1783.5" y="625" width="190" height="100" as="geometry" />
        </mxCell>
        <mxCell id="bbueA_-DxJjlaEZ4Q3kZ-34" value="&lt;h1&gt;&lt;span style=&quot;font-weight: normal;&quot;&gt;Data Warehouse&lt;/span&gt;&lt;/h1&gt;" style="rounded=0;whiteSpace=wrap;html=1;fillColor=none;fontColor=#000000;fontSize=13;strokeColor=none;labelBackgroundColor=#FFFFFF;fontStyle=0" parent="1" vertex="1">
          <mxGeometry x="2253.25" y="623" width="420" height="100" as="geometry" />
        </mxCell>
        <mxCell id="bbueA_-DxJjlaEZ4Q3kZ-35" value="&lt;h1&gt;&lt;span style=&quot;font-weight: 400;&quot;&gt;Consume&lt;/span&gt;&lt;/h1&gt;" style="rounded=0;whiteSpace=wrap;html=1;fillColor=none;fontColor=#000000;fontSize=13;strokeColor=none;labelBackgroundColor=#FFFFFF;fontStyle=0" parent="1" vertex="1">
          <mxGeometry x="2894" y="623" width="420" height="100" as="geometry" />
        </mxCell>
        <mxCell id="bbueA_-DxJjlaEZ4Q3kZ-36" value="" style="rounded=0;whiteSpace=wrap;html=1;fillColor=none;strokeColor=#FFD966;strokeWidth=3;" parent="1" vertex="1">
          <mxGeometry x="2638" y="745" width="229" height="752" as="geometry" />
        </mxCell>
        <mxCell id="bbueA_-DxJjlaEZ4Q3kZ-37" value="" style="rounded=0;whiteSpace=wrap;html=1;fillColor=none;strokeColor=light-dark(#000000,#999999);strokeWidth=3;fontColor=#999999;" parent="1" vertex="1">
          <mxGeometry x="2352" y="744" width="224" height="752" as="geometry" />
        </mxCell>
        <mxCell id="bbueA_-DxJjlaEZ4Q3kZ-38" value="" style="rounded=0;whiteSpace=wrap;html=1;fillColor=none;strokeColor=light-dark(#000000,#FFCE9F);strokeWidth=3;fontColor=light-dark(#FFF4C3,#FFCE9F);" parent="1" vertex="1">
          <mxGeometry x="2072" y="744" width="232" height="752" as="geometry" />
        </mxCell>
        <mxCell id="bbueA_-DxJjlaEZ4Q3kZ-46" value="" style="edgeStyle=orthogonalEdgeStyle;rounded=0;orthogonalLoop=1;jettySize=auto;html=1;" parent="1" source="bbueA_-DxJjlaEZ4Q3kZ-38" target="bbueA_-DxJjlaEZ4Q3kZ-45" edge="1">
          <mxGeometry relative="1" as="geometry">
            <mxPoint x="2175" y="808" as="sourcePoint" />
            <mxPoint x="2175" y="800" as="targetPoint" />
          </mxGeometry>
        </mxCell>
        <mxCell id="bbueA_-DxJjlaEZ4Q3kZ-45" value="&lt;h2&gt;&lt;font style=&quot;color: light-dark(rgb(0, 0, 0), rgb(0, 0, 0)); font-size: 15px;&quot;&gt;Bronze Layer&lt;/font&gt;&lt;/h2&gt;" style="rounded=0;whiteSpace=wrap;html=1;fillColor=#fad7ac;strokeColor=#b46504;fontFamily=Helvetica;" parent="1" vertex="1">
          <mxGeometry x="2111" y="720" width="162" height="40" as="geometry" />
        </mxCell>
        <mxCell id="bbueA_-DxJjlaEZ4Q3kZ-47" value="&lt;h2&gt;&lt;font color=&quot;#000000&quot;&gt;&lt;span style=&quot;font-size: 15px;&quot;&gt;Gold Layer&lt;/span&gt;&lt;/font&gt;&lt;/h2&gt;" style="rounded=0;whiteSpace=wrap;html=1;fillColor=#fff2cc;strokeColor=#d6b656;gradientColor=#ffd966;fontFamily=Helvetica;" parent="1" vertex="1">
          <mxGeometry x="2669" y="720" width="162" height="40" as="geometry" />
        </mxCell>
        <mxCell id="bbueA_-DxJjlaEZ4Q3kZ-49" value="&lt;h2&gt;&lt;font color=&quot;#000000&quot;&gt;&lt;span style=&quot;font-size: 15px;&quot;&gt;Silvar Layer&lt;/span&gt;&lt;/font&gt;&lt;/h2&gt;" style="rounded=0;whiteSpace=wrap;html=1;fillColor=#f5f5f5;fontFamily=Helvetica;strokeColor=#666666;gradientColor=#b3b3b3;" parent="1" vertex="1">
          <mxGeometry x="2383" y="720" width="162" height="40" as="geometry" />
        </mxCell>
        <mxCell id="bbueA_-DxJjlaEZ4Q3kZ-51" value="" style="image;aspect=fixed;html=1;points=[];align=center;fontSize=12;image=img/lib/azure2/general/Folder_Blank.svg;" parent="1" vertex="1">
          <mxGeometry x="1839" y="818" width="69" height="56" as="geometry" />
        </mxCell>
        <mxCell id="bbueA_-DxJjlaEZ4Q3kZ-52" value="" style="image;aspect=fixed;html=1;points=[];align=center;fontSize=12;image=img/lib/azure2/general/Folder_Blank.svg;" parent="1" vertex="1">
          <mxGeometry x="1836" y="974" width="69" height="56" as="geometry" />
        </mxCell>
        <mxCell id="bbueA_-DxJjlaEZ4Q3kZ-55" value="" style="image;aspect=fixed;html=1;points=[];align=center;fontSize=12;image=img/lib/azure2/general/Media_File.svg;" parent="1" vertex="1">
          <mxGeometry x="1889" y="847" width="26" height="32" as="geometry" />
        </mxCell>
        <mxCell id="bbueA_-DxJjlaEZ4Q3kZ-61" value="&lt;h5&gt;&lt;font style=&quot;font-size: 17px;&quot; color=&quot;#000000&quot;&gt;CRM&lt;/font&gt;&lt;/h5&gt;" style="text;html=1;align=center;verticalAlign=middle;resizable=0;points=[];autosize=1;strokeColor=none;fillColor=none;" parent="1" vertex="1">
          <mxGeometry x="1842" y="857" width="56" height="72" as="geometry" />
        </mxCell>
        <mxCell id="bbueA_-DxJjlaEZ4Q3kZ-62" value="&lt;h4&gt;&lt;font style=&quot;font-size: 17px;&quot; color=&quot;#000000&quot;&gt;ERP&lt;/font&gt;&lt;/h4&gt;" style="text;html=1;align=center;verticalAlign=middle;resizable=0;points=[];autosize=1;strokeColor=none;fillColor=none;" parent="1" vertex="1">
          <mxGeometry x="1838.5" y="1013" width="56" height="72" as="geometry" />
        </mxCell>
        <mxCell id="bbueA_-DxJjlaEZ4Q3kZ-86" value="&lt;h4&gt;&lt;font style=&quot;font-size: 16px;&quot; color=&quot;#000000&quot;&gt;Object Type:&lt;/font&gt;&lt;/h4&gt;" style="text;html=1;align=center;verticalAlign=middle;resizable=0;points=[];autosize=1;strokeColor=none;fillColor=none;" parent="1" vertex="1">
          <mxGeometry x="1779.5" y="1111" width="120" height="72" as="geometry" />
        </mxCell>
        <mxCell id="bbueA_-DxJjlaEZ4Q3kZ-87" value="&lt;h4&gt;&lt;font style=&quot;font-size: 16px;&quot; color=&quot;#000000&quot;&gt;Interface:&lt;/font&gt;&lt;/h4&gt;" style="text;html=1;align=center;verticalAlign=middle;resizable=0;points=[];autosize=1;strokeColor=none;fillColor=none;" parent="1" vertex="1">
          <mxGeometry x="1780.5" y="1143" width="96" height="72" as="geometry" />
        </mxCell>
        <mxCell id="bbueA_-DxJjlaEZ4Q3kZ-88" value="&lt;h4&gt;&lt;font style=&quot;font-size: 15px; color: light-dark(rgb(0, 0, 0), rgb(51, 51, 51));&quot;&gt;CSV Files&lt;/font&gt;&lt;/h4&gt;" style="text;html=1;align=center;verticalAlign=middle;resizable=0;points=[];autosize=1;strokeColor=none;fillColor=none;" parent="1" vertex="1">
          <mxGeometry x="1880" y="1112" width="88" height="72" as="geometry" />
        </mxCell>
        <mxCell id="bbueA_-DxJjlaEZ4Q3kZ-89" value="&lt;h4&gt;&lt;font style=&quot;color: rgb(51, 51, 51);&quot;&gt;&lt;span style=&quot;font-size: 15px;&quot;&gt;File In Folder&lt;/span&gt;&lt;/font&gt;&lt;/h4&gt;" style="text;html=1;align=center;verticalAlign=middle;resizable=0;points=[];autosize=1;strokeColor=none;fillColor=none;" parent="1" vertex="1">
          <mxGeometry x="1857.5" y="1144" width="112" height="72" as="geometry" />
        </mxCell>
        <mxCell id="bbueA_-DxJjlaEZ4Q3kZ-94" value="" style="html=1;verticalLabelPosition=bottom;align=center;labelBackgroundColor=#ffffff;verticalAlign=top;strokeWidth=2;strokeColor=#3D3327;shadow=0;dashed=0;shape=mxgraph.ios7.icons.data;fillColor=#ffcc99;" parent="1" vertex="1">
          <mxGeometry x="2151" y="824" width="72" height="91" as="geometry" />
        </mxCell>
        <mxCell id="bbueA_-DxJjlaEZ4Q3kZ-95" value="" style="html=1;verticalLabelPosition=bottom;align=center;labelBackgroundColor=#ffffff;verticalAlign=top;strokeWidth=2;strokeColor=#666666;shadow=0;dashed=0;shape=mxgraph.ios7.icons.data;fillColor=#f5f5f5;gradientColor=#E1D5E7;" parent="1" vertex="1">
          <mxGeometry x="2428" y="824" width="72" height="91" as="geometry" />
        </mxCell>
        <mxCell id="bbueA_-DxJjlaEZ4Q3kZ-96" value="" style="html=1;verticalLabelPosition=bottom;align=center;labelBackgroundColor=#ffffff;verticalAlign=top;strokeWidth=2;strokeColor=#d6b656;shadow=0;dashed=0;shape=mxgraph.ios7.icons.data;fillColor=#fff2cc;gradientColor=#ffd966;" parent="1" vertex="1">
          <mxGeometry x="2716" y="824" width="72" height="91" as="geometry" />
        </mxCell>
        <mxCell id="bbueA_-DxJjlaEZ4Q3kZ-99" value="" style="shape=singleArrow;whiteSpace=wrap;html=1;fontSize=7;fillColor=#dae8fc;gradientColor=#7ea6e0;strokeColor=#6c8ebf;" parent="1" vertex="1">
          <mxGeometry x="1965" y="866" width="88" height="56" as="geometry" />
        </mxCell>
        <mxCell id="bbueA_-DxJjlaEZ4Q3kZ-100" value="" style="shape=singleArrow;whiteSpace=wrap;html=1;fontSize=7;fillColor=#dae8fc;gradientColor=#7ea6e0;strokeColor=#6c8ebf;" parent="1" vertex="1">
          <mxGeometry x="2273" y="867" width="88" height="56" as="geometry" />
        </mxCell>
        <mxCell id="bbueA_-DxJjlaEZ4Q3kZ-102" value="" style="shape=singleArrow;whiteSpace=wrap;html=1;fontSize=7;fillColor=#dae8fc;gradientColor=#7ea6e0;strokeColor=#6c8ebf;" parent="1" vertex="1">
          <mxGeometry x="2560" y="866" width="88" height="56" as="geometry" />
        </mxCell>
        <mxCell id="bbueA_-DxJjlaEZ4Q3kZ-103" value="&lt;h5&gt;&lt;font color=&quot;#000000&quot;&gt;&lt;span style=&quot;font-size: 17px;&quot;&gt;Raw Data&lt;/span&gt;&lt;/font&gt;&lt;/h5&gt;" style="text;html=1;align=center;verticalAlign=middle;resizable=0;points=[];autosize=1;strokeColor=none;fillColor=none;" parent="1" vertex="1">
          <mxGeometry x="2136" y="899" width="96" height="72" as="geometry" />
        </mxCell>
        <mxCell id="bbueA_-DxJjlaEZ4Q3kZ-104" value="&lt;h5&gt;&lt;font color=&quot;#000000&quot;&gt;&lt;span style=&quot;font-size: 17px;&quot;&gt;Data&lt;/span&gt;&lt;/font&gt;&lt;/h5&gt;" style="text;html=1;align=center;verticalAlign=middle;resizable=0;points=[];autosize=1;strokeColor=none;fillColor=none;" parent="1" vertex="1">
          <mxGeometry x="2437" y="924" width="56" height="72" as="geometry" />
        </mxCell>
        <mxCell id="bbueA_-DxJjlaEZ4Q3kZ-105" value="&lt;h5&gt;&lt;font color=&quot;#000000&quot;&gt;&lt;span style=&quot;font-size: 17px;&quot;&gt;Cleaned,Standardized&lt;/span&gt;&lt;/font&gt;&lt;/h5&gt;&lt;h5&gt;&lt;font color=&quot;#000000&quot;&gt;&lt;span style=&quot;font-size: 17px;&quot;&gt;&amp;nbsp;&lt;/span&gt;&lt;/font&gt;&lt;/h5&gt;" style="text;html=1;align=center;verticalAlign=middle;resizable=0;points=[];autosize=1;strokeColor=none;fillColor=none;" parent="1" vertex="1">
          <mxGeometry x="2368" y="898" width="200" height="112" as="geometry" />
        </mxCell>
        <mxCell id="bbueA_-DxJjlaEZ4Q3kZ-106" value="&lt;h5&gt;&lt;font color=&quot;#000000&quot;&gt;&lt;span style=&quot;font-size: 17px;&quot;&gt;Bussines Ready&lt;/span&gt;&lt;/font&gt;&lt;/h5&gt;" style="text;html=1;align=center;verticalAlign=middle;resizable=0;points=[];autosize=1;strokeColor=none;fillColor=none;" parent="1" vertex="1">
          <mxGeometry x="2685" y="899" width="152" height="72" as="geometry" />
        </mxCell>
        <mxCell id="bbueA_-DxJjlaEZ4Q3kZ-111" value="" style="verticalLabelPosition=bottom;shadow=0;dashed=0;align=center;html=1;verticalAlign=top;strokeWidth=3;shape=mxgraph.mockup.markup.line;strokeColor=#BD7000;fillColor=#f0a30a;fontColor=#000000;" parent="1" vertex="1">
          <mxGeometry x="2110" y="982" width="146" height="20" as="geometry" />
        </mxCell>
        <mxCell id="bbueA_-DxJjlaEZ4Q3kZ-112" value="" style="verticalLabelPosition=bottom;shadow=0;dashed=0;align=center;html=1;verticalAlign=top;strokeWidth=3;shape=mxgraph.mockup.markup.line;strokeColor=#666666;fillColor=#f5f5f5;gradientColor=#b3b3b3;" parent="1" vertex="1">
          <mxGeometry x="2392.25" y="932" width="146" height="118" as="geometry" />
        </mxCell>
        <mxCell id="bbueA_-DxJjlaEZ4Q3kZ-113" value="" style="verticalLabelPosition=bottom;shadow=0;dashed=0;align=center;html=1;verticalAlign=top;strokeWidth=3;shape=mxgraph.mockup.markup.line;strokeColor=#d6b656;fillColor=#fff2cc;gradientColor=#ffd966;" parent="1" vertex="1">
          <mxGeometry x="2679" y="932" width="146" height="118" as="geometry" />
        </mxCell>
        <mxCell id="bbueA_-DxJjlaEZ4Q3kZ-114" value="" style="verticalLabelPosition=bottom;shadow=0;dashed=0;align=center;html=1;verticalAlign=top;strokeWidth=3;shape=mxgraph.mockup.markup.line;strokeColor=#999999;" parent="1" vertex="1">
          <mxGeometry x="1797" y="1113" width="146" height="20" as="geometry" />
        </mxCell>
        <mxCell id="bbueA_-DxJjlaEZ4Q3kZ-115" value="&lt;h4&gt;&lt;font style=&quot;font-size: 16px;&quot; color=&quot;#000000&quot;&gt;Object Type:&lt;/font&gt;&lt;/h4&gt;" style="text;html=1;align=center;verticalAlign=middle;resizable=0;points=[];autosize=1;strokeColor=none;fillColor=none;" parent="1" vertex="1">
          <mxGeometry x="2077" y="996" width="120" height="72" as="geometry" />
        </mxCell>
        <mxCell id="bbueA_-DxJjlaEZ4Q3kZ-116" value="&lt;h4&gt;&lt;font style=&quot;font-size: 16px;&quot; color=&quot;#000000&quot;&gt;Object Type:&lt;/font&gt;&lt;/h4&gt;" style="text;html=1;align=center;verticalAlign=middle;resizable=0;points=[];autosize=1;strokeColor=none;fillColor=none;" parent="1" vertex="1">
          <mxGeometry x="2347" y="997" width="120" height="72" as="geometry" />
        </mxCell>
        <mxCell id="bbueA_-DxJjlaEZ4Q3kZ-117" value="&lt;h4&gt;&lt;font style=&quot;font-size: 16px;&quot; color=&quot;#000000&quot;&gt;Object Type:&lt;/font&gt;&lt;/h4&gt;" style="text;html=1;align=center;verticalAlign=middle;resizable=0;points=[];autosize=1;strokeColor=none;fillColor=none;" parent="1" vertex="1">
          <mxGeometry x="2653" y="996" width="120" height="72" as="geometry" />
        </mxCell>
        <mxCell id="bbueA_-DxJjlaEZ4Q3kZ-118" value="&lt;h4&gt;&lt;font style=&quot;font-size: 16px;&quot; color=&quot;#4d4d4d&quot;&gt;Tables&lt;/font&gt;&lt;/h4&gt;" style="text;html=1;align=center;verticalAlign=middle;resizable=0;points=[];autosize=1;strokeColor=none;fillColor=none;" parent="1" vertex="1">
          <mxGeometry x="2177" y="997" width="72" height="72" as="geometry" />
        </mxCell>
        <mxCell id="bbueA_-DxJjlaEZ4Q3kZ-119" value="&lt;h4&gt;&lt;font style=&quot;font-size: 16px;&quot; color=&quot;#4d4d4d&quot;&gt;Tables&lt;/font&gt;&lt;/h4&gt;" style="text;html=1;align=center;verticalAlign=middle;resizable=0;points=[];autosize=1;strokeColor=none;fillColor=none;" parent="1" vertex="1">
          <mxGeometry x="2449.25" y="997" width="72" height="72" as="geometry" />
        </mxCell>
        <mxCell id="bbueA_-DxJjlaEZ4Q3kZ-120" value="&lt;h4&gt;&lt;font color=&quot;#4d4d4d&quot;&gt;&lt;span style=&quot;font-size: 16px;&quot;&gt;Views&lt;/span&gt;&lt;/font&gt;&lt;/h4&gt;" style="text;html=1;align=center;verticalAlign=middle;resizable=0;points=[];autosize=1;strokeColor=none;fillColor=none;labelBorderColor=none;convertToSvg=0;rounded=0;" parent="1" vertex="1">
          <mxGeometry x="2760" y="997" width="64" height="72" as="geometry" />
        </mxCell>
        <mxCell id="bbueA_-DxJjlaEZ4Q3kZ-121" value="&lt;h4&gt;&lt;font color=&quot;#000000&quot;&gt;&lt;span style=&quot;font-size: 16px;&quot;&gt;Load:&lt;/span&gt;&lt;/font&gt;&lt;/h4&gt;" style="text;html=1;align=center;verticalAlign=middle;resizable=0;points=[];autosize=1;strokeColor=none;fillColor=none;" parent="1" vertex="1">
          <mxGeometry x="2070" y="1046" width="64" height="72" as="geometry" />
        </mxCell>
        <mxCell id="bbueA_-DxJjlaEZ4Q3kZ-122" value="&lt;h4&gt;&lt;font style=&quot;font-size: 16px; color: light-dark(rgb(77, 77, 77), rgb(77, 77, 77));&quot;&gt;&amp;nbsp;Batch Processing&lt;/font&gt;&lt;/h4&gt;" style="text;html=1;align=center;verticalAlign=middle;resizable=0;points=[];autosize=1;strokeColor=none;fillColor=none;" parent="1" vertex="1">
          <mxGeometry x="2112" y="1080" width="160" height="72" as="geometry" />
        </mxCell>
        <mxCell id="bbueA_-DxJjlaEZ4Q3kZ-123" value="&lt;h4&gt;&lt;font color=&quot;#4d4d4d&quot;&gt;&lt;span style=&quot;font-size: 16px;&quot;&gt;Full Load&lt;/span&gt;&lt;/font&gt;&lt;/h4&gt;" style="text;html=1;align=center;verticalAlign=middle;resizable=0;points=[];autosize=1;strokeColor=none;fillColor=none;" parent="1" vertex="1">
          <mxGeometry x="2116" y="1112" width="88" height="72" as="geometry" />
        </mxCell>
        <mxCell id="bbueA_-DxJjlaEZ4Q3kZ-124" value="&lt;h4&gt;&lt;font color=&quot;#4d4d4d&quot;&gt;&lt;span style=&quot;font-size: 16px;&quot;&gt;Truncate &amp;amp; Insert&lt;/span&gt;&lt;/font&gt;&lt;/h4&gt;" style="text;html=1;align=center;verticalAlign=middle;resizable=0;points=[];autosize=1;strokeColor=none;fillColor=none;" parent="1" vertex="1">
          <mxGeometry x="2111" y="1143" width="152" height="72" as="geometry" />
        </mxCell>
        <mxCell id="bbueA_-DxJjlaEZ4Q3kZ-125" value="&lt;h4&gt;&lt;font style=&quot;font-size: 16px; color: light-dark(rgb(77, 77, 77), rgb(77, 77, 77));&quot;&gt;None (as-is)&lt;/font&gt;&lt;/h4&gt;" style="text;html=1;align=center;verticalAlign=middle;resizable=0;points=[];autosize=1;strokeColor=none;fillColor=none;" parent="1" vertex="1">
          <mxGeometry x="2165" y="1254" width="112" height="72" as="geometry" />
        </mxCell>
        <mxCell id="bbueA_-DxJjlaEZ4Q3kZ-126" value="" style="shape=ellipse;fillColor=light-dark(#000000,#1A1A1A);strokeColor=none;html=1;sketch=0;" parent="1" vertex="1">
          <mxGeometry x="2100" y="1110" width="10" height="10" as="geometry" />
        </mxCell>
        <mxCell id="bbueA_-DxJjlaEZ4Q3kZ-127" value="" style="shape=ellipse;fillColor=light-dark(#000000,#1A1A1A);strokeColor=none;html=1;sketch=0;" parent="1" vertex="1">
          <mxGeometry x="2099" y="1142" width="10" height="10" as="geometry" />
        </mxCell>
        <mxCell id="bbueA_-DxJjlaEZ4Q3kZ-128" value="" style="shape=ellipse;fillColor=light-dark(#000000,#1A1A1A);strokeColor=none;html=1;sketch=0;" parent="1" vertex="1">
          <mxGeometry x="2100" y="1175" width="10" height="10" as="geometry" />
        </mxCell>
        <mxCell id="bbueA_-DxJjlaEZ4Q3kZ-129" value="&lt;h4&gt;&lt;font style=&quot;font-size: 16px;&quot; color=&quot;#000000&quot;&gt;&amp;nbsp;No Transformations:&lt;/font&gt;&lt;/h4&gt;" style="text;html=1;align=center;verticalAlign=middle;resizable=0;points=[];autosize=1;strokeColor=none;fillColor=none;" parent="1" vertex="1">
          <mxGeometry x="2067" y="1207" width="184" height="72" as="geometry" />
        </mxCell>
        <mxCell id="bbueA_-DxJjlaEZ4Q3kZ-130" value="&lt;h4&gt;&lt;font style=&quot;font-size: 16px;&quot; color=&quot;#000000&quot;&gt;Data Model:&lt;/font&gt;&lt;/h4&gt;" style="text;html=1;align=center;verticalAlign=middle;resizable=0;points=[];autosize=1;strokeColor=none;fillColor=none;" parent="1" vertex="1">
          <mxGeometry x="2072" y="1252" width="112" height="72" as="geometry" />
        </mxCell>
        <mxCell id="bbueA_-DxJjlaEZ4Q3kZ-132" value="&lt;h4&gt;&lt;font color=&quot;#000000&quot;&gt;&lt;span style=&quot;font-size: 16px;&quot;&gt;NO Load&lt;/span&gt;&lt;/font&gt;&lt;/h4&gt;" style="text;html=1;align=center;verticalAlign=middle;resizable=0;points=[];autosize=1;strokeColor=none;fillColor=none;" parent="1" vertex="1">
          <mxGeometry x="2646" y="1047" width="88" height="72" as="geometry" />
        </mxCell>
        <mxCell id="bbueA_-DxJjlaEZ4Q3kZ-134" value="&lt;h4&gt;&lt;font color=&quot;#000000&quot;&gt;&lt;span style=&quot;font-size: 16px;&quot;&gt;&amp;nbsp;Load:&lt;/span&gt;&lt;/font&gt;&lt;/h4&gt;" style="text;html=1;align=center;verticalAlign=middle;resizable=0;points=[];autosize=1;strokeColor=none;fillColor=none;" parent="1" vertex="1">
          <mxGeometry x="2353" y="1046" width="72" height="72" as="geometry" />
        </mxCell>
        <mxCell id="bbueA_-DxJjlaEZ4Q3kZ-135" value="&lt;h4&gt;&lt;font style=&quot;font-size: 16px; color: light-dark(rgb(77, 77, 77), rgb(77, 77, 77));&quot;&gt;&amp;nbsp;Batch Processing&lt;/font&gt;&lt;/h4&gt;" style="text;html=1;align=center;verticalAlign=middle;resizable=0;points=[];autosize=1;strokeColor=none;fillColor=none;" parent="1" vertex="1">
          <mxGeometry x="2399.25" y="1079" width="160" height="72" as="geometry" />
        </mxCell>
        <mxCell id="bbueA_-DxJjlaEZ4Q3kZ-136" value="&lt;h4&gt;&lt;font color=&quot;#4d4d4d&quot;&gt;&lt;span style=&quot;font-size: 16px;&quot;&gt;Truncate &amp;amp; Insert&lt;/span&gt;&lt;/font&gt;&lt;/h4&gt;" style="text;html=1;align=center;verticalAlign=middle;resizable=0;points=[];autosize=1;strokeColor=none;fillColor=none;" parent="1" vertex="1">
          <mxGeometry x="2398" y="1143" width="152" height="72" as="geometry" />
        </mxCell>
        <mxCell id="bbueA_-DxJjlaEZ4Q3kZ-138" value="" style="shape=ellipse;fillColor=light-dark(#000000,#1A1A1A);strokeColor=none;html=1;sketch=0;" parent="1" vertex="1">
          <mxGeometry x="2387" y="1111" width="10" height="10" as="geometry" />
        </mxCell>
        <mxCell id="bbueA_-DxJjlaEZ4Q3kZ-139" value="" style="shape=ellipse;fillColor=light-dark(#000000,#1A1A1A);strokeColor=none;html=1;sketch=0;" parent="1" vertex="1">
          <mxGeometry x="2386" y="1171" width="10" height="10" as="geometry" />
        </mxCell>
        <mxCell id="bbueA_-DxJjlaEZ4Q3kZ-142" value="" style="shape=ellipse;fillColor=light-dark(#000000,#1A1A1A);strokeColor=none;html=1;sketch=0;" parent="1" vertex="1">
          <mxGeometry x="2387" y="1139" width="10" height="10" as="geometry" />
        </mxCell>
        <mxCell id="bbueA_-DxJjlaEZ4Q3kZ-145" value="&lt;h4&gt;&lt;font style=&quot;font-size: 16px;&quot; color=&quot;#000000&quot;&gt;Transformations:&lt;/font&gt;&lt;/h4&gt;" style="text;html=1;align=center;verticalAlign=middle;resizable=0;points=[];autosize=1;strokeColor=none;fillColor=none;" parent="1" vertex="1">
          <mxGeometry x="2359" y="1183" width="152" height="72" as="geometry" />
        </mxCell>
        <mxCell id="bbueA_-DxJjlaEZ4Q3kZ-146" value="&lt;h4&gt;&lt;font style=&quot;font-size: 16px;&quot; color=&quot;#000000&quot;&gt;&amp;nbsp;Transformations&lt;/font&gt;&lt;/h4&gt;" style="text;html=1;align=center;verticalAlign=middle;resizable=0;points=[];autosize=1;strokeColor=none;fillColor=none;" parent="1" vertex="1">
          <mxGeometry x="2641" y="1089" width="152" height="72" as="geometry" />
        </mxCell>
        <mxCell id="bbueA_-DxJjlaEZ4Q3kZ-148" value="&lt;h4&gt;&lt;font color=&quot;#4d4d4d&quot;&gt;&lt;span style=&quot;font-size: 16px;&quot;&gt;Data Cleaning&lt;/span&gt;&lt;/font&gt;&lt;/h4&gt;" style="text;html=1;align=center;verticalAlign=middle;resizable=0;points=[];autosize=1;strokeColor=none;fillColor=none;" parent="1" vertex="1">
          <mxGeometry x="2400.25" y="1252" width="128" height="72" as="geometry" />
        </mxCell>
        <mxCell id="bbueA_-DxJjlaEZ4Q3kZ-149" value="&lt;h4&gt;&lt;font color=&quot;#4d4d4d&quot;&gt;&lt;span style=&quot;font-size: 16px;&quot;&gt;Data Columns&lt;/span&gt;&lt;/font&gt;&lt;/h4&gt;" style="text;html=1;align=center;verticalAlign=middle;resizable=0;points=[];autosize=1;strokeColor=none;fillColor=none;" parent="1" vertex="1">
          <mxGeometry x="2400" y="1315" width="128" height="72" as="geometry" />
        </mxCell>
        <mxCell id="bbueA_-DxJjlaEZ4Q3kZ-150" value="&lt;h4&gt;&lt;font color=&quot;#4d4d4d&quot;&gt;&lt;span style=&quot;font-size: 16px;&quot;&gt;Data Normalization&lt;/span&gt;&lt;/font&gt;&lt;/h4&gt;" style="text;html=1;align=center;verticalAlign=middle;resizable=0;points=[];autosize=1;strokeColor=none;fillColor=none;" parent="1" vertex="1">
          <mxGeometry x="2398.25" y="1219" width="168" height="72" as="geometry" />
        </mxCell>
        <mxCell id="bbueA_-DxJjlaEZ4Q3kZ-151" value="&lt;h4&gt;&lt;font color=&quot;#4d4d4d&quot;&gt;&lt;span style=&quot;font-size: 16px;&quot;&gt;Data S&lt;/span&gt;&lt;/font&gt;&lt;span style=&quot;background-color: transparent; font-size: 16px;&quot;&gt;&lt;font color=&quot;#4d4d4d&quot;&gt;tandardized&lt;/font&gt;&lt;/span&gt;&lt;/h4&gt;" style="text;html=1;align=center;verticalAlign=middle;resizable=0;points=[];autosize=1;strokeColor=none;fillColor=none;" parent="1" vertex="1">
          <mxGeometry x="2399" y="1282" width="160" height="72" as="geometry" />
        </mxCell>
        <mxCell id="bbueA_-DxJjlaEZ4Q3kZ-153" value="&lt;h4&gt;&lt;font color=&quot;#4d4d4d&quot;&gt;&lt;span style=&quot;font-size: 16px;&quot;&gt;Data&amp;nbsp; Enrichment&lt;/span&gt;&lt;/font&gt;&lt;/h4&gt;" style="text;html=1;align=center;verticalAlign=middle;resizable=0;points=[];autosize=1;strokeColor=none;fillColor=none;" parent="1" vertex="1">
          <mxGeometry x="2399" y="1348" width="152" height="72" as="geometry" />
        </mxCell>
        <mxCell id="bbueA_-DxJjlaEZ4Q3kZ-154" value="&lt;h4&gt;&lt;font style=&quot;font-size: 16px;&quot; color=&quot;#000000&quot;&gt;Data Model:&lt;/font&gt;&lt;/h4&gt;" style="text;html=1;align=center;verticalAlign=middle;resizable=0;points=[];autosize=1;strokeColor=none;fillColor=none;" parent="1" vertex="1">
          <mxGeometry x="2646" y="1240" width="112" height="72" as="geometry" />
        </mxCell>
        <mxCell id="bbueA_-DxJjlaEZ4Q3kZ-155" value="&lt;h4&gt;&lt;font color=&quot;#4d4d4d&quot;&gt;&lt;span style=&quot;font-size: 16px;&quot;&gt;Star Schema&lt;/span&gt;&lt;/font&gt;&lt;/h4&gt;&lt;div&gt;&lt;font color=&quot;#4d4d4d&quot;&gt;&lt;span style=&quot;font-size: 16px;&quot;&gt;&lt;br&gt;&lt;/span&gt;&lt;/font&gt;&lt;/div&gt;" style="text;html=1;align=center;verticalAlign=middle;resizable=0;points=[];autosize=1;strokeColor=none;fillColor=none;" parent="1" vertex="1">
          <mxGeometry x="2690" y="1273" width="120" height="88" as="geometry" />
        </mxCell>
        <mxCell id="bbueA_-DxJjlaEZ4Q3kZ-156" value="&lt;h4&gt;&lt;font color=&quot;#4d4d4d&quot;&gt;&lt;span style=&quot;font-size: 16px;&quot;&gt;Flat Table&lt;/span&gt;&lt;/font&gt;&lt;/h4&gt;" style="text;html=1;align=center;verticalAlign=middle;resizable=0;points=[];autosize=1;strokeColor=none;fillColor=none;" parent="1" vertex="1">
          <mxGeometry x="2690" y="1304" width="96" height="72" as="geometry" />
        </mxCell>
        <mxCell id="bbueA_-DxJjlaEZ4Q3kZ-157" value="&lt;h4&gt;&lt;font color=&quot;#4d4d4d&quot;&gt;&lt;span style=&quot;font-size: 16px;&quot;&gt;Aggregated Table&lt;/span&gt;&lt;/font&gt;&lt;/h4&gt;" style="text;html=1;align=center;verticalAlign=middle;resizable=0;points=[];autosize=1;strokeColor=none;fillColor=none;" parent="1" vertex="1">
          <mxGeometry x="2690" y="1335" width="152" height="72" as="geometry" />
        </mxCell>
        <mxCell id="bbueA_-DxJjlaEZ4Q3kZ-158" value="&lt;h4&gt;&lt;font color=&quot;#4d4d4d&quot;&gt;&lt;span style=&quot;font-size: 16px;&quot;&gt;Data Integrations&lt;/span&gt;&lt;/font&gt;&lt;/h4&gt;" style="text;html=1;align=center;verticalAlign=middle;resizable=0;points=[];autosize=1;strokeColor=none;fillColor=none;" parent="1" vertex="1">
          <mxGeometry x="2687" y="1123" width="152" height="72" as="geometry" />
        </mxCell>
        <mxCell id="bbueA_-DxJjlaEZ4Q3kZ-159" value="&lt;h4&gt;&lt;font color=&quot;#4d4d4d&quot;&gt;&lt;span style=&quot;font-size: 16px;&quot;&gt;Aggregation&lt;/span&gt;&lt;/font&gt;&lt;/h4&gt;" style="text;html=1;align=center;verticalAlign=middle;resizable=0;points=[];autosize=1;strokeColor=none;fillColor=none;" parent="1" vertex="1">
          <mxGeometry x="2687" y="1155" width="112" height="72" as="geometry" />
        </mxCell>
        <mxCell id="bbueA_-DxJjlaEZ4Q3kZ-160" value="&lt;h4&gt;&lt;font color=&quot;#4d4d4d&quot;&gt;&lt;span style=&quot;font-size: 16px;&quot;&gt;Business Logics&lt;/span&gt;&lt;/font&gt;&lt;/h4&gt;" style="text;html=1;align=center;verticalAlign=middle;resizable=0;points=[];autosize=1;strokeColor=none;fillColor=none;" parent="1" vertex="1">
          <mxGeometry x="2687" y="1185" width="144" height="72" as="geometry" />
        </mxCell>
        <mxCell id="bbueA_-DxJjlaEZ4Q3kZ-161" value="&lt;h4&gt;&lt;font style=&quot;font-size: 16px;&quot; color=&quot;#000000&quot;&gt;Data Model:&lt;/font&gt;&lt;/h4&gt;" style="text;html=1;align=center;verticalAlign=middle;resizable=0;points=[];autosize=1;strokeColor=none;fillColor=none;" parent="1" vertex="1">
          <mxGeometry x="2357" y="1379" width="112" height="72" as="geometry" />
        </mxCell>
        <mxCell id="bbueA_-DxJjlaEZ4Q3kZ-162" value="&lt;h4&gt;&lt;font style=&quot;font-size: 16px; color: light-dark(rgb(77, 77, 77), rgb(77, 77, 77));&quot;&gt;None (as-is)&lt;/font&gt;&lt;/h4&gt;" style="text;html=1;align=center;verticalAlign=middle;resizable=0;points=[];autosize=1;strokeColor=none;fillColor=none;" parent="1" vertex="1">
          <mxGeometry x="2449.25" y="1379" width="112" height="72" as="geometry" />
        </mxCell>
        <mxCell id="bbueA_-DxJjlaEZ4Q3kZ-166" value="" style="image;aspect=fixed;html=1;points=[];align=center;fontSize=12;image=img/lib/azure2/general/Media_File.svg;" parent="1" vertex="1">
          <mxGeometry x="1884" y="1003" width="26" height="32" as="geometry" />
        </mxCell>
        <mxCell id="TaerqS0B0yZli5gVPiHv-1" value="" style="shape=ellipse;fillColor=light-dark(#000000,#000000);strokeColor=none;html=1;sketch=0;movable=0;resizable=0;rotatable=0;deletable=0;editable=0;locked=1;connectable=0;" parent="1" vertex="1">
          <mxGeometry x="2385.25" y="1248" width="10" height="10" as="geometry" />
        </mxCell>
        <mxCell id="bbueA_-DxJjlaEZ4Q3kZ-137" value="&lt;h4&gt;&lt;font color=&quot;#4d4d4d&quot;&gt;&lt;span style=&quot;font-size: 16px;&quot;&gt;Full Load&lt;/span&gt;&lt;/font&gt;&lt;/h4&gt;" style="text;html=1;align=center;verticalAlign=middle;resizable=0;points=[];autosize=1;strokeColor=none;fillColor=none;" parent="1" vertex="1">
          <mxGeometry x="2399.25" y="1111" width="88" height="72" as="geometry" />
        </mxCell>
        <mxCell id="TaerqS0B0yZli5gVPiHv-5" value="" style="shape=ellipse;fillColor=light-dark(#000000,#000000);strokeColor=none;html=1;sketch=0;" parent="1" vertex="1">
          <mxGeometry x="2385" y="1282" width="10" height="10" as="geometry" />
        </mxCell>
        <mxCell id="TaerqS0B0yZli5gVPiHv-6" value="" style="shape=ellipse;fillColor=light-dark(#000000,#000000);strokeColor=none;html=1;sketch=0;" parent="1" vertex="1">
          <mxGeometry x="2385" y="1315" width="10" height="10" as="geometry" />
        </mxCell>
        <mxCell id="TaerqS0B0yZli5gVPiHv-7" value="" style="shape=ellipse;fillColor=light-dark(#000000,#000000);strokeColor=none;html=1;sketch=0;" parent="1" vertex="1">
          <mxGeometry x="2385" y="1345" width="10" height="10" as="geometry" />
        </mxCell>
        <mxCell id="TaerqS0B0yZli5gVPiHv-8" value="" style="shape=ellipse;fillColor=light-dark(#000000,#000000);strokeColor=none;html=1;sketch=0;" parent="1" vertex="1">
          <mxGeometry x="2385" y="1377" width="10" height="10" as="geometry" />
        </mxCell>
        <mxCell id="TaerqS0B0yZli5gVPiHv-10" value="" style="shape=ellipse;fillColor=light-dark(#000000,#000000);strokeColor=none;html=1;sketch=0;" parent="1" vertex="1">
          <mxGeometry x="2676" y="1153" width="10" height="10" as="geometry" />
        </mxCell>
        <mxCell id="TaerqS0B0yZli5gVPiHv-11" value="" style="shape=ellipse;fillColor=light-dark(#000000,#000000);strokeColor=none;html=1;sketch=0;" parent="1" vertex="1">
          <mxGeometry x="2675" y="1186" width="10" height="10" as="geometry" />
        </mxCell>
        <mxCell id="TaerqS0B0yZli5gVPiHv-12" value="" style="shape=ellipse;fillColor=light-dark(#000000,#000000);strokeColor=none;html=1;sketch=0;" parent="1" vertex="1">
          <mxGeometry x="2674" y="1218" width="10" height="10" as="geometry" />
        </mxCell>
        <mxCell id="TaerqS0B0yZli5gVPiHv-13" value="" style="shape=ellipse;fillColor=light-dark(#000000,#000000);strokeColor=none;html=1;sketch=0;" parent="1" vertex="1">
          <mxGeometry x="2675.25" y="1303" width="10" height="10" as="geometry" />
        </mxCell>
        <mxCell id="TaerqS0B0yZli5gVPiHv-14" value="" style="shape=ellipse;fillColor=light-dark(#000000,#000000);strokeColor=none;html=1;sketch=0;" parent="1" vertex="1">
          <mxGeometry x="2675" y="1334" width="10" height="10" as="geometry" />
        </mxCell>
        <mxCell id="TaerqS0B0yZli5gVPiHv-15" value="" style="shape=ellipse;fillColor=light-dark(#000000,#000000);strokeColor=none;html=1;sketch=0;" parent="1" vertex="1">
          <mxGeometry x="2674.25" y="1366" width="10" height="10" as="geometry" />
        </mxCell>
        <mxCell id="TaerqS0B0yZli5gVPiHv-18" value="" style="shape=singleArrow;whiteSpace=wrap;html=1;fontSize=7;fillColor=#dae8fc;gradientColor=#7ea6e0;strokeColor=#6c8ebf;" parent="1" vertex="1">
          <mxGeometry x="2896" y="868" width="88" height="56" as="geometry" />
        </mxCell>
        <mxCell id="TaerqS0B0yZli5gVPiHv-19" value="" style="image;aspect=fixed;html=1;points=[];align=center;fontSize=12;image=img/lib/azure2/analytics/Power_BI_Embedded.svg;" parent="1" vertex="1">
          <mxGeometry x="3000.62" y="784" width="84.75" height="113" as="geometry" />
        </mxCell>
        <mxCell id="TaerqS0B0yZli5gVPiHv-20" value="" style="editableCssRules=.*;html=1;shape=image;verticalLabelPosition=bottom;labelBackgroundColor=#ffffff;verticalAlign=top;aspect=fixed;imageAspect=0;image=data:image/svg+xml,PHN2ZyB4bWxucz0iaHR0cDovL3d3dy53My5vcmcvMjAwMC9zdmciIHhtbG5zOnY9Imh0dHBzOi8vdmVjdGEuaW8vbmFubyIgd2lkdGg9IjE2Ljk3OTk5OTU0MjIzNjMyOCIgaGVpZ2h0PSIyMCIgdmlld0JveD0iMCAwIDE2Ljk3OTk5OTU0MjIzNjMyOCAyMCI+JiN4YTsJPHN0eWxlIHR5cGU9InRleHQvY3NzIj4mI3hhOwkuc3Qwe2ZpbGw6IzY2OWRmNjt9JiN4YTsJLnN0MXtmaWxsOiM0Mjg1ZjQ7fSYjeGE7CS5zdDJ7ZmlsbDojYWVjYmZhO30mI3hhOwk8L3N0eWxlPiYjeGE7CTxnIGNsYXNzPSJzdDAiPiYjeGE7CQk8cGF0aCBkPSJNOC40OSAxMC4yOUwuMjQgNS4zNSA4LjQ5LjU4bDguMjQgNC42N3pNMS43NiA1LjM2bDYuNzIgNCA2LjcyLTQuMTEtNi43MS0zLjc4eiIvPiYjeGE7CQk8cGF0aCBkPSJNOC40OSAxOS40NEwuMjEgMTMuODkgOC40OSA5LjNsOC4xNSA0LjY0em0tNi44LTUuNWw2LjggNC41NiA2LjctNC41LTYuNy0zLjgyeiIvPiYjeGE7CTwvZz4mI3hhOwk8ZyBjbGFzcz0ic3QxIj4mI3hhOwkJPHBhdGggZD0iTS42MTMgNS41MDJsLjY3NS0uMzcxIDcuNDc3IDEzLjYtLjY3NS4zNzF6Ii8+JiN4YTsJCTxwYXRoIGQ9Ik04LjE5NCAxOC44MjZsNy4zMDEtMTMuNTU5LjY3OC4zNjUtNy4zMDEgMTMuNTU5ek0uNzE2IDEzLjY4N0w4LjA5Ni45MDRsLjY2Ny4zODUtNy4zOCAxMi43ODN6Ii8+JiN4YTsJCTxwYXRoIGQ9Ik04LjE5NCAxLjIxNGwuNjY5LS4zODEgNy40MDUgMTIuOTg3LS42NjkuMzgxeiIvPiYjeGE7CQk8cGF0aCBkPSJNOC4xMy45NmguNzdWMTguOWgtLjc3ek0uNTUgNS40M2guNzd2OC42NkguNTV6bTE0Ljk3LS4wOWguNzdWMTRoLS43N3oiLz4mI3hhOwk8L2c+JiN4YTsJPGcgY2xhc3M9InN0MiI+JiN4YTsJCTxjaXJjbGUgY3g9IjguNTIiIGN5PSIxLjA3IiByPSIxLjA3Ii8+JiN4YTsJCTxjaXJjbGUgY3g9IjE1LjkxIiBjeT0iNS4zNCIgcj0iMS4wNyIvPiYjeGE7CQk8Y2lyY2xlIGN4PSIxLjA3IiBjeT0iNS4zNCIgcj0iMS4wNyIvPiYjeGE7CQk8Y2lyY2xlIGN4PSI4LjUyIiBjeT0iOS45MyIgcj0iMS42OCIvPiYjeGE7CQk8Y2lyY2xlIGN4PSIxNS45MSIgY3k9IjEzLjk0IiByPSIxLjA3Ii8+JiN4YTsJCTxjaXJjbGUgY3g9IjEuMDciIGN5PSIxMy45NCIgcj0iMS4wNyIvPiYjeGE7CQk8Y2lyY2xlIGN4PSI4LjUyIiBjeT0iMTguOTMiIHI9IjEuMDciLz4mI3hhOwkJPHBhdGggZD0iTTguNDkgMTAuMjlMLjI0IDUuMzUgOC40OS41OGw4LjI0IDQuNjd6TTEuNzYgNS4zNmw2LjcyIDQgNi43Mi00LjExLTYuNzEtMy43OHoiLz4mI3hhOwkJPHBhdGggZD0iTTguNDkgMTkuNDRMLjIxIDEzLjg5IDguNDkgOS4zbDguMTUgNC42NHptLTYuOC01LjVsNi44IDQuNTYgNi43LTQuNS02LjctMy44MnoiLz4mI3hhOwkJPHBhdGggZD0iTS42MTMgNS41MDJsLjY3NS0uMzcxIDcuNDc3IDEzLjYtLjY3NS4zNzF6Ii8+JiN4YTsJCTxwYXRoIGQ9Ik04LjE5NCAxOC44MjZsNy4zMDEtMTMuNTU5LjY3OC4zNjUtNy4zMDEgMTMuNTU5ek0uNzE2IDEzLjY4N0w4LjA5Ni45MDRsLjY2Ny4zODUtNy4zOCAxMi43ODN6Ii8+JiN4YTsJCTxwYXRoIGQ9Ik04LjE5NCAxLjIxNGwuNjY5LS4zODEgNy40MDUgMTIuOTg3LS42NjkuMzgxeiIvPiYjeGE7CQk8cGF0aCBkPSJNOC4xMy45NmguNzdWMTguOWgtLjc3ek0uNTUgNS40M2guNzd2OC42NkguNTV6bTE0Ljk3LS4wOWguNzdWMTRoLS43N3oiLz4mI3hhOwk8L2c+JiN4YTsJPGcgY2xhc3M9InN0MCI+JiN4YTsJCTxjaXJjbGUgY3g9IjguNTIiIGN5PSIxLjA3IiByPSIxLjA3Ii8+JiN4YTsJCTxjaXJjbGUgY3g9IjE1LjkxIiBjeT0iNS4zNCIgcj0iMS4wNyIvPiYjeGE7CQk8Y2lyY2xlIGN4PSIxLjA3IiBjeT0iNS4zNCIgcj0iMS4wNyIvPiYjeGE7CQk8Y2lyY2xlIGN4PSI4LjUyIiBjeT0iOS45MyIgcj0iMS42OCIvPiYjeGE7CQk8Y2lyY2xlIGN4PSIxNS45MSIgY3k9IjEzLjk0IiByPSIxLjA3Ii8+JiN4YTsJCTxjaXJjbGUgY3g9IjEuMDciIGN5PSIxMy45NCIgcj0iMS4wNyIvPiYjeGE7CQk8Y2lyY2xlIGN4PSI4LjUyIiBjeT0iMTguOTMiIHI9IjEuMDciLz4mI3hhOwk8L2c+JiN4YTs8L3N2Zz4=;" parent="1" vertex="1">
          <mxGeometry x="3034.0000000000005" y="1247" width="108.8" height="128" as="geometry" />
        </mxCell>
        <mxCell id="TaerqS0B0yZli5gVPiHv-23" value="" style="sketch=0;html=1;aspect=fixed;strokeColor=none;shadow=0;fillColor=#3B8DF1;verticalAlign=top;labelPosition=center;verticalLabelPosition=bottom;shape=mxgraph.gcp2.search;rotation=0;" parent="1" vertex="1">
          <mxGeometry x="3038.9" y="1025" width="99" height="100" as="geometry" />
        </mxCell>
        <mxCell id="TaerqS0B0yZli5gVPiHv-30" value="" style="shape=image;verticalLabelPosition=bottom;labelBackgroundColor=default;verticalAlign=top;aspect=fixed;imageAspect=0;image=data:image/png,iVBORw0KGgoAAAANSUhEUgAAAgAAAAIACAYAAAD0eNT6AAAAAXNSR0IArs4c6QAAIABJREFUeAHsvQl4HFedry1nJZDE2ndrX2yt3uQtdmKTDZjMDHeGXAYGAneGAYZ14M7A8wVmWOZeLhAI2ZkMMEM2x1Y22VJsS5al2NqllmVZrbXVtXZ1Kw6BxE5I7Ng+H6elalW3ej9Vvf78POep6q6u6qr3HPn/9llTUvAPBEAABEAABEAABEAABEAABEAABEAABEAABEAABEAABEAABEAABEAABEAABEAABEAABEAABEAABEAABEAABEAABEAABEAABEAABEAABEAABEAABEAABEAABEAABEAABEAABEAABEAABEAABEAABEAABEAABEAABEAABEAABEAABEAABEAABEAABEAABEAABEAABEAABEAABEAABEAABEAABEAABEAABEAABEAABEAABEAABEAABEAABEAABEAABEAABEAABEAABEAABEAABEAABEAABEAABEAABEAABEAABEAABEAABEAABEAABEAABEAABEAABEAABEAABEAABEAABEAABEAABEAABEAABEAABEAABEAABEAABEAABEAABEAABEAABEAABEAABEAABEAABEAABEAABEAABEAABEAABEAABEAABEAABEAABEAABEAABEAABEAABEAABEAABEAABEAABEAABEAABEAABEAABEAABEAABEAABEAABEAABEAABEAABEAABEAABEAABEAABEAABEAABEAABEAABEAABEAABEAABEAABEAABEAABEAABEAABEAABEAABEAABEAABEAABEAABEAABEAABEAABEAABEAABEAABEAABEAABEAABEAABEAABEAABEAABEAABEAABEAABEAABEAABEAABEAABEAABEAABEAABEAABEAABEAABEAABEAABEAABEAABEAABEAABEAABEAABEAABEAABEAABEAABEAABEAABEAABEAABEAABEAABEAABEAABEAABEAABEAABEAABEAABEAABEAABEAABEAABEAABEAABEAABEAABEAABEAABEAABEAABEAABEAABEAABEAABEAABEAABEAABEAg7glkT3A5WVP8x7OmrL/ImuSOZE1ys1mT3O+zJ7nzWZMcyfZMZo5ka1KOmSduaYInOR4pd4InrnSaJ7leUt5pnjjTOE/yfKT8cZ440yme5HtJBad44kxjPCnwkQrHBFJ40n9aMyoQv8kkkCJ/aUQgxf7SsECKhwVS4i8NCaRkSCClQ6L3NCiS0kGRlPlKAyIpW0rlAyJZkfpFUq5JFf0icUt9IqnwSJV9InGlXpFUeqSqXom4Uo9Eqryk6h6JONMJiVT7SGtPSMSZjktkrY+07rhE1r3iO9W8IpGabv+ptksmftMxmdT5S50yqfeXjsqk/qhMGvylDpk0dMik0Vdql0njUlrfbiMr0hEbWb+UNhyxkRXpsI1s0KSNh23ELR2ykY0eadMhG3Gll21kk5e0+WUbcaY2G9nsJTW1KcSZWhXS5CNtaVWIMx1UyBYfaetBhWw94DttO6CQbS3+0/aXFOI3vaiQHS/afacX7GTHC3Zyk6/0vJ3c9Lyd7PSXnrOTnc/ZyS5fqdlOdi2lm5vtZEXabyc3a9It+x3ELe1zkFs0afc+B3FLzzrIbo+051kHcaW9DrLHS/rgXgdxpmcc5INe0q3POIgrPe0gt7qn87c97fj9bc84Zm972nH4ticXfnHr0wsfv+PJhey4D5zx/AA3TsrpGVPcl7OnuKGsKe5y1hRHXGmSIzTwqwkC4EUG/AV/esxf8KfHIAA+gz+VAgiARgjiXQCoCEAAnME/CQXAKQS3Pb1AnOmpBXLbYrp821MLA7c+7fjSnz0jpsVzLI2re8+ckfIzp/j7M6e4tzK1QV+7rwn+qAHwEvxp7QAEYMWvf1ob4Pr1T2sCvPz6p++hBsCjRgA1AD5//dNaAdQALNUGaH7905oAt1//tDZA8+uf7rv9+qevPX7909euX/9038uvf/oeYw2ALwFQRYBuz936pONndz71Wl5cBdO4utnu7quyZvivZ05zZ2ngV5PrVz8EwK1ZwG/1PwRgsRnAo/ofAuClOQBNAD5//dNaATQBaJoEErMJIBgBcMrA7U8tvH3HE47v391sviauYmus32zWlLUyc5o7mTnNEWeCALgFe2/9ASAAK9v/aX8AV/s/3YcAkDp/7f/0GAQAAqD2C0jOPgChCAC5/ckFmkwf/O2r5bEeV+Pi/jJm+L/MnObedAV/KgEQAAgA7RSo6QBI9906ANLXHh0AIQBeOgRCALx2AKSdAtEJ0KNTIARAW+2/Yv/2p5zBX5WAN+94cuHP4yLIxupNZkzzn8mc5t5zC/4QAIJRAEsjAiAA/kcA0BEC/kYA0GMQAAgAHRmAUQCLIwHcRwA4f/3TUQFeOgEGEgAqAhfveHLh87EaX2P6vtKnuM9lTnOXVwR/CAAEQB0SCAGAANAhgR5DAOlr1xBAuu9lCCB9D8MANcMCIQBGCACVgMt3PLnw9zEdbGPt5mi1f8Y0d9Fr8IcAQAAgAK75AfzOAYAagEURgAA45wDAPABhzQMQTh8AtRlA3b6H5oAgLSNrcr4iY5p7M4MGel8JfQDQBwB9AJwSAAFADYBzgiBMBBTNYYDqKAA14K/Y3vbkwtkPPaVUBxkGk/RjJtPVGdPcSRr8IQCYCVCdBZBuV8wCCAGAAKgzAqIJgGyHAMS0AKijA3Z3k6uSNLoHfuyMGf5bGTOLwR8CAAGAAPifBphOE4waANQAoAZgaUKg6E0EFLAGYEkAyO1PvPrNwJEwCT9BZ/jLmOHOQQCwFoBrbQCsBeBq6/e1JgAEAAIAAYgfAbjjiYWzH/nvM7lJGOL9P3LmNH+/M/ijBgCLAamLA0EAIAB0cSDNQkB0320hoEiMAsBaAIuLBGEegBVD/5bWBQi6BuCOJxbIHU+8+lP/0TDJjjoX9pnh3oIALP36pysC+lgJkL6PeQAwD4BaI4AagAjUAEAAIAArFwNaIQMeEwGt6AhImwEWBWDhHBYQ0khOxjT3FVfwRw0AagBQA+BcJhjLAS8tDRztGgAfKwFiLQDNOgB0iWCsBeA16Lva/5cFgNzx21f/URMCk3s3Y4Yb0lEATmdN8V/PnbTU5owvfCC5yeLpQQAEQAAEwiVwx5MLH9iz11F7+1MLX7/t6YUJbZW/534INQC0JqA/3HtKqPOyJ7icjBnusg4C8G72lPUfUwi5IqEA4WFAAARAAASiTuDuZnLl7U86vnzbUwvnPYM/fR2iAFz+8H85sqL+UNG+gfRZ/uNuwT+8JoB3M2eEPdF+Fnw/CIAACIBAYhO448mFD3qTgBAFgNz+pOPuxCYVxNNlzlh/wSoA2ZP8F4P4KnwEBEAABEAABJgJ3PaU4yuetQChCsCdTzh+znwj8X6BzBnuMKMAnEa1f7yXAtw/CIAACMQPAdoccNtTC5NaCQhVAG5/cqEtfp7YoDvNmOHn2QSA/7pBt4bLggAIgAAIgIBXArc+9eo3WQTgziccs14vnExvZsxwv2MRgHSzWJNMvPCsIAACIAAC0Sdwx5MLdSwCcMcTC2ei/xRRvoOMGe48iwBkmc3XR/kR8PUgAAIgAAJJRuCm37x2A6MAvJtkyFY+7orgH+IogJVXxDsgAAIgAAIgYDwBRgEgxt9hjH8DBCDGMwi3BwIgAAIg4JUABMArluDfhAAEzwqfBAEQAAEQiB0CEADGvIAAMALE6SAAAiAAAlEhAAFgxA4BYASI00EABEAABKJCAALAiB0CwAgQp4MACIAACESFAASAETsEgBEgTgcBEAABEIgKAQgAI3YIACNAnA4CIAACIBAVAhAARuwQAEaAOB0EQAAEQCAqBCAAjNghAIwAcToIgAAIgEBUCEAAGLFDABgB4nQQAAEQAIGoEIAAMGKHADACxOkgAAIgAAJRIQABYMQOAWAEiNNBAARAAASiQgACwIgdAsAIEKeDAAiAAAhEhQAEgBE7BIARIE4HARAAARCICgEIACN2CAAjQJwOAiAAAiAQFQIQAEbsEABGgDgdBEAABEAgKgQgAIzYIQCMAHE6CIAACIBAVAhAABixQwAYAeJ0EAABEACBqBCAADBihwAwAsTpIAACIAACUSEAAWDEDgFgBIjTQQAEQAAEokIAAsCIHQLACBCngwAIgAAIRIUABIAROwSAESBOBwEQAAEQiAoBCAAjdggAI0CcDgIgAAIgEBUCEABG7BAARoA4HQQiSODuZnJl7RFbY32n/PmGo9IvGzrkQ/Ud8mRDhyw1dsi/X0w2vrFDPt3QLresb5fvazxi+3RDu1Aawds07Ku2HpAbmlqVR5palZmmVuW9La3K+a2tyvTWg8qj9BjrFzcddNRuPWD7xfYWxbytRXlrW4tCaNr+UoD0okJ2vGj3nV6wkx0v2MlNvtLzdnLT83ay0196zk52Pmcnu3ylZjvZtZRubraTFWm/ndysSbfsdxC3tM9BbtGk3fscxC096yC7PdKeZx1v7XnWYf7gXvsDu/ct1LHyD/V8CECoxDw+DwHwAIKXIBBjBHZ3k6saOqS/aOiQfttwVP5dw1GZuKUOmTR0yKTRV2qXSWO7TBraZXH9EdsDjUftO1MIWRVjj+n3drY3y9c1HbQ93tSqXG5qVYiatrQqxJkOKmTLQeXSllb7YxWHLNf6vZiXgzXN5mu2tyiPbGtRLqpBX7uFAKwM/lQG9mjTXsfFPc84Hrm72XyNF8SGvAUBYMQKAWAEiNNBwCACazttGfUd8r/VH5VtbgE/TAGgErC+3baUFHNjh+0Lu7v59xl0+7pd1hn8W22vqEFfu/UQACoBZEurvSsUCaDBf1uL0qkN+J77EICgBIDs2eug6VikJAACwPhnBgFgBIjTQUBnAg3tCx+oPyp9t75TfqP+qExo0l8AFkVgQ7tNamxX/o42Lej8GLpdbnOr/ZfaoK/d9yoABxVCmwSCvYHtB5y//J1V/Z6BX30NAQhJAGhTwcPB8mf5HASAhV5KSgoEgBEgTgcBHQk0dMofqu+08fWdMnEmgwXAWSNwxEbWH7EN178s1+v4KLpcakurrbGpVbmkDfrafV8CQJsDtrcEfh7a5r/tgPdqfzX40y0EIDQB2EObA/Y6anUpBH4uAgHwAyeYQxCAYCjhMyBgLIGSbv59dZ3yr1yBP/ICQCXg/Pp25Z9jqX9AU5vyqDbge+77EQDaNyDgr9CtB2wPbDuw2NFPG/A99yEAIQsA2fPMwv3G/tWkpEAAGAlDABgB4nQQYCRQc9ReVN8pj6wI/lQCIlcDQAWAbDhiIxvbbc013WeuZ3wsXU5valOmPYO+9rVfATioTAa6ia0HlEkIwNJoAM0IADoawG0EAH3tMQLASydAtQ+Aup0IxJ/1OASAkSAEgBEgTgcBBgJ1R4V19Z2y7DX4R0kAqARsaLcN1LeJaQyPpsupTW3KH7UB33M/gAC8Fegmth5QzkEADBOAs4H4sx6HADAShACEBrDCYrm2cIzfXXiS/8GaMX5/4UlhpPCk8LvCkwLRpjWjwptFJmFszajwQtEo/5Nik/BnOeMLHwjt2/DpRCZQf1Surzsmn/EZ/KMpAIu1AWM1R+T0aOZBU5ty1jPoa19DADTzAkRnHoDloYCLIwDUX/90CwGI5h9PMN8NAQhMyRn0T3Gfyj/JHykY498uHHMP9trAr+6vGRWIl3S+aFToKhwVvlIxaLkx8DfjE4lKoKHbVlh3TJbr1LZ+X9soNAE4awCWmgM2HJFPRHOoYFObMqkN+J77AQTAHKj8oAlAMxkQmgACFZfEOw4B8J2nBeOWwsIx/icFY8JrBWM8URODALikoMgknC02CY8VjwrrfN8BjiQigU2t9vfXHZPH647JJPYFwEY2HLY9G618aHrZ9oBn0Ne+DiAADwW6bzrrH5oADGoCQCfAQMUv+schACvzgFbVF57if0B/7atBX7vVQwDWmARStJguFpnEX+ab7Jkr7wTvJCKBui75187gHz8CQDYetn0hGnmxuW2hrqlVuagN+tp9PwJwiZ4b6J63tjhqMAzQEAG4eOvTjppA/FmPow8AI0EIgDvAgnHuYwWneJs24Hvu6ywAqgj8vnhU+HIsDcFyJ4NXehCo6bR9zBX840gANhy2vb2p3b5WDwahXmNp7n/X9L/BCEDTAeWRYL9n2wHlYc9hf56vMQwwxFEAz9gfDJY/y+cgACz0MBGQix5t588f5x4tOMUTZ9JU+UdIAJZEQGwpGeNTXTeGnYQhUN372g31x2QlTgWANgV0RiMz6FS9Ta1Kpzbwq/s+agA6Q+m3gKmA9a4BsB/d9Di5OhJlBQLASBk1ACkpeSe54vwxzpSvBn+6jZoAOJsG5kuHuEbGrMXpMUagrlP+qVvwj68aACoAZP1h293RwEqDNJ3Yx7M5wEMALtFf/qGsA6A+i1MCXnLWBGAxoKXOgGHMA3BxzzP2ByMV/GneQQDUEhzmNtkFYM2EVJ4/zos0+MeQAJCiEeGNklF+W5jZitNijEBdJ5dTd0x+O94FYMNh23TK98kV0cJLp+7d0ma/v6nVNrGlVTm3pVV5e0ubMrnloPJQMG3+ge5bXQ54W4ttAssBe0wG5H0ioHN7nnVM7Nnr+Hkk2vw98w8C4EkkxNfJLACFY9bK/FOCrAb/GBMAUgwJCLE0x+7Hvf76Z68BEBuOyj9tPCrdSWcTpAv60BEGm47ai+iaAo0dtp83dMgiXQVQTcurAaqrAjrXAXDOAqjOBOg+DNA5CsD565/WADjTIdvHYpc07iyZCEAAGHM7WQUgy8znegb/GBQAKgFvojmAsZBH+XRaJV13TP7dil//4QpAhyw3dEif2N1Nrgr0aFQKGo7Y7mloXxQBPQRg42FbT6DvxXEQiAQBCAAj5aQUgO7uq/LH+OPaX/7qfvQ7AS4NDxwRaPBXk6XMZF3NmNU4PUoE6rps/9Nr8A9HADpsz9LOhKE+yqaj1tWN7bZ9OgnA5U2HpPJQ7wGfBwG9CUAAGIkmowDkjwv3qQHfcxujAkBF4CUMEWQs7FE6va5Tfl4XAeiQH2QqA4SsamxXHlwhAYvLAbsWAwrUBLDxsI1sOmL71yjhxNeCgIsABMCFIrydZBOA/NPW2/LH+cuegV99HcMCQIqHhS+Fl8s4K1oEaO/yumPyWWYB6JQO6tL5jpBV69ttz7lJQBgCsOGwrTdaTPG9IKASgACoJMLcJpUAmExX55/mJ/PHF3v8q0Ffu41pARgRXi8YsmWEmdU4LQoE1h2TbvYZ/INvApC2HtJv7YjqA6/dsL7dJrskIAwB2HjY9t7WQ69jPYsolCl85TIBCMAyi7D2kkkA8k7z33AG//gVANoUEPQMZ2EVCJykK4GaTumbrALQ0CF/TtebSklJaeyQP8UoAGTDIfkWve8L1wOBUAhAAEKh5eWzySIAdHa9/HH+jQQQgPdKTHxUpmT1UnzwVgACdV3y04wCIAbT2z/Abaw4TK+5vt1mc0pAeDUAZNNh+WsrLow3QCCCBCAAjLCTRQDyxvmv59Ff/mpamvhHW/1P90NsAhALTgo/KxzlP5Rvshblm+zvT2kmV9KZBdeM8neuGRXuWzMqSl6WBSaaxYDUtQDct8sjANSRANotagEYy32kTq89JvcxCsDDRt3r+nb5PhYB2HhYRjk0KnNw3aAIQACCwuT7Q0khAISsyhvnZ3QUAKHgpHgPDfa+yS4d6SZXFZqET64ZFWxuIrC8GqB74Fff9y8Ab2aZz1wf8LvxgagTqD0mi0wCcEz+sFEP0dhuu4tJAA7Znjfq3nBdEAiGAAQgGEp+PpMMAkB7/tPgr4cAFI7xe8MZk18xaLlxzSi/3yUBaqD3tfUvAKRkhI/K8qx+ihIOeSFQe0x+i0UA1nfIlV4uq8tbdMZAJgE4LJ/Q5UZwERAIkwAEIExw6mlJIQDj/GM6CcD9rOOwC0/yDzolwFfgV98PIADFw0JUVmZTyw22wRGoPSZfYBGAcCb9Ce7OUlLotMFsAmAbCPa78DkQMIIABICRajIIQO4pwcIsACf5fYyoF08n5IrCUaGNsQ8AnRPgncJ++Tpd7gkXMYxA7TH5UqIKwIbDtiHDwOHCIBAEAQhAEJD8fSTRBSD7tFimBn+GJgAxy2zWrc2dNiGsMQm2IvXXvrdt4BoAUjQi3uYvb3Es+gRqjslvsAhALDcBbDhs644+YdxBMhOAADDmfqILQO44/xlWASgcEz7JiHnF6UUj/BdYBaB4RPg/Ky6MN2KKQO0xWWARgPoO+SNGPRBzJ8DDtv1G3RuuCwLBEIAABEPJz2cSXQDyxrn/wyYAghxUb38/jL0d2mQyXV1kEmSfEhBEDUDJMI//gL3BjaH3ao9JvUwC0GncUDvmYYCHbA/EEGrcShISgAAwZnqiC0DuOP8siwDkn+R/zIjY5+nFJuFRFgEoHhZGfF4cB2KCQE2X/GsmATgqSwZOBGRn7AQY8ZEoWw/IDU2tyiNNrcpMU6vy3pZW5fzWVmV660HlUXqMNdObDjpqtx6w/WJ7i2Le1qK8ta1FITRtfylAelEhO160+04v2MmOF+zkJl/peTu56Xk72ekvPWcnO5+zk12+UrOd7FpKNzfbyYq0305u1qRb9juIW9rnILdo0u59DuKWnnWQ3R5pz7OOt/Y86zB/cK/9gd37FupY+Yd6PgQgVGIen090Acg7zQ+zCEDhmGBYFWzRqHgXowD8ziM78TLGCNR22b7BKACk/qj8D3o/1vp222ecwb/d5lwFcP3SbIArVgI8YiMbDrsnuhqgc0XAw/adet+Xr+ttb5avazpoe7ypVbnc1KoQNW1pVYgzHVTIloPKpS2t9scqDlmu9XUdX+/TRZu2tyiPbGtRLqpBX7uFAKwM/lQG9mjTXsfFPc84Hrm72XyNL856vw8BYCSa8AIwzs+yCEDBuKWQEbHP00tHuGpGASBMwxJ93hkO6EWgrlvazCwAHbKs52JAdBEf1zTA4QvAuzQo68XJ33Wcwb/V9ooa9LVbDwGgEkC2tNq7QpEAGvy3tSid2oDvuQ8BCEoAyJ69DpqORUoCIAD+/nKCOJboAqAdAkhFINSpgI0cakcnB4IABFFI4/gjdzeTK+v8jQTolEm9v3RUpjUApOGo3KrfcsDKi65f/+ELQFeksmVzq/2X2qCv3fcqAAcVQpsEgr2/7Qecv/ydVf2egV99DQEISQBoU4FhU1hr8xUCoKURxn6iC0DeOM+x1ABAAMIoVDjFjYDfBYH8BX96bFkASEOH/CBTjQ8hq9a32x51C/5hC4DyL24PadCLLa22xqZW5ZI26Gv3fQkAbQ7Y3iLXB7ot2ua/7YD3an81+NMtBCA0AdhDmwP2OmoD8Wc9DgFgJJjoApA/zs+zCECMNwFcZgoIjGUHpwdHoK7L9mc+mwFCEQCnDEj7w2kOWN/Np65vl59bEfzDE4BLDYdshjWNaak2tSmPagO+574fAaB9AwL+Ct16wPbAtgOLHf20Ad9zHwIQsgCQPc8s3K/NSyP2IQCMVBNdAPLG+VdYBMDgToB/ztgEYGfMfpweAQK1XcpNeglAw2JzgNLYIX+KDiUNdPvOZX87pM82tstSY7tMdBKAo4G+V6/jTW3KtGfQ1772KwAHlclA97H1gDIJAVgaDaAZAUBHA7iNAKCvPUYAeOkEqPYBULcTgfizHocAMBJMAgF4gk0A+J8wIvZ5erFJeIxRAPp8XhwHYoJATZf8ybpj8js6CwDtE0CTrfGodH99u/zhhnahlHZ8q28T0zYcsxev75A/Qo81diwGfhr89RKADYeMW6HQM9Oa2pQ/agO+534AAXjL83qer7ceUM5BAAwTgLOevPV+DQFgJJroApB/mv8BiwAUjPG2WJ0IqHhYeIox+3G6UQS+T66o65J+VHtMvuwz+B+TSV2ITQBLgV8VgMVth0z7B5BGX2kp+OskAOORbHZqalPOegZ97WsIgGZegOjMA7A8FHBxBID6659uIQBG/f+i13UTXQByx7mPMQoAKTzFfUov3up11pj4L/r89U/XBghiJsDiEeFe9XrYxg6Bmu4z19d2yS21XTKppUHeX4ozAdh4RP5QJEk3tSmT2oDvuR9AAMyB7hVNAJrJgNAEEKi4JN7xRBeAfNNsZt44f0mVgFCHARaM8aTgJC9lzszcoFfuLy0GpLAKQMkgv02ve8J19CHQcFworTkmn3YG/wQTgI2HbW36UAr+Kk0v2x7wDPra1wEE4KFA30Rn/UMTgEFNAOgEGKj4Rf94ogsAJZx3ij/FJABUAsaE53Sp+tRvOeA3UrrJVdEvQbgDlcC6Y9LNNV3yGVfwTywBeGPDy/Zi9Vkjtd3ctlDX1Kpc1AZ97b4fAbhEzw10n1tbHDUYBmiIAFy89WlHTSD+rMfRB4CRYDIIQP64cB+7APAk/5TwEJMEELKqyCQ8tGZUIGu8LQGsfS9QE8CI8BJj1uN0HQnUdsufq+2Sz7sF/wQSgPVHZN1XxAwW/9Lc/67pf4MRgKYDyiPBXn/bAeVhz2F/nq8xDDDEUQDP2B8Mlj/L5yAALPRSUlKSQQByxufr9BAAZ3PAGL+/ZIxPDRU7rfYvNAnPOYO/PgLw16HeAz6vPwE6zK6mS35wReCnwT9BBGDjYVvQs+rpTzglhU7V29SqdGoDv7rvowagc3c3/75g7wVTAetdA2A/uulxEnCIarD54+9zEAB/dII4lgwCQDHkjXO9VALC6gPgbAKgzQCLqfCkKBWM8Z8JpgreuezvSfGeNaOC4gr+rAJgEmzBfHcQ2Y+PMBCo7xHTarvkdp/BPyEEQDlixGqEoWKnQZpO7OPZHOAhAJfoL/9Q1gFQ78MpAS85awKwGNBSZ8Aw5gG4uOcZ+4ORCv407yAAagkOc5s0AnCK+7RuAjAmkMKTziSuGRPup5MF5Z3kiotOi2kVFsu1RSPCxzAbAAAgAElEQVRiWeFJ4cNrRoX7VwR+GvwZBaBkhP9+mNmN03QiUN2lVNe8Is36Df7xLgDttlfoiAadkOlyGTp175Y2+/1NrbaJLa3KuS2tyttb2pTJLQeVh4Jp8w90E+pywNtabBNYDthjMiDvEwGd2/OsY2LPXsfPI9Hm75l/EABPIiG+TgoBaCZX5o3zvzRAAFQRWLF1+7WvBn3tVtve723fdx+As6WDXE6I2YyP60igtku6s6Zb+kNNt7RYza9W93vb+hsCGNvzAHRsarW/X0dsuBQI6E4AAsCINNEFgP4izx8XmnXsA0AKl2sAVgT+pZqBxV/52oDvue8t6Gvf8yEARSbx24xZjtMZCNR0iZ+v6ZYu0OCfqAKw/rDtcVolzoAJp4JARAhAABgxJ7IAFEzbMvJO8X1q8E+AGgCuJITOTYxFA6drCNCAWNMt/VoN/OpW5yaAS/WdMk3LSwRrVwNcnP7XfRZA+p5+MwGe3dCu/J3msbELAjFNAALAmD2JKgA540Jp3jg/ow3+CSAATzINQ2QsK8l6esUJR1ZNt3RCDfrarY4CcK6+U/pofadte32nfNolAZETgKPRGOefrGUKz60PAQgAI8dEFIC8cWFj3jjv8Az+CSAApGhEbKkYtNzImO04PUgCdZ1yQ023xGuDvnZfHwGw8fR71FuiI0fqjspfre+U7fXGC8DUhsPKX6jfjS0IxBMBCABjbiWaAORPcHfkjfNnvQX/RBCA4sW+ATNFg6Lhs2wxFq24P31dt/TRmm7pnDbge+6zCkBtp3xiwyFHljdY2/vl65wicFSe9LoIkNokEFYTgHK88bD8V3c3kyu9fTfeA4F4IAABYMylRBKA3HHunvzT/AVfwT+BBIAUDwtni0bEjzFmP073RoCQVeuOS9+peUW65BnwPV8zCUCX/OtgO9ut71Buqu+w/bzhqDy3QgaCE4CLje3SaGO77buNnbYqb4+N90Ag3ghAABhzLFEEIGdcuDfvNH857zRPkkQAqARcLhnhf2LEcsWMxSpuTy/sl69b94q0d90rEqmhaam3v69tmAJwsfaY7Z/ChVTXrqxp7JD/R32H7YcNR+UnGzrkVxo6ZFNjhzy3vl2eb3Tu2zoaj8q/aeyQv72+Q/7IpqPW1eF+H84DgVglAAFgzJm4F4BmcmXuBPdoLg38ahr3LQG6zAQYxWGAS00ANPg7U8mwQEqGhVcwNwDjH0JKSkp1r5S/7hVpiAZ/AwXgbF2n7S72u8UVQAAEIACMZSCeBYCO8c89LTTT4J/kAkBlQC4d4bYwFoekPb3muLBh3SuSqAZ/gwTAUndUWJe0kPHgIKAzAQgAI9B4FYDCSTk9d0LoUYN/sgvAUk3Au6VDwucYi0TSnb7uuPTxda9Ib2uDv/4CYOugawckHVw8MAgYSAACwAg3HgWAjvHPPc3PaIO/zgJwSV34x9s2mjMB+mgCoM0A2vRYjRkzuQX80yDkippXpB+te0W67Bn8dRWATvnBWFhQJyAPfAAE4owABIAxw+JNAHJOW+tzTvM2z+CvmwCM8fP541x1wRh3d8EYb41TAaAyYCozWYsYi0fCnk4XuVl3XHrRW+BX39OhE+B7NcfkryQsRDwYCESZAASAMQPiSQDoGP/cCf6st+CviwCM8/35ptlMFalzHYEx4UsFY/y4VgR0qgF4o0g797/nvo+1AIKsAVisDRgSHKVD0i71ebBdJFB9XChde1w6ve74Ymc/NeB7blkEoKZLPrPumHQzmIMACBhHAALAyDZeBCDXzN2TO8FfyJ1Y7PDnTQKYRgGM8y35Jt+rn+WNipvyTwkPFYzxM+EKQOGo8GrhKP94gUnYQ4fuFZnErxaZhAteRUAfASAlQ8KFkmHxa4zFJGFOX3dcunntcenMWhr8DRKAmmPy6YbjQmnCQMODgECMEoAAMGZMPAhAzoRwb+4Ef9kZ/A0QgLxT/C9DGUu/5qSUXzgmfHLNqPB/C04KzxaeFIcKxwSrM50U5MKTolQ0KvSvMYkta0bFXxSOip8qHJMrvWVVkUncWWQSHCskQD8BIKVDIikdFJ/yJzje7i3R3lv7ivwPa49L52nwN1AAWmjzQqKxw/OAQCwSgAAw5kpMC4BzjD//WA4N+tq0NOzPsxYgjBqAywVjwncYETKfToWiaFToc5MAvQWASsCQOFY0IpYx33CcXYB2wFt7XH5QDfzqVucagMt1XdKPUr5ProgzPHF1u1sPyA1NrcojTa3KTFOr8t6WVuX81lZleutB5VF6jPVhmg46arcesP1ie4ti3taivLWtRSE0bX8pQHpRITtetPtOL9jJjhfs5CZf6Xk7uel5O9npLz1nJzufs5NdvlKznexaSjc328mKtN9ObtakW/Y7iFva5yC3aNLufQ7ilp51kN0eac+zjrf2POswf3Cv/YHd+xbqWPmHej4EIFRiHp+PVQGgM7LlmPkWGvwNEoALBWP8ZzxwRO0l7bVfbBIedUmAMQJAJeD1kmH5Q1F70Ah/MR16t/a41KEGfe1WRwF4p6ZL/mSEHy2pvm57s3xd00Hb402tyuWmVoWoaUurQpzpoEK2HFQubWm1P1ZxyHJtqHDolMzbW5RHtrUoF9Wgr91CAFYGfyoDe7Rpr+Pinmccj9zdHLkRSBCAUEu6x+djUQAKpm0ZORN8vxr89RcA4VzeKf5ODxQx8bLIxH+myCS8U2ScAFAJuFQ6JH0n0ZcWru5Vqtcel2a1QV+7r5MAKDXHZEzAZOBfjzP4t9peUYO+dushAFQCyJZWe1coEkCD/7YWpVMb8D33IQBBCQDZs9dB07FISQAEgPEPL9YEgI7xz57gZ7TBX2cBcNDlghmxGXp6sUnYWDQiCK4e/95kwH0qYO0cAMv7QwLtBLjYB2CxCcB9fzBxlxZee0K6s/qE9AdtwPfc10EAhhuPyQWGFgZcPGVzq/2X2qCv3fcqAAcVQpsEgkW3/YDzl7+zqt8z8KuvIQAhCQBtKng4WP4sn4MAsNBLSUmJJQHImxI25ph5h2fw11EAZqhgMCKLyOn5JntmyQjf4VMC9BEA2jlwpiLBlhauPiH+09oT0sW1JxY7+3kGfvU1iwCs65L20maqiBSGJP6SLa22xqZW5ZI26Gv3fQkAbQ7Y3iLXB0JH2/y3HfBe7a8Gf7qFAIQmAHtoc8BeR20g/qzHIQCMBGNFALInuDtyzPzZHPNim7+nBLB2Aswd5/tp0wIjrsie3kyuLBnhf1w8IlxeIQL6CQApGxTPlg7G/9LCtB9FdY/062oa+NW01ONfDfrabVgCQJcI7pLuTfTmk8gWdN/f1tSmPKoN+J77fgSA9g0I+Ct06wHbA9sOLHb00wZ8z30IQMgCQPY8s3C/75zV5wgEgJFjLAhAtpm7J8fMX3AGf2MEwO8Yf0aEhp9ePCL8dfGIcNZNAvQVACoBl8sGxLhdWrjihCOrukc6QYO/gQJwbl239FHDMxxf4CLQ1KZMewZ97Wu/AnBQmXRdyMfO1gPKJARgaTSAZgQAHQ3gNgKAvvYYAeClE6DaB0DdTvjArtvbEABGlNEWgJwJ7t4cM3/ZFfz1F4CQxvgz4jTs9OJRYV3xiDDjkgD9BYBKAE1Hq0x212yIhj2QjheuPiE3VJ+QeDX4GyQAfF0n+zAzHR87KS7V1Kb8URvwPfcDCMBbgSBtPaCcgwAYJgBnA/FnPQ4BYCQYNQFoJldmT/KPZZs54hb89ROAy3nj0R/jz5g9bqdXDFpuLB4RXnJKgHECQCVAKB8UN7l9eQgvyvukuso+6X9V9okPlfeJbRV9ormiTxIr+sTfV/WJv6/sE1+t7BMnKnvEIxW90sOVPeLn1/bL9eFUq1edkD5afUI6pw3+BgjACVrDEAICfFQnAk1tylnPoK99DQHQzAsQnXkAlocCLo4AUH/90y0EQKe/A8MuEw0BoJ2nss1cCw3+RghA/jh/IXc8dsb465p5hKwqHhHuLR4WLha7rwC43PtffT/wKADaCVD95e+5fad8QPpsUPdOyBXlvcKeij7xVxX9olLRLxJn6hNJhUeq7BOJK/WKpNI9vVbVK/22sk/4s4Cr5xGyqrpH+k71CemSZ/DXUwBqu8Vf0WFiQXHAh3Qn0NSmTGoDvud+AAEwB7ohNAFoJgNCE0Cg4pJ4xyMtALQjXraZ61eDvwECcDZWx/jrWXpKhvg7i4eF1z2WAXaXADYBIGUDIikbEHwuLUxrJCoGpG+W94tCuRr0tVuP4E9lwBX86b578He+ruqViDP1SHJlj/QdOpGPJzcqkGt7pGe9BX71PR06AV5cd1z8uud343VkCTS9bHvAM+hrXwcQgIcC3S2d9Q9NAAY1AaATYKDiF/3jkRSAnBmhNNvMzWiDv84CEPNj/PXM8eIhobRkWBjzKQG6CIBzHYH+6l4pX713OslKxYD0jfJ+8Xc08KvJ9ctflQAWAaAi0ONMf6julf5VHXJX1S8XVPdII9U9i5391IDvuWUUADp/wB3q82IbPQKb2xbqmlqVi9qgr933IwCX6LmB7nxri6MGwwANEYCLtz7tqAnEn/U4+gAwEoyUAGROCRuzJzlH9uRitb9WAnTqAxA3Y/wZs8ztdBoYi4eFp7xKgE4CQGsCygdE59LC5f3CjooBcbqcvqcJ/rrXACwLgCoC1qoe6ctVPZLiDP7GCcBsdZdS7QYZL6JKYGnuf9f0v8EIQNMB5ZFgb3rbAeVhz2F/nq8xDDDEUQDP2B8Mlj/L5yAALPQiNBEQHeOfPcmddQZ/YwQg/sb4M+ab5+l/muP/qyXDdOlfYbkZQF8BoBJwoXxAvOQM/pEXAFUEiIEC0L6+m0/1ZIvX0SVA+2A0tSqd2sCv7vuoAejc3c2/L9i7xlTAetcA2I9uepxcHSx/ls9BAFjoRUAAssz8Z7InuQuu4K+zAOSd5uN6jD9j9rmdXmYSd5YMCw6XBOgvAFQCllNkawCMFYBu+YGAHQ/daONFJAnQIE0n9vFsDvAQgEv0l38o6wCoz+CUgJecNQFYDGipM2AY8wBc3POM/cFIBX+adxAAtQSHuTWyCSBrkrs3a5K77Bb89RSAcT4hxviHmXVeT6NLC5cMC31OCYAAEO3Mf577SzMBnl/XLX/OK0y8GXME6NS9W9rs9ze12ia2tCrntrQqb29pUya3HFQeCqbNP9ADqcsBb2uxTWA5YI/JgLxPBHRuz7OOiT17HT+PRJu/Z/5BADyJBPE6dYorzpgV/kfmtPX7hggAIVdmTvKPZU1yhCYDBCDhxvgHkW1Bf4ROiVs6LDxKFwIKsBiQv2GAS6MA6EgAza9+7X781wCcqXlF2hU0WHwQBEAgpghAAILMjrRZ6870Ge7B9BluLn2GIzR5Df70/enFlDnNEa9piiOZS8nz6wtl+brMSa5FDf4GCEDijvH3hMn4umSI/0zJkPBOqbeVAOl7g4tpaQZAz3kAEl0ATq/t5ksYEeN0EACBKBKAAPiBn2+3vz991vqN9FluJn2WI860FPz1EgAa8NVboGP8s6a4fm3w11kAzuaZ+TvV78M2MIHiAWFj6ZAoeJWAJBWAdcellpruM9cHpodPgAAIxDIBCIC33DGZrk6ftX4zfZZ71RX4DRKArClOyprmP5s9YSnPmuJmsqYWq/21EqBTE0BSjfH3lq3hvkfn9i8dFjtWSEDyCcDltSek/5tCyBXhssR5IAACsUMAAuCRF6nTlt1ps/NTKwK/cQJAnEF/iru4tHW2++spANkTfFKO8ffIWraXzeTKsiHxx6VD4mWXCCSXAPxx7SvSJ9gg4mwQAIFYIgABUHOju/uq9Fnr99NmrZfSZq2L1f1q0NdudW4CcAV9+stfTUud/1QJYKoBOM0P5p60YCEWNZ8Zt6XD4p+XDolvOCUgeQTAXnVC3sKIDqeDAAjEGAEIQEpKyg2zs5lpFmtv2pyV0OCfMAJg5lvUKWBjrNzF9e0UDwjrSofEmSTpBDisncY4rjMONw8CIOBGIOkFYLXFUp4+Z51zBv8EEoDcCYzxdyvpOr+gC/mUDQov+VkNMBFGAeyFQOpccHA5EIghAkktAKtnhNK0OavsCv6JIQCXcyaEe2OojCXurRCyqnRIurdsULzodSigczVAlnkAJLGiT/pZeb/8obIea1G+yf7+lGZyZWkfV1zRL91Z2SvdV9krStpVAV2rAa5cCyCUmQAvrT0h3ZtCyKrEzTw8GQiAQNIKQBbP56bNWefdgn/8C8CFXDP/GRTryBIoGxLv0lkA6PLA99BgH+hJ6PS7lb3CJyt7RRsVAZ0EQEZP/0DkcRwE4p9AcgqA2XxN2qy1b0Xwj28BOJuNMf5R+YssHZTu0EsAyvuFvWUm6+pQH4Q2SVT1ivt1EgCy7rh0c6j3gM+DAAjEF4GkFIC0WeujXoN//AqAI29K2BhfRS9x7rZ8SPyVPgIg3M9U7U7Iquoe+UGXBPRIrmr/Ks1+MKsBrjsh/TJxcghPAgIg4I1A0gnAagt3R9qc9XICCQDG+Hsr2RF6j1bBlw2KrzELQJ+4T5dbJuSKql65zSkBmqAfqgCsPSG/yiQjujwMLgICIGAkgaQSgCyz+frUOavoM/jHXw1AP50+2MgCgmv7J0CnCvYa/AcXO//RhYACLwYkiXpOrUubEKp6JZs26Gv3g6kBWHtCIuuOy5X+nx5HQQAE4plAUglAqsX6vVQa5P2l+JkHAGP8Y+Avr3RA+ByrAJT1C5/U+1Eqe8UvaIO+dj9oAegR79H7vnA9EACB2CGQNAJw/fx8dqrFei4hBGDC+h/B9BCPnWKWuHdSMiQ8xigAshF5uclkurqqR5K1gV/dD1YAqo9LjyZuzuHJQAAEkkYAUi3WH/ypBoDoLABi+iz3s/QZ/kNp5qVx2oRcmTrFFadP83dmTnP3Zc5w0oolgTXLAbum/1WnAQ5iMaAcM/c5FN3YIFA6KB5nEYCKAfHHRj1JVY/0qBr0tdugBeCE+LJR94brggAIRJ9AcgiAxXJtqsW6oKMACBmz3D0pJPA47ZTu7qsyp62fzJy22lwiwCgA2WbuVPSLDu6AEigbFCdZBKCsV/iIUSQre8S7tIFf3Q9WANaekEaNujdcFwRAIPoEkkIAVs9Z/9oZ/PWoAZjl96ZZQx+nnW6x3Jg5xe13SgC7ANAVA3dFv/jgDkoHRQeLAFQM2gqNoljdq1SrQV+7DVoAjks2o+4N1wUBEIg+gaQQgDQLt08fAeCZx2lnTFkfyNRBAHLM3MPRLz64g9JB8TyLABg5175zciAvQwGDFoAT0hvIYRAAgcQlkPgCYDZf4+z8R3/9s9UA6DVOe5WzJmBJAsLpA5Bt5ki2meMTt1jGz5OVDopvJbAAnImfnMCdggAIhEog4QXgxjl+q+vXf7gCMMOJdA6BUOH6+vxSc4BCawIYBIDkTlpqfX0H3o8MgYRuAjghyZGhiG8BARCIBoGEF4BUi/WbrAKQNmfVfZx2xhT3aVYByJqw/l00Cg2+c5lA6aAwy1IDYGQnwIoe8c+1bf/qfvBNAOLM8pNiDwRAINEIJL4AzFv/m1EA6MpoAVdlC7lgmExXZ05zMksNQLaZvz/k78UJuhIoHRJeYRGA8j7xJ7rekOZilb3SY2rQ126DFYB1x6VDmsthFwRAIMEIJIMAnGARgIw5q2HjtDOn+PuZBGCCO5pg5THuHqd0UHqESQD6RVvMTgR0QvpFpDOk/rhcX9MlP1jbJZtru+S3ao/Jb9Ufk811x+QHGrqlukjfD74PBBKZQOILgMUqsghA2qzVsHHaWZPCh1kEIMvMTSVy4YyHZysZkr7IKACkok/8lN7PWtkrfVH7q1+7H2wNQPUJ6Yt635ev61Ucslxb02V7rLZLvlTbJRNXOiaTuuV0sb5LfqSm2XyNr+vgfRAAgeAJJIMA/J5FANItFsPGaefMCKUsApBt5hzBZzU+aQSBkgF5K6sAlPeJUnXvzA163d/SYkCKNuhr94MVgLXH5Xq97snfdWjwr+2Wu1xB37cAOGWg/ph8DBLgjyiOgUBwBJJBAM6zCEChLF8XHMrQP0WvzSgA74T+rThDVwLN5MqyIeGMVwlYWgkw8GqAIinrF5/TZfld3ZYDlhRd7icI2DXd0i+9Bn8qAsu//rU1AfR9zIMRBFt8BAT8EYAAeK4M6LEaYOaMfr/MPDOCDi1kFIC3Pa+J15EnUDooPsEqAOX9IqnsEx9iCrqErKrqFR+q6pWIM3mZBIjWBARZA/DfkSBJ2/xXVPsHqAFYahK4WNMlYhhsJDIJ35GwBJJBAJiaADKnrVVG5T5dNIhFALLMnGTUveG6wRMoGxD+Sg8BqOgXSUW/uL+km08N/tsXP0mr/St7xOdcwZ9KAIsA9Ih3hXoP4Xy+5pj8gM9f/35qAKgE1B+TMAomHOg4BwSWCCSDADB2AhQ+bFRpyZqyfoRFALLN3JhR94brBk+gxmy+pnxQVFZIQAhNALQGYEkAaKdAqXxA/MzubnJVoLtYXPZXvKeyV1Qqe8XFX/7sNQBcCiFXBPpuPY7XdsmT4QpA3TF5Qo97wDVAIFkJJL4AzFuZhgGmzXKPGFU4mIcBmrlOo+4N1w2NQOmQdK9uAqDKQJ8kVvQL99PJgkr7uOKiHjGNdpir7BHLqnqFD1f1CvergZ8Gf/0EQP5WaE8f/qdru+SzDAJwNvxvxpkgAAKJLwAW63+xdAJMn+VkuqSv7kWFLhM8xUmMNQCP6n5fuGBYBKpM9syyQfFtNwkItwbAJQAirQ1wS5V9zr4CtL+AM+CrgV/d6tAE8MbaTltGWBDCOMlv8A/QBECbAcL4SpwCAiCwRCAZBOAbjAJA0me5f9C7xGRN859lnQo4e4L7tN73heuFT6BsQPx+vAvA2uPSP4dPIPQzIQChM8MZIKAXgYQXgBtnuS06CICi52iA1DE+lf76ZxWArClrpV4FAddhJ0CX9i0dFK0uCYi/GoB52sTATiL4K0AAgmeFT4KA3gQSXgBSTKar/7Qg0FmXBHgO+/N87TEMMH2WozUAJGOGO6hLxyhCVmVOc800+DMKwBmmIWN6lyRcz0mgbEi8K04F4HLVcdmwWS99FQ8IgC8yeB8EjCeQ+AKQkpKyes76LKsAUAlIm+UeZpIAQlZlTXOPqMGfUQAeN7544BvCIVA2KDzqlID4qgG4L5xnZT0HAsBKEOeDQPgEkkIAUuesf6WHADhrAma51nSL5cZQkdMmhKxp/oXM6cVf/qoEhN0JcGJ+R6j3gM9HhsDisEBpgM4AqKbyAZGsSP0iocP/1OQaBhjxToBiPx1OGBk67t8CAXDngVcgEEkCSSEAKWbzNastVodTAjyr/D1f+2gCUJsC0mc4kj7D2dOmuc8HNTqgu/uqjCnuHrr0rzP46yMAs6j+j+SfSejfVTFoKywbEG1xIADz1b1SfuhPqM8ZEAB9OOIqIBAOgeQQgJSUlD8F/+/pKABUAkjGjNWWMcM/ljVr/UjGnLCOTu2bb7K/P81sLcqctt6VOc3dlznN2V2BnwZ/PQRggotoT+1wChbOSUkpG5QrVQlY8euf1ghofv27TQQUuRoAaW03XxLNvIIARJM+vjvZCSSNAFxvsWSlWqxvpnr+4vd8HVwNwJIAODsH0g6C7mmaIxlqsPe2XeoAGGYfAIVKRrIX3Hh5flUCYlAApLU9NsOmuQ42fyAAwZJi+9zWQ6/fuPmg8ommVuVXTa224aZW5UzTQfuFLa0KcaaDCtniI209qJCtB3wl+4VtB5Qz216yDW9rUf5z6wHlb2468JpuK1uyPTXODkQgaQSAgkidm//XuBcAM/f5QJmK47FFoHxYWVM2IAyukIDo1QD01A1yObFACQJgbC5sedlWtaVV+U1Tq/J2U6tCPBO7AChk2wGFbGtxS29vO6D8emurjGHKxmYv89WTSgByxhc+kDpn5dM8f/VrX8dwDUDOJDcdVL8D5mKBC+hNgI6vrxgQHnOTgCgIQPUJ6Ze0k6Lezxfu9SAA4ZLzf972Zvm6pjb7z5ralPc8g772tUECsCQE9gtbW5Sf7u7m3+f/bnE0WgSSSgAo5NVz1tvS5qyXfUpA7ArAhZwpflu0Cgq+Vx8CFQPSX/xpoR/eKQKRFYD5yl7xdn2eQr+rQAD0Y6leif7y3txmm2hqU4gzefnlr0qAsQLgqhUY2PWCkKfeH7axQyDpBICiT5vjHoo7AZjiI7ZAS+wUz8S8EzpjYHm/9MPyfvGP2o6ABg0DfLO6R/p3+p2xSBMCoG+ubD6kbNjcZjuzuc22GPypBERfAMj2lxR56wG5Qd+nxdVYCSSlANDZAdPmrD1eJSAmawCshzDsj7Wox975dAGh8n7hX8v7RYf+owDkV6tOSPeWdPOpsffky3cEAVhmwbq39MvfGfxjUACcEtDUfCaX9Tlxvn4EklMAUlJSsjkuJ23OalkhATEnANbR1afFNP2yHFeKNQLO/gF94scqBsSnKvrF1101AR4rAdKVAQOsBviHql7pt5U94l2RntM/XKYQgHDJuZ9H2/xptT8N/GqKoSYAGvydaVuLMvDhCK834U4Kr7QEklYAKIRUjitOm7NKbhIQSwIwxY0XTEduaVZtwcB+dAjs7iZXlQ2KOyv6hS+X94r/UdEr9lb0idaKPvG1ij7xnco+8VJln/haZZ84U9Uj9lX0ir+q7JW+WNUvb4mlzn3B0oMABEvK/+ea2mw/UwO/uo1FAXCKQIvyA/9Pg6ORIpDUAkAhr54RStPmrDMuCYgdAZjItViyIlUQ8D0gEA0CEAB26nSo3+Y223tq4Fe3LgHw0w8gQp0AXTUASzUB59AUwJ7velwh6QWAQrxhejojbc56wikBsSEAzXouP6xHQcE1QMAIAhAAdqqb2+TfqEFfu3UJQGx0AnSTgB0v2R9jf3JcgZUABEAl2N19Vfqs9ftps9aLabNW5xLArvn/l+LNbL0AACAASURBVJYEdr5eXAvAqJkA38ua4r+NDn9qpmCb6AQgAGw57Jzhr832tjbwq/suAYi9GgAqA29hxkC2vNfjbAiAB8W0WevOtFnraa/Bn4qAYQLA92XOWDd73A5egkBCE4AAsGXv5peVT6gB33Mb4wJAJwv6ONvT42xWAhAAbwRNpqvTZ/ivp89yjhUioLMAZE5xQtYU/3H86veWEXgv0QlAANhyuOll5VeegV997RKAGGwCWOwLYHuc7elxNisBCIAfgoWyfF3GHPfV9FnrpEsEdBaAEh7TZPrJAhxKcAIQALYM3vyybVgN+J7b2BcAZZDt6XE2KwEIQJAE0y3C9vRZ/v70GW5abQZYsQqguipgCKsBBvn1+BgIJCQBCABbtm5+2faaZ+BXX8eBALzK9vQ4m5UABCAMgukWS2HGDP+X6bP897xKAAQgDKo4JRkJQADYcn3zy7bzasD33MaBALzL9vQ4m5UABICRIASAESBOT2oCEAC27N/88vLMf2EIwEW2b09J2UqXAl65HLDn8sBuQwDVWQHplvX7cT4bAQgAG78UCAAjQJye1AQgAGzZDwFg45fsZ0MAGEsABIARIE5PagIQALbshwCw8Uv2syEAjCUAAsAIEKcnNQEIAFv2QwDY+CX72RAAxhIAAWAEiNOTmgAEgC37IQBs/JL9bAgAYwmAADACxOlJTQACwJb9EAA2fsl+NgSAsQRAABgB4vSkJgABYMt+CAAbv2Q/GwLAWAIgAIwAcXpSE4AAsGU/BICNX7KfDQFgLAHJIgBZZvP1+aeEDfmn+I8XnBK+mX+K+1nBKeHJ/FP84fxxYeRP70/nn+KlglP87wtOCecKxnjikd4qGON/XzDGnykcEyyFJ4WRNSeFo2tOCs2FJ4WHCsaEewvG+M/knxRvKxoRy1K6yVWMWYPT44BArAjA1kOWGxs6pE+s75B/1dghDzd2yGcaO+QLjR0yaWxfTuvbbWRFOmIj65fShiM24pEubDhsO7PhsG144xHlPzccVv5Gz1XwghIA36sBYh6AOPgbMfIWIQCMdBNNAHLH+JL80/xf5o5z/5I3Lvxn3mm+O3ecV/LGeUJTvppO8STfSyo4xRNnWikALiEoHBNI4Un/ac2ocGHNqGBZMyocKhrlf1I4Kn6q4CTXuMlkupoxy3B6DBGItgA0dtqq6o/Kv2nokN92Bnsa8D0TmwCQDYdtbmnjYdvbmw7Lv17fIVeyZgUEgJVgcp8PAWDM/3gWgJzxhQ9kT3C3557mf5B7mj+UNyG8lnd6MdCrAd9zG0EBIGtGBW/pj2tGxeNrTMK/rxnl76zunbmBMQtxehQJREsAtvfL1zV02n7WcFR+r6FDJjStCPzqe/oLANl42EbThY2H5Z/u7g5/QTAIQBQLbwJ8NQSAMRPjSgC6u6/KPc3fkjfO/yjvNN+Xe5q/kHuaJ2pyBv/YF4BFKTAJpGgxXSwyCSeLTPyDRSPixwr75XTGLMXpESQQDQGgv7wbjsoTDUdl4kzRE4BFEThkG9h0RMgLBzsEIBxqOEclAAFQSYS5jXUBKJi2ZeSe5v9X7gT3fO4E/0buxHLAVwO/uo1TAVBFQN1eLDLxJ4pGxG8VDYo1YWYrTosQgUgLQONRZUPDUfmMK/hTCYi+AJBNh2zyxsNyQ6jYIQChEsPntQQgAFoaYezHogDQoJ9j5v4hZ4Jvz5kQ3suhQV+bNL/61eBPtwkiAIsiMCKQYppMwmTRsPhvJSZ+bRjZi1MMJhBJAVj65e8e/GNEADYesjkloOllPjcU5BCAUGjhs54EIACeREJ8HTMCYDJdnWPm/iLHzL+YM8Gfp0Ffm5JWAFQRWNyeLDKJXysYsmWEmM34uEEEIiUAzjZ/bbW/Wv0fQwJAJWDjIdtAxSHLtcHihgAESwqf80YAAuCNSgjvRVsAcsaF0mwz/5McM/9qjpknzuQR/JO6BsBdABZrBUaEd0tGhOaiEfG2FEJWhZDd+KjOBCIlAEsd/hbb/LXBP/YEgGw4JP8gWMwQgGBJ4XPeCEAAvFEJ4b2oCAAhq7LN/J1ZZq4128xdcgV+CIDaD4AUeQ/8qgCQ4mHBmUpGhKmSYf4fa8xnrg8h2/FRnQhEQgDoUD9nb3/PwK++joE+AEu//mkNAE3ngm0KgADoVBCT9DIQAMaMj6gAmExXZ09xn842c6ezzRxREwTANSIgdAEYFkjJYvpDybD4o/K++WzGIoHTQyAQCQFwjvNXg723bewJAO0P8FgwGCEAwVDCZ3wRgAD4IhPk+5EQgAqL5dqsSe6r2ZOcmD25HPghAF4Cvzo8MNgagGUBUEXgj6XDwiOlJ7niIIsAPsZAwGgBqDhkubH+qPy2W69/TwmITQF4q6Y7cK0UBICh8OHUFAgAYyEwVABMpqszJ/kvZE9ysjPw0+APAfCcB2D5V78a/Ok2fAFQReB88ZDwcLEpvPHZjMUqaU43WgDo9L71ngHf83VsCgDZeEj5eKCCwCgAlwJdP9DxrQcUso2mFv9p+0sK8ZYCXR/HjSUAAWDka4gAELIq02z9RJaZ47LUoK/daqr/aS0AmgC81ASwCwApGRJoertsSPxxyRifylhUcLoXAkYLQF2n/Kt4FYDNh2yPe0Hm9hYEwA0HXoRIAAIQIjDPj+stABlmbkvWJNdLA7+a3H79owYgUjUAqgCQ0iGRptdLBsWv78YiRZ5/AkyvjRaA+qPycLwKwKZDtoFAcBkFAIsBBQKc4MchAIwZrJcAZM5I+VlT1mezprjLauBXtxAAL2sCaKv7ve3rVwOgCoC6nSgbFm9lLDY4fYmA0QJQd1R+LY4F4NVABYVRANAEEAhwgh+HADBmMLMAEHJF5jT3+awp7s2sKY44k+bXP5UACEBMCYAqAs0YMcD4x5OSkmK0ANQflc/HsQC8G4gwowCgBiAQ4AQ/DgFgzGBWAcia4kZcgT/WBeA0/2bBuDCRPy605o9zj+af4r/tuSRwyMsBj4rfKjwpPFRwkj9QOCqcLDwpvEmXCvaxEuDy+95+9WvfM64GQBUAUjoovl46IHwOkwmF/0cUAQEgDALAHCA3HHFfCpguDby0EuDydnHsvzoHgHO7aXFqYBKILKMAoAYgEOAEPw4BYMxgHQRg8Ve/GvzpNvo1AOfzxvmT+eP8b/NOCd8sGBdvzTfNZnpDxSoA3q5ZMG4rLDop3lZ4UvzqmlHhv9aMChNrRoWLblKgDfbe9iMjAFQCSNmg2FE+rKzx9ix4zz8BCIBz4h+34L+0LgCdCwAC4L/44CgjAQgAI8DEEADhXN5pviPvNPfdvHFuVwkf/PrkRgiAtyzJGV/4wJpRadeak8J3C0eFzjUm4e2l5YCNGgbo2Qlw+Zf/YqdAZ/BfEgAqAX8oHxLv8XbveM83AQgABMB36cARowlAABgJx7EATOad5v9f9oSwI6W7+6pwMURKADzvr8ZsvqZkhN+9xiTcV2QSplfIQGRrAKgAqOk5DBn0zC3fryEAEADfpQNHjCYAAWAkHEcCcDlvgu/LnRD+d9bkfAXjY7tOj5YAuG5gaadwVK4oGhG/VWQSxpwyED0BoCLAlfbLWzzvEa9XEoAAQABWlgq8EykCEABG0nEgAEKuWfihnkFfiyxWBEB7T8Wjwro1w8IPi0ZEqdiXCKiLAa2cClidCTDUJgC1BkDdXigbkL6pvS/sryQAAYAArCwVeCdSBCAAjKRjVAAu5Jzm9+ZO8LtTCLmC8RH9nh6LAuC64WZyZdGoeFfJCH+weES46CYDxgsAKRugzQLC3nyT/f2ue8KOGwEIAATArUDgRUQJQAAYcceYALyZM8k/mG+2FjE+VtCnx7QAaJ6iZIAvKRnhf1w8IvzBKQKREgAqAQPSqeohoVRzO9hdIgABiKoAMA9zxFoA8f2nDAFgzL8YEQBazf8l2lOe8XFCPj1eBEB9sDKTdXXxiPAvxcPCQrG/6n96bHEtgJW9/72PAlCr/pe3zuBPBUAk5QPCmfJ+YYd6H9guEoAARFUAEmYegK1Pv37jzueVT9z0gv1Xu563D+983n5m5/P2CzuftxNXes5Odj5nJ7t8pWY72bWUbm62k6V04eZm+5mbm+3Du/bb/3PXPuVvbjrw2g2J8vcLAWDMyegKgNWWbbZ+ifaIZ3yMsE+PNwFQH5RWyxcPC/+7ZFh4tcSXCOgqAFQCxHcq+sW71XvANiIzAWIioDaFNLV6TXEvADtftFXteNHxm5uet799kzbYe9sPTwBUESA377er6e2b99l/ffPzZyrj/W8YAsCYg1ESgIUcM/9PoYzXZ3xMn6fHqwCoD0RrTYpHhHtLhoWzK0RAfwGgEnCpfFD4Z/X7k32LGgDUAITzN7C9Wb5uxwv2n930gv29m16wExr8IygAThG4Zb/jwi37HD/d/d/Bz5sSzrMaeQ4EgJFuhAXgQvYkd1/mzEzMVEHFuwCo2V86yOWUjIi/LB4W3nOJgDECQCWAlA+KP8UUwqgBcE4LjKmA1T/DoLY3Py9X3vSCfcIZ+Gnwj54AkFv2O2ga2PXCa3lB3XyMfQgCwJghEROAKa494zS/lvF2dT89UQRABVNmkutLh4VepwQYKQBUAvrFx40epaE+V6xuUQOAGoBQyub255UNN71gP+MW/KMvAFQC5F17X20I5Vli4bMQAIZcyJjmPxsBAZCzp/iPMtymoacmmgA4YRGyqnhI+PuSIeF3tCNgqdrpz3M7KKprASx3/FueEXBxGOBSR0Dnr35nZ0BnX4DFWoB+KgHC3t3dJOyZGA3N3AhcHAIAAQi2mG1d/OW/MvjHhgA4JWB385ncYJ8nFj4HAQgzFzJmuU9nzHCXjBUA/r9Sx/jUMG8xIqclpAAskas4ackqHRaeN1YAnCMEnk1pJldGJMNi7EsgABCAYIrkUpu/e7W/Wv0fKwKwz0Fu2ecY+PAhy7XBPFMsfAYCEEYupM1Y/zZ9hrvoNfjPcCRjejFlTnPEa5riSOZSWrEUMF0N0Gy1ZU1ZPxLGrUX8lEQWABVm2ZD0idIh8fUVIqBLDYCzKYDWFjyVjBIQ4wLA3EseywErZFuLQra/5D2pf2OBtrTD3w5twPfcj04nQLUPwOJ2UQCoBPwg0PPEynEIQIg5kTZt/QQN/uk00PtKbAKwL9Z/9WuRJYMA0Odd0yvllw2JXW4SoKMAlPeLpGJA+K9k6xgIAUANgPb/E2/7zqF+L9jfiyMBOBcvTQEQAG8lzsd7aRbuz9NnuPdo8DdAAN7NmuK+7OOrY/btZBEAZwY0kytLBsV/Kx0SLzpFQG8B6BdJZb90X8xmtgE3BgGAAAQqVnScPw3+cSQAtBbgsUDPFQvHIQBB5kLGHL81fYZ7Ww3+OgsAlzlj3RzkrcTUx5JKAJbIlwzLt5QOiQulBghAxWLHwKSZJwACAAHw9x/a1kOv37jjRfvbcSgAb+1uPnO9v2eLhWMQgCByIWt+viJjljuTPrv4y1+VAH2aAKyHVp8W04K4jZj8SDIKAM2I8mFlTcmgaKISUOYruU0FrOn9r44GcAb7xT4AziYA2gywmC5X9ImfiskM1/mmIAAQAH9FavtLyid2vLj46z/OagDI7mcXPu7v2WLhGAQgQC5cb7Fkpc1yFmfw11kAsia5h1NIfPf+TlYBoMWmsF++rnRIfNoAAaAi8G75gHhTgOIZ94chABAAf4V4x4v2X8WrANyyb+Fxf88WC8cgAP5ywWK5Nn2WG3AFf/0E4GLWJP81f18dL8eSWQCceUTIqtJB6YdeJSD8GoDFmoA+4Uz18cReRRACEAEB8L4OAF0fgHmUg9GrAe540T4crwKwe59jMNb/H4cA+Mmh9Fnu127BXx8BOJc5Zf0zP18bV4eSXgCWcqt0SPj7skHxPTcRYBYAkVT0iRM13bHflhhuoYUAQAD8lZ0dL9pfi1cBuGW/41V/zxYLxyAAPnIhbZb7/IrgzyoAM9wf0qeF7T6+Mi7fhgAsZ1vZkHhX2aD4jksC9BEAWhuwf/lbEmsPAgAB8Feid7xoPx+vArB7n+Ndf88WC8cgAF5yId3Cb8uY5d7VWQB+nzHLbfHydXH9FgTAPftK+uVbygbFs04J0EsA+kRS0St9w/2bEuNVjAvARVbKMTERUHw3ARAGAWDOv5ub7d6WA1ZXA/Q1ERAdBkh273MQ1vJj9PkQAA/C2RyXkzZrtXkN/uHXACzkTFvrPb4qIV5CAFZmY9mguLNsUHyzTE8B6BMvlPWIO1d+W3y/E+MCwNxGDgFgmwnQGfzDHwUAAQjw3wMEQAuIkFVps9zhtFkr0VEAFjJmY28VP+1js+xDALzTc0rAgPiWKgG+FwPyOgxwqROgsw8A7QewlCSxqCd+h4x6IwUBQBOAt3KhvgcBUEkYs4UAaLimzs1/lQZ/HQXgzcwpYaPmKxJuFwLgO0vL+sVbywbEd6gE6CMAzpkCX/D9jfF3JMYFgPkXJGoAUAMQy3+VEICl3Em3WGrT5qx/1FEA/pg1ye2K5czX494gAP4plvWLd5UNiO/pJgC0NqBf+Dv/3xo/R2NcANAEEKAoRWAYIPoABMgDlsMQAErPYrk2bc46lja3+OtfhxqAC4k01M9fAYMA+KOzeKy0X/h7PQWgsl98q7JHLAv8zbH/CQgAmgD8lVI0Afijw34MApCSkpI2Z/2xM/jrJADpM9aE+YUWqIhBAAIRWjxe3i/9cIUE+J4K2EcfAJFU9rlSRyKsHAgBgAD4+wuCAPijw34s6QUgdZZrTJuzvqeXAGTOWH/Bni3xcwUIQJB5RciqigHxaTcJYBMAUtUrfC7Ib4/Zj0EAIAD+CicEwB8d9mPJLQCEXJk6Zx1yBX/WGoBZriOlu/sq9myJnytAAILPK7p2QPmAaHJJAKMAVPaIb5R087nB30HsfRICEFUBuMxaItAHwLE8F8A+h3P8P50DAPMAsJasCJyfOjf/NbfgzyAAmTMcd8PsbGYEbjumvgICEFp2VPdK+eUDouKUAFYB6BVJZa/4dGh3EFufhgBEVQCYOzlCACAAsfU/SpB3k26xFKbNWc/qJAB/TJ+01Ab51Qn1MQhA6NlZMcDvLh8QL9IlgLVpaSngxfZ/uiywa/z/8r6mDwAN/jRdLu8V9oR+F7FxBgQgqgKAGoAAfwaYCXCB3P7kcrrjiQWiTQHwxe7htNn5/SuCf5g1AJnT/Bdi90mNvTMIQHh8/zQ3wPe0wZ/uhykAVAImN5lMV4d3J9E9CwIAAfBXAhn7ADDXcEAAloM/FQFt8Kf7/vIuZo9lzPFb0+asl3URgFk+oSZmCTXTIAChElv6PCFXlPeLnVoJYBAA2iHwK2HeSVRPgwBEVQCYAySaANAEENX/QEL+cud0v9Y+r8E/9BoAcfXpxJqaNVSeEIBQiS1/nvYHqOgXX1clgEUAKnuFM2Um6+rlq8fHHgQgqgKQ6E0AzIKDGoAEqwFYbeE+5jP4hyYAlzKn+Vvi479Z4+4SAsDGtmxA+Ft9BMA5P8CP2e4m8mdDACAA/kodmgD80WE/llzDAM3ma1LnrBZ9BMD6H+z44/8KEAD2PCzvl15k7AOgdgh8h9YqsN9R5K4AAYAA+CttEAB/dNiPJZUApFms/5hKf+X7S8EtBqSkWeOvupW9uKy8AgRgJZNQ3ynvm8+mTQFsTQDOEQGkqld6ONTvj+bnIQAQAH/lDwLgjw77seQRAJPp6tR5K6+HAGRMW/+KHX1iXAECoE8+lveLn9dJAN4tP66s0eeujL8KBCCqAsDcRo5OgOgEaPz/Ejp8Q6rF+nepFithFYC0GetLOtxOwlwCAqBTVhJyRUW/2O8mAcHNA6BW/zu3Vb0SqeqTHtXprgy/DAQgqgKAToABSjg6ASZCJ8Du7qtSLVaLDgLwTuo0XxKgzCTVYQiAftld1cM1VvSLF10SEKYAVPdKb68dsmXod2fGXQkCAAHwV7rQBOCPDvuxpGgCSLNwn3IGf8YagIw5a9z1smYvIv6vAAHwzyfUoxUD4n+yCoCzFqBX/P9C/e5ofB4CEFUBQBNAgEKPGoAEqAFInbOOswpAxix3Bh3/Vv61QABWMmF5p2SYz63oF886JSDMGgCnAPRIcjzMDhjjAsBcRb7hiI1sOOyeNh62Ebd0aKUEbDpkIzQFKkubX7aRzW3eU1ObQpypVSFN3hPz88V4HwBmwYEAxLkApM5xN7uCP0MNQNqs9UuB/hiT8TgEQP9cr+wTvsssAL0SqeyRPqH/3el7RQjAyuC/cSn4QwBSUtAEoO/fm+fVEr4JIM0yv18HAZhNtmV+PQuKr9cQAF9kwn+/YXzhAxX9wpkgFwNa2QmQdgSkqUcaCv8uInMmBAAC4K+kQQD80WE/ltACkDkl5KVarBdYBSBjjv8sO+rEvAIEwJh8rRwQv6WDAJC1x4UdxtyhPleNcQFgrkKO8SYA5udDEwCGAerzP4EBV0m1WH/gFvzDawIQUuJ0pTUDkK64JARgBRJd3nDWAvSJr3pKgJflgP3VANBagP263JBBF4lxAWBuI49xAWB+PggABMCg/xoYL0vIlamWeYVVAND27z8fIAD++bAcregTv62DALxb3xO7C1ZBANAE4O9vBE0A/uiwH0vYJoDVFu6OFcE/9BoAR6EsX8eOOXGvAAEwLm9LuvnUij7xnFYCwqgBIFUn5M8Zd5dsV45xAWCuIkcNgEK2tShk+0veU6DSAwEIRIjteMIKQKpl/klWAciY5e5lw5v4Z0MAjM3j8j7xQWYB6JWPGXuX4V89xgWAuYocAgABCP+vw/gzE1IAcsYXPpBqsZ5jFIDzOfPz2cZnQXx/AwTA2Pyr7BHLKvrEi6oEhFUD0CNdjNVVAiEAaALw9xeEGgB/dNiPJaQAuM38R6v9tcnfSoD02NJqgBkz/DPseBP/ChAA4/O4sk98mVEASNUJ6RvG32no3xDjAoAmgABZik6A6AQYoIhE/vBqi/WQW9APQwDoBEKRv/P4+0YIgPF5VtEn/aUOAjBs/J2G/g0xLgBoAgiQpRAACECAIhLZw1lm8/WpFuu7jAIwmULIqsjeeXx+GwTA+Hzb3U2uqugTbVQCwmwCoMMBydoeW5XxdxvaN8S4AKAGIEB2QgAgAAGKSGQPp85Z/8pn8A9yFED6HPfPkb3r+P02CEBk8q6iX/wRqwBU94jfjszdBv8tMS4AqAEIkJUxLgDM+Ye1AOJsLYDUeet/MwrA5dQprjhAucfhJQIQgMgUhbJ+uZ5VAKp6pKORudvgvwUCgE6A/koLOgH6o8N+LLE6ARJyRarFusAoAD3sWJPnChCAyOV1RZ84wdIEUNUjvVPYH1vzWkAAIAD+/oIgAP7osB9LKAG40cJv8xv8g2oC4L7CjjV5rgABiFxel/dJ32EUADpt8O2Ru+PA3wQBgAD4KyWMAoAmAH9wU1JSEksA5ue/yygAF7PMfG4AZjisIQAB0MAweLdyQFjHLAA94k8Mvs2QLg8BgAD4KzAQAH902I8llACstlg72ASA62dHmlxXgABENr8r+8Q5lwT0im4LAVX2iovLAC8vB+zs/U9HAKipukcajewd+/82CAAEwF8JYRQA5lEc6AQYL50Au7uvWj1vPcsiAH8693v+CiOOrSQAAVjJxMh3qvqF+1kEoKpHulRxwpFl5D2Gcm0IAATAX3mBAPijw34sYWoAbpzjt66e95j1TzsBkLrvZybAdAu/jR1pcl0BAhDZ/K7uEz7IKACkulf8n5G9a9/fBgGAAPguHSkpjAKAPgD+4CZSH4DV8/P/wigAv08h5MoAvHDYgwAEwAOIwS8rDlmurewT33FKQBhNALQpoLpHfsDg2wz68hAACIC/wsIoAGgC8Ac3sQTA+hKTAFi4fQFY4bAXAhAAL1AMfquqT+xiFIA+g28x6MtDACAA/goLowCgBsAf3AQTAIFNAKxfCsAKh70QgAB4gWLwW3+aEOh7bAIgvbPJZLra4NsM6vIQAAiAv4ICAfBHh/1YQvQBSOX51NXz1sssArB6xrqZHWfyXQECEPk8r+jhdzMKAKnqsTVG/s5XfiMEAAKwslQsvwMBWGZhxF5iCICFv4UGfwYBeCfFbL7GCMCJfk0IQORzuKb7zPWVfeJFOuzPM1WpQwDpVjP8T7tfTfsBnJA/Ffk7X/mNEAAIwMpSsfwOBGCZhRF7CSEAN87Pf41JACzWXiPgJsM1IQDRyeXKfnHSM/gHMw/AYidAujKg/P+ic+fu3woBgAC4lwj3VxAAdx56v0oIAVhttf6aRQBSZ6336w02Wa4HAYhOTlf0ik+wCEBVj9wanTt3/1YIQFQFgLjnRuivsBoglgMOvdTofMaN89YeJgGYs/4vnW8paS4HAYhOVlf0i//EIgDVPdJ8dO7c/VshABAA9xLh/go1AO489H6VEDUAN87PKywCkG6xbNcbbLJcDwIQnZyu6JfuZBSA8ymEXBGdu1/+VghAVAWAeZgcagBQA7D81xyNPZ5/3+p56yUWAVgtimnRuPVE+E4IQHRysazHWsQoAKSmO/oLX0EAIAD+/oJQA+CPDvuxuK8BuIHn16rBn25DXQsgdc66wI4xea8AAYhS3hOyqrJXPOcpAUGPAqAjAXqlqA99hQBAAPz9BUEA/NFhPxb3AnDj/PyHWQQgbW7+FXaMyXsFCED08r6yVzrFIgBVJ6SPRu/uF785xgWAuZPchiM2suGwe9p42Ebc0qGVErDpkI3QFCh/Nr9sI5vbvKemNoU4U6tCmnykQNcPdBxNAGgCCFRGDD2+2mr9RyYBsHBPGHqDCX5xCED0MriyVzzIIgBrT8hfid7dL34zBGBl8N+4FPwhAMyLAQUUqEDlH8sBx/hywDdarf/GJABz1h8HKgQ47psABMA3G6OPVPRKj7AIQPVxOeplP8YFgLmTXIzXADA/H2oAUANg9P9zfq+fOs89yCIAqXPWr/v9Ahz0SwACt7la+QAAIABJREFU4BePoQcresRvMwlAj/SMoTcYxMUhAFGtAYAABCijqAGI8RqAVKv1KRYBSJud/5sAZQCH/RBgFYDCkwLxltaMCsRvMgmkyF8aEUixvzQskOJhgZT4S0MCKRkSSOmQ6D0NiqR0UCRlvtKASMqWUvmASFakfpGUa1JFv0jcUp9I/rTwj1tyrgHQJxLWtQCc0wH3iF1+sjYih2q75PN+JeCYTOr8pOre127wd6P1R2VCU4O/1CGThg6ZNHpJ/q4dzLEYrwFgriKP8RoA5ueDAMS4AKyetx5iEYBUC39LMH/I+Ix3AhCAOBaAE9Ko91yN3Lu1XfLvWASgplOs8Xe3EADfHQBpx0B/7II5BgFAE0Aw5cSwz6y2WIdYBCBt2lpv2M0lwYUhAHEtAHPRLqK1XbKFRQDqOmW/TXgQAAgASxlHDUDM1wDMT7EIwGqLpZylgCTruemDlhvzTgn/DgGIawFwRLv81nbJh5kE4Jg8cXczudLXc0AAIAC+ykYw70MAYl4ArPMsApA5JeQFUxDwmUUCNWbzNXnj/NfzT/FnPIM/fV2gpjGeFPhIhWPe2/21fQH8tv/T/gH+2v/pMX/t//QY+gCQ6hPi2WiX69pu6RdMAtApk/pO6cu+ngMCAAHwVTaCeR8CEPsCILIIQJrVujqYgpD0nyHkirzTwt/mj/Nc/jhPvAV/CIBHbUCsdwI8Ib0T7XJd1y19nF0A5PMNHbZbvT0LBAAC4K1cBPseBCDGBSB13mpnEYAUk+nqYAtDsn4ub5z/UN44P5ZHA7+aTnmXANQAaCQg9gXgvWiX6Yb2hezaLvmyTwnwMwLAOTrAWQNAawHk8/XH5K94NgdAACAALGUcAhDjArB63voagwBcTiFkFUsBSeRzc8esTfnj/DEa+NUEAdAMCYz3YYAnJBIL5b+2Sx7UQQCoBNBkru+UvtnQLtXRIYIQAAgAy//REIDYF4A3GASAoAZg5Z9H4Zi1Mn9caM4b5y+rgV/dQgASTgBiYElg6Us6CoAqAotbxnkAnHMDtMukcSmtb7eRFemIjaxfSs5x/3T+f21iWAvAuSbAyzayyUtyrgPAuBbAllaFONNBhWzxkbYeVAgd7ucrbTugkG0t/tP2lxTiN72oENfCPy/aV+6/YCc7XrCTm3yl5+3kpuftZKe/9Jyd7HzOTnb5Ss12smspuQX+Zjtxvt5vJzf//+3deXAb12EGcEpOFCe2JNwAL/EAKMk64jiOE8enJEpWnNjNTCfKMZ4k0yNTN00sH03cuHYnI3emcRwnaeO47TTpVKdtOYmdWD4SiVIsErwE8QBBECCw7+0CFEEdtmxJTmRK5us8kAsuyAWvXQAL4PvjDUCQWLz3wxLvw9vd9xTl9ucVlwDy+8+llw3PJVhaeTbBNkwpG59NsFTZl2Abp5cLm/YlApv2Df90w66RddM/rbU9UvCLAWkcAWAVw8Mf0UZYPM+2B6iroo8+U9FLR+UOf+otAkBRBYC8HwLg/z1rXo9b1h6On1cNAXM/BJDe8cuHBhAAMi4ExOcBQABQBAJjBgC2aV9ivOxNXN64N/H0tv2BJXr1OsUQAOJaRgBMlJr0wizU7VgikWVOv/h4uZ9eKPdPDvdP7fz5zwgARRUA3jXKPruuaehHCACT0wLLqwFiBGBiNKB0RwCUAYBt2pvgpUmvEFAMAWBQSwC4OhKxG+VDMNf14Jf0OXvpdpefnnLxjl8uimP+U0MAAkBRBYCzud7nMr3eNUfFctVRAIwAqA7/80MCOASgOCRQvIcA1AIADwE/y/S/NJ/HiyEA9GoJAGZBWDEfsKL424lL+lx+SnjHLxcEgClrAxT7WgBHY8NG2p/XHIk9NG0UAAEAAYCfE4ARAPnbv3x7eeO+xFqt/7+FHwAEoV1LADBFItdpRSyk55f30884e2m33OkrbxEASi4ABI207244wj6w5nDclxYCEAAQABAA5HMA5M5/4nbkx1r/fws/AESFw1oCgGWQbNGKWAjPdwWEG1x+2uTqm/zGr+z8+X0EgNIKACvfiLUZbd9d1xRzrz0cfycVAhAAEAAQANQDwL5En9b/3yIIANHntQSAYl8O2B4UGpwBcb+rj44lO38EgPFlgjEVMFt1NPaa1g+QbDx/bdOJu9cejl9KhgAEAAQABAD1ALA3oXkq74IPAKYo+Q9tAYB8KxsfYvneJr+kz9VHn3H20VEn7/SVRXHcXzkKkKURgO6q4/Qz+fYoxtf3NEsPN7RITFlWtsRYqjTH2EqVsqo5xpLlqLTHqC7rjsT/JjlDIAIAAgACAAJApg+qZdHoo1oCgGWQPJ5p24X4uHxJn7OPXuAdv1xyHQCquimp6hbvKWMs7xPNFOL7OJc6e1piTys7f34/1fnzIKDS+fPHJgNA7Mm5vE6+/iYZApril5JT/mYKAvL1/pluMQ8A5gGQJwcqzImAxjt/PhfA+CWAk7c4BFBWtjxKvqElAJgHhb35+oDT83WTl/T10e3OAD0ld/rK29wFAPF0VS/dzuujZ/uwrekCDV7pZS0BYOXR2APTt2qsR/jhgHVN8bczhoBMHb/8OAIAAkCxBoC9OAmwzBSJfF5jAGg31kfePGvD2GJHv3iPM0CJM0BZsii++cshIAcB4EJ5j/i4pT2ybJ4twJ8vUKChRezVFADeiH1pgS+d06fxEwPXNcV9qiFA7ugz3SIAIAAUZwC43LgnsUbrP2LBnwOwPBq9XlsAIGe0Iubr+fZ++hlHgHSnOv78BIDRim76DD/nIF8OJfm6jC1qaJHOaQkAq98QbyoUO36JIF/kZ11T/FxaEMjU8cuPIwAgABRhAGjcO/zvevzvFnwA4Me8tQUAgRXadMD8kj5HgDY5AoTxkqcAMMYXDOILB+mxI2Ib8xNwv3Giemrnz3+ezzkA6w4R5/xeNf9/veYIda1rij+5ril+PhkE5I4+0y0CAAJAkQWAjXuHD17/30yXZewLPgDwj6TlUWFEDgGmiMBmLIMCM08p1rBwQ/4/2mavQfKSvn6y3xEgY3Lnn6cAcJgvFTx7jfEX2RLwtMa2agsAkuZLiLLVtrlsd32zZF57OPbNdYfiresPxccmlgKeviAQAgC74UDmJYGxGFBhLQbEv/nr1fnz/7OiCADLokKzlgBgCZNvzOVDJ19/w4fXHf30GUc/GXX0j3/rz1MA6C7vxSV9+doPlK/raYk9oC0AxHqU2yvk+9e9mrCvbxratv7Q0FPrD8ZfWX8oHlp3KH56/aH4xfUIAAgAhT0CcH7TvkTfxn2Jp/Q45j/1/7woAsDyiPC/WgKAeVD4r6kwRviZH95wBMkORz+5kOz4eeefnwBAyv24pM8I+4RchwZv7JcaA8Dz8rZwCwEIlKZAsQSA72kJAKZBodNQb38gsMQepNvtAXLKLnf6ytuJY//yKED2zgEQT5fjkj5D7RpyZRq8Up/GAPDP8rZwCwEIlKZAUQSAZYLwWS0BwDwoXCzz+XQ5qULTbsTYIns/2Wbvp1He8csl7dt/bkYA3nX10B+YfcJyTe3Bk7MisKoltLTBK72vJQCsbpbuykrlsFEIQKBgBIoiAFxFiFNjAGD5XhWQX9JnD5Jue3Cy4891AKjw09GKPlzSZ/T/3lVecVODN30KYDkMzPUqgGu8pMbo7UT9IACB7AoURQDgRMujQpyHgBmvAOBXCEy5AkC+IsASEfIyK5qVX9I3QJuSHT/v/PMTAMZcflzSl91/Nf223uCN/bOmAHA0dqaMsUX61QhbggAEClGgaALAsih5SUsAMA8KL+fyDTQFSY0tSHbZg2QsrfPPcQAo91NvRY9wSy7bjtfSJuDxSk1aAsDqlvgBbTXAsyEAgWIQKKIAEH1MYwA4l4vzACrCYZs9KPzAFiQXbfI3/qm3iuP/WTwJMODyk23FsBOXUhtqj9ArG7zSn7QEgFXNsUdLyQxthQAE1AWKJgAsj5A7NAYAZolEPq3OpP1RfkmfLUR22AbIBd7xy2Xat//sjwDgkj7tb2fetrCyVWpMdv4azgG4pkXakrcG4IUhAAHDCBRNAHD2jly1PCq8t9BzAPi5AKbB6GO6vzP8kr4Q3W4bIKdsA4QlS34CAF8lEKv06f4G53aDDV7pBxoDwOiqltNLc1trvBoEIGA0gTv3vLlMYwC4aKg2LYsKR7UEAHNY8OnWIMYW20LCPbYBQlIdf34CwAWnX3ycj0Do1jZsKG8CDV4ppC0AxL15qzxeGAIQMIzA5j0j6zUGgFOGaQyviCkifF9TABgU2PKQWKe1UZYButUSIt3TOv7cBoBRFy7p0/pWGur5DW3iNanOf4GHABqOxnYYqlGoDAQgkBeBxt0nH9QSALbuTITzUvFML2qK0Nu1BgBLmDyUafuzPc4XFbKGaJN1gDBe8hQAxpwBcT9fOGi2+uL3hSXgaYk9ojUArG6ObyisVqO2EICA3gLb9rMrNu8e6dcSALbsGjHY1USRyIdMEeHdGUNAhnkA5PkAzCHSOl9s3tnaQmS/NUTGrKHxzj9PAaCJLxU83/rj7wtDwOOVjmsMAO+sCQSWFEZrUUsIQCBbAo27Ru5Tdv78/hZeds1c7tg5wuSydWfiqWzVb8HbNUWEFzUFgLAwZolGq+dSAb5KnzVEn7GGyGiy4+edf34CQDefSXAudcbfFKaAp0Va6+HD/srSMn02wJlnAozvL8zWo9YQgIBeAo07RzZv3j0yqjUA3LEz8QW96qTbdkzR6Nc0BgBmCs18NQA/oc4SIjusIXIhrePPfQAgjn7hnjLGFusGiA0ZUsDjlX6gPQBIXzVk41ApCEAg6wJ82H/L7pHtap3/AkYA3t+wb9iW9UrP9wWW9cctpohwKWMImO0QQFhg5rBAVTvVQGCJJUS3W0PklEXu7NVus38OAC7pm++OUch/z9hij1ca0hgALq/uGLIWMgPqDgEIzE/g5l+eXsrP9t+y5+RDm/ekH/PXOAJg3KuJTIPCIY0BgFki5I4UNWOLzSHhHkuYEN7xy0X12392DwFcsAcILulLvTGlccfdIt7JO3+NAYCtbI4ly6rmGEuWozG2KkNZfTTGkuWNGFudoVzzRoxd88fMZc0fY2zNkZnL2sNxNmNpirN1M5VDcbZ+pnIwztYfjLOPzlT+EGcf/UOcXZup/D7Orp0oH/v9EJtWXh9iH5so170+xKaV14bYdYry8deGWFp5dYh9fEq5/tUhliqvDLHrVconXhliyXJgiH1Cpdxw4ARLlpdPsBsylE++fIIly+9OsE9mKJ/63Qn2qd9mLjf+9gS78aWZy6dfPMFmLL85wW76zXDm8uthdtOvh9nNmcqvhtnNvxpmt8xUXhhmt7wwzG7NVPYPs1snym37h9m08vwwu01Rbn8+wdLKcwl2u6JseC7B0sqzCbZhStn4bIKlyr4E26hSNu1LsGTZm2CbVErj3gRLlT0J1qhSNu8ZYcmye4RN7fjln+dzDsDWXSfvNeynrzlKvqU5AAyS5PHS5CV9YdJtCROWLPkJAKOOfqzSZ9gdLssVc3ulAwgAGYLATJ0//x0CQMbOn4cCBABFIEAAmOtJgOc+t1cyZ/ljb+GbtwXF8oyHAeZ2CIB39u+ZB8mRVMefnwAwZu8nuKRv4btCwT/T4425PV7pfQQABICpowAYAVCMCGAEYHwUQOXbPx8R0HMEYOv/nXzC8B+spqhwQHUUYO4BYPwbv9zxy7c5GgFw9NMmvlSw4aFRwawKeLyxH8mdPw4BqIQAjACoDv/zQwKpQwD8UAAOASSH/3EIQPMhgHca9510ZvVDT4+NL4+QLxRiALAFacDej1X69NgHCn0bnvbIMo9XOosAoNLxy+cFIAAgAPDzAjACkJMRgC07R7YXxudqclIgcmZaCDDuCACx4ZK+wti3clRLT4v0PWXnjxEAlSCAADB7AMjw7R/nACiO//MTA3EOwGznAHRuOMI+kKOPP+0vY4pEf1YAAeCMPUgfrqX0Su0txhaKRaD2CL3S7ZWGEQBUOn352z+/RQBAAMAIQC6uAjjbuHekvqA+X01hcq2BA8AFaxCX9BXUDpXDyrrbpG9P7fwxAqASBhAAZg8AOAdg/PJAXAaY8RLAWSYCurR5d+JzOfz40++lTBHhcFoIyP8hgFFbEJf06fcOF9+W1hw5dbWnVUogAMTZWuW3fbX7CAAIABgByOYIwNjm3Ym/KthPWVOE/IWBAsDLWKWvYHelnFXc0yr9i6d1fOKfqSFA21oAmAhIdUIgTASUcRIgPjkQJgKamBRIMQkQnxAobRIgPimQYhIgfj9tEiD+85RJgPjPqUmA+H2VSYD4Y3mcCOjy5l0j38jZB19WXoixxaaIEEmFgLyMANAmvlRwVtqHjRaVwErfsM3TKr2DADAxQ6Dat37lYxgBmH0EACcB4hDAfGcC3DnydsEO+0/tEUzR6LfzEgBCpNsewip9U98P/JxZwNMaezrZ+WMEYHyKYGVnr3YfAWD2AIBzABAA5hcAOgvuhL/MH6llZfZA4GpTRHgzGQJyMAJgGyDEFsIqfTO9J/jddIEGL/2Yp1W6jACgWB9ArdNXPoYAgACAcwD0Ogfgnc27Ru4vqEv9pn+Mqj9ijpBHchAATvHVAssCgSXqtcCjEMggwNiiBq/UnOr8MQKAEQB5QSCVhYD4tMCYChhTAfPFgVILAfH7C5sK+Pzm3Sd/eMeuEUeGT6fCf9gWCi01RYTTpuyMAFywhcgOSySyrPCl0IJ8CLhbpa+ldf4IAAgACACTqwNiNUDVlQA1BID3t+we8W7ZdfJeQy/so+eH8fKI8LDOAWDUGsIlfXq+R6W4rbp24nS3SmcQABRD//IywcrhfrX7OAQw+yEAnARYuucA7E5cbNyTOL15z8jA5t0jrzTuSvyocU/iCxv2DdtK7rPW2TtylWlQOGmeaRQgLDBzWFBfCIgvCDS5GNAwLukruV0oKw32tEm/cvNv/FOLd/qlgLNcBhhdg8NPWXmPsFEIQKAIBEwR4QGdAgCzhemXi4AETcijgKdN+iLv/PUIAJ5maVsem4KXhgAEIGBwgUBgiXlQCGUMAXMfAWDWEDlrCpIag7cY1TOowMrWeKXbK53WJwDE2soYW2TQpqJaEIAABIwhYB4U7tIpAPBDAkfLGLvCGC1DLQpGgLHF7lbpkNz5axwBGFt1VLq5YNqOikIAAhDIp4A5TF5TDQHzGwHgowDMGqLfzWdb8NqFJ+Bpiz2i7Py1BABPi/Rc4QmgxhCAAATyJGCJRNaaB4VL00LAggIAGTWHhVvy1BS8bIEJNHhjt7nbpFGdAsD5+mZhRYERoLoQgAAE8itgCgs/1ikAMGuYjFgikar8tgivbnQBT/tQlbtNGnG3jZ/4pwwBC7kKwNMi3W/0NqN+EIAABAwnUDE8/BHzoBBNCwELGwEYPxQwQLoqfMMfMVxDUSFDCNQeoVd62qSOZOevTwDwle3H+SeGeHNRCQhAoPAEloeFRvOgMJYKAVoCAD8fYIDsLDwF1DjrAowtcrdKu1Kdv/YAcMlzVPx41uuNF4AABCBQzAKmsPAL3QIADwFBnBRYzPvLQtrmbo3tSOv8NQYAj1d8aiH1wHMgAAEIQEAhYKLUZB6MnkiGAK0jAOOjAGPWAfp1xUvgbgkL1LeKfz2t89cSAFql/qrW+IdLmBRNhwAEIKCfgCVCtyYPBegTAPihgEu2AeEu/WqILRWiQH2H+Ll6fsY/7/CnlokZAOUTAed4EuDFlc3k2kK0QJ0hAAEIGFbAPBh9kq8DMMe1ACbmAODzAEwpA8lzAZhtgPzJ3k9uNWyDUbGsCrg7xE31bdKf66d2/PLPCwgAK72xB7NaaWwcAhCAQEkKBAJLTGGhU8cAwEPAW7aB6PUl6VnCjXa3ijfVt0nneeevVwBwt0gHyxhbXMKsaDoEIACB7Aksi0Y95rBwzsJX/lMrk6sBTv/mL48ETI4A8ADAbCFy1hKkN2av1tiykQSSnX+79Lbc+esUAE7ytQOM1E7UBQIQgEDRCZgHha+odv7pywHPPQDwEDBAztmD5Laiw0KD0gTc7eLG+nbpfH37+Dd/OQRMO/7PDwPM/RDAJU9r/Pa0F8IPEIAABCCQHQFLiDypGgIWMgIwHgB4CHjXGhQ2Z6fG2Gq+Bdxt4p317dKfkp2/ngGgFbP95fu9xetDAAKlJMDYFZZB8vq0EKAtAPAQ8GdbkH65lChLoa3uDunr9e3Se6nOX68A0BLbWwp+aCMEIAABQwks90tmyyAZTAsB2gMAswXJmD1IHsX67YZ6uxdWGcYW1bdJ369vl8bSOn9dAkCsB1NLL+xtwbMgAAEIaBawDorXWMLk7VQI0CcA8BDA7EGysywQWKK5kthAXgT43P517dKuaR0/7/y1B4A4XzgoLw3Di0IAAhCAwLiALSRutIbJxWQI0DEATISAP7oiETusC0uAd851bVJnndzZq91OXAK4gKsAzrq9sXWFJYLaQgACEChSAWuIft4SJpct+gcAPhIw4sDJgQWz59S3S7fUdUgJ3vlnIQC819Am4UTRgtkbUFEIQKAkBMwh4e+zFAB4CLhkHxD+CecFGHhXYmxxXUfskboO6VJdx3jnr3MAeN/tjeEEUQPvAqgaBCBQwgKWAeH7cgiYNgVwpomAJi8DHJ8YKEiS5wBMHALgnb+i0FcqwmFbCRMbsulVrfHK+g7pcLLj552//gFgrKEtdq8hG49KQQACEIDAuIAlRH7IQ0B2AgBh9n4y4ugT/hLexhCo65C21XVIZ9I6f30DwJinVfwHY7QWtYAABCAAgRkFLCGyI4sBgIcAXvbjBMEZ34as/tLtjTpqOsQXpnX8eo8AtEnfzWpDsHEIQAACENBXwBoi/6oaAqauBTCvQwDJjl8OAMweIKecQfolfWuOrc0owNiiumPSV2s7xDO1HeL4cL/c6Stv9TgJ0Cs+NGNd8EsIQAACEDCmgDVEH54WAvQMAP2EOZKjAcJhRx/5qDEViqdWdR3k2tpOerS2U2S8889iABjztMUeKB45tAQCEIBACQpYQvR+a4i8nwoCWQgAPAQ4+sklR4D8vHJgyFqCzFlt8krfsK2uU3y6tlO8nOz8sxsALnrapC9mtUHYOAQgAAEI5EbAEiLbrCHy52QIyF4ASI4GOALkTWeA3l/VGv9wblpXvK/i7B25qq5TfLS2U3wn1fHzzj97AeBcfavUWLyiaBkEIACBEhSwh8mt1hB5y5r9AMAcAcLLsLOPbkcQmP/OxqfxrTkmfqu2U0xM6/izFwBG3O3S9fOvLZ4BAQhAAAKGF7BEpDXWAUJ5CLBlKjPOAzDlJMCJcwAmDgHIIwByAEjeOgN0mI8IYOGY2XePVS2hpTXHxO/UdIqJGrmjz3Sr7zkAXfXNworZa4i/gAAEIACBghVYGg7brAPkYA4DAHMGKC9vOgL0CVc3rS1YvCxVvN4nrFjRKf1bTaf4Vs0xkfHOP1cBwN0mPY9wlqU3FpuFAAQgYDgBxq6whYQnbANkbFoQ0H8EQA4A47d99LKzj77o7JUaS3pqYcYW1RwXN9X4xN/UHBMvJzt+3vnnLgC8724Tseyz4f45USEIQAACORCwh8g22wA5nxYCsh8AmLOPyiXqCog7Kvx0dQ6aa4iXqOqON1R3ijtqfCJN6/Tlzj8HAaCuXTpT3yrdZQgQVAICEIAABPIjYAlIa2wDpDcVAnIbAJJBwNVHmauPHi/3iw9WBIrvWHS1L+au8Yn/WO0T21b4RLZC2dmr3c/iIYC69tiRla3xyvzsbXhVCEAAAhAwlIAnEvmQbYA8lTwkkL8AwEMAc/l5EftcfvqEq49uKPP5PmgorDlU5nqf74PVx2O3VvvEHdU+sSfZ6fOOXy5qnb7ysewEgEvudvGxsv3sijk0AX8CAQhAAAKlJGANCpttQWGIrwSovhrggq4CmHoOgDz8n7qdGAFQBAA5CCRv3yn305cq/PS75b3kViOesJa8bK9bvKm6S3yw6rh4oNonnk919nKnr7xVdvZq93UOAHXtklDfLt1SSvsy2goBCEAAAvMUWDowZLUFhWcNFACSowLlfsqSpVe8VN5LfBW95OflPfReV4+40R6grnk2c8F/XtkxZK3uIrdVd9F7q4+LP6/ukjqqj4uj1cdFlirKzl7tvlqnr3xMvwDwfn279FM+odCCG4wnQgACEIBAaQnYg8Jn7UFC7UHC0sr4SoCpBYHS5gDg8wKMTwKUup24BHByFGDyBMC5jgBMCQCUlfeqlrPlvbS9opfureylP6noJt+p7CVfq+ghd1T0iNc5/FK9s1esW+GXzLzI76Y9ELia/8w79hV+qb66K/aJ6h5yR3UX/UpVl/TtquPik9Vd4v6qLqmjqks8VdWl6OiVnb7yvlqnr3xM2dmr3dcnAARrOsRPy+3ELQQgAAEIQGDOAny43RYkP7QHyaVUCDBuAGAVvXS89FBWoVIqeyhLlm7KKjOUqm6R8U5+ppL6pq/s9JX3lZ292n21Tl/5mLYAcLGuPfa459XIh+b8RuMPIQABCEAAAmoCjgC51h4kzckQgAAwOdSv7PSV99U6feVjys5e7f4CA0B9h/iixxdzq72HeAwCEIAABCCwYAEHP0mwnwbsihBgoEMApTsC0C4N1BwT71zwG4snQgACEIAABGYV8Pk+aO+n99n7yWkeBBAAVM4JUH7bV7uv9q1f+djcRwCGajti9244wj4w6/uGP4AABCAAAQjoIWDqpiZHkOxw9JOzaSEgfycBltIIQKK2XdrOLz/U473ENiAAAQhAAALzFrCFQkudQbrd0U8SySCAAMCq1b71Kx9TfttXu59hBKCmUzxd2yE9bMS5EOa94+AJEIAABCBQHAL8cjpHP3nIESAnlJcC5vAywGIeARioPUb/Dh1/cfyvoBUQgAAEilNgP7vCGSB3O/rIQUeAjCEAKKYAlkfcyBTBAAAEdUlEQVQB1L71Kx+bGAGo6xRb6jqlu0t61cTi/C9BqyAAAQgUt4DTL6x39dP/dAbE86kgkL2JgIpjBKBTPLmiU/rJik5pbXHvHWgdBCAAAQgUvUBVa/zDrn6yzRkQX3b20VHFcsDK1QAzrQUw15kACzkAXK45Jh5c4ZO2rQkElhT9DoEGQgACEIBA6Qk4+ojT2Ufvc/ppu7OPjvEwMMtiQMUaAEZ5p1/TKX6zrp04S29PQIshAAEIQKBkBWxBsdwZIH9bHqAvufrohcnlgNNWAyymAPBu9THx1yuOSV9VrkdQsjsAGg4BCEAAAhCopfRKl1+80+mnP3b5xWMuv3jJ5Z8MApOrAaouBJRcIMiAawGMrvCJLdU+cUdVJ73dE8H8/NjTIQABCEAAAjMK8PkFynvoVqdffNzlp0fK/fSt8eWADR0AElXHxQO8w+dT89oDp66esZH4JQQgAAEIQAACswuUB0lNRS+5u9xPHi3vFV9w9dLe8l56Tl4eOIcjAG9Vd0kd1V3i3mqf+NiK49Ld1V2xitlbgL+AAAQgAAEIQEA3gQpf2ObqFm6o7CFfrOwRH6rooU9U9JBfVPTQFyt66NGKHtpf2UOFyh56qrKHvlXZnSwXJ5YEfnf8ZzFe2U2Fqm6xt6pLbK3sor+t6hL/p7JLfLyqS7qvuot+ufI4vbGyY8iqW8WxIQhAAAIQgAAEIAABCEAAAhCAAAQgAAEIQAACEIAABCAAAQhAAAIQgAAEIAABCEAAAhCAAAQgAAEIQAACEIAABCAAAQhAAAIQgAAEIAABCEAAAhCAAAQgAAEIQAACEIAABCAAAQhAAAIQgAAEIAABCEAAAhCAAAQgAAEIQAACEIAABCAAAQhAAAIQgAAEIAABCEAAAhCAAAQgAAEIQAACEIAABCAAAQhAAAIQgAAEIAABCEAAAhCAAAQgAAEIQAACEIAABCAAAQhAAAIQgAAEIAABCEAAAhCAAAQgAAEIQAACEIAABCAAAQhAAAIQgAAEIAABCEAAAhCAAAQgAAEIQAACEIAABCAAAQhAAAIQgAAEIAABCEAAAhCAAAQgAAEIQAACEIAABCAAAQhAAAIQgAAEIAABCEAAAhCAAAQgAAEIQAACEIAABCAAAQhAAAIQgAAEIAABCEAAAhCAAAQgAAEIQAACEIAABCAAAQhAAAIQgAAEIAABCEAAAhCAAAQgAAEIQAACEIAABCAAAQhAAAIQgAAEIAABCEAAAhCAAAQgAAEIQAACEIAABCAAAQhAAAIQgAAEIAABCEAAAhCAAAQgAAEIQAACEIAABCAAAQhAAAIQgAAEIAABCEAAAhCAAAQgAAEIQAACEIAABCAAAQhAAAIQgAAEIAABCEAAAhCAAAQgAAEIQAACEIAABCAAAQhAAAIQgAAEIAABCEAAAhCAAAQgAAEIQAACEIAABCAAAQhAAAIQgAAEIAABCEAAAhCAAAQgAAEIQAACEIAABCAAAQhAAAIQgAAEIAABCEAAAhCAAAQgAAEIZEHg/wHHFFBcBkR3NwAAAABJRU5ErkJggg==;" parent="1" vertex="1">
          <mxGeometry x="3093" y="792" width="111" height="111" as="geometry" />
        </mxCell>
        <mxCell id="TaerqS0B0yZli5gVPiHv-31" value="&lt;h5&gt;&lt;font color=&quot;#000000&quot;&gt;&lt;span style=&quot;font-size: 17px;&quot;&gt;Bi &amp;amp; Reporting&lt;/span&gt;&lt;/font&gt;&lt;/h5&gt;" style="text;html=1;align=center;verticalAlign=middle;resizable=0;points=[];autosize=1;strokeColor=none;fillColor=none;" parent="1" vertex="1">
          <mxGeometry x="3032" y="888" width="136" height="72" as="geometry" />
        </mxCell>
        <mxCell id="TaerqS0B0yZli5gVPiHv-32" value="&lt;h5&gt;&lt;font color=&quot;#000000&quot;&gt;&lt;span style=&quot;font-size: 17px;&quot;&gt;AD -Hoc&lt;/span&gt;&lt;/font&gt;&lt;/h5&gt;&lt;div&gt;&lt;font color=&quot;#000000&quot;&gt;&lt;span style=&quot;font-size: 17px;&quot;&gt;&lt;b&gt;SOL Queries&lt;/b&gt;&lt;/span&gt;&lt;/font&gt;&lt;/div&gt;" style="text;html=1;align=center;verticalAlign=middle;resizable=0;points=[];autosize=1;strokeColor=none;fillColor=none;" parent="1" vertex="1">
          <mxGeometry x="3019.8" y="1096" width="120" height="96" as="geometry" />
        </mxCell>
        <mxCell id="TaerqS0B0yZli5gVPiHv-33" value="&lt;h5&gt;&lt;font color=&quot;#000000&quot;&gt;&lt;span style=&quot;font-size: 17px;&quot;&gt;Machine Learning&lt;/span&gt;&lt;/font&gt;&lt;/h5&gt;" style="text;html=1;align=center;verticalAlign=middle;resizable=0;points=[];autosize=1;strokeColor=none;fillColor=none;" parent="1" vertex="1">
          <mxGeometry x="3012.4" y="1366" width="168" height="72" as="geometry" />
        </mxCell>
        <mxCell id="TaerqS0B0yZli5gVPiHv-35" value="" style="shape=image;verticalLabelPosition=bottom;labelBackgroundColor=default;verticalAlign=top;aspect=fixed;imageAspect=0;image=data:image/png,iVBORw0KGgoAAAANSUhEUgAAAgAAAAIACAYAAAD0eNT6AAAAAXNSR0IArs4c6QAAIABJREFUeAHsfQl8Hld1r5NAIOylUODBg/IotPTRwisPXktpgba80r4CxXESsjskBCcQshACZMPxbsc2dhbbSRzv1mJb8m5JXiTLki3Zki3Lli3LsmzZsvbtu+d++rTrvh7Fo4xGM/PNcme++b45+v30m/lmu+f+z//ec+bOvedMmkR/hAAhEHgEhBA3xWKxT0Wj0S9zzv+Jc34L53wa5/wZAFgMAGsBYAsA7OSc5wHAQQAo4ZwfB4AqAKjlnF8GgBYA6Oac9wDAEAAMAEAEABrxGgA4CQBHGGP7AGA75zwNAFZyzpcCwFzO+bMA8ATn/GeMsbs555MZY98DgH+IRCJfBYC/6Onp+YQQ4rrAg0oCEgKEACFACBACiUJACHFjJBL5XDQa/RcAeAAAZnPON/6XQT1wzRg3AEAMAESS/fejQ3HNkXgDHRXG2F0A8E10ZIQQ1ycKcyqXECAECAFCgBDwHAE0dN3d3X/KOf82ANzHGHsBANYBwCEAQOM+nGSGXZYjgiMPF645Om9yzp/DEQUcSejq6vq0EOIGz5VDBRAChAAhQAgQAjIQAICP4PA8Y+xRAHgTAMqS9O1dlpF385xBALgIAPkAsAoAfhuNRv+5q6vrgzJ0Rc8gBAgBQoAQIARsI4DD9vgt/tob64uc81wAaArpm7wbI+/k3hEAqOGcb2CM/RIA/k4I8W7bSqQbCAFCgBAgBAiBeAjgN3rG2D0A8DoAnAYAfDt1YrzoHm9wG2SMVQDAaziPAp0z+oQQj9V0nhAgBAgBQmAcAkKIdzDGvsYYe+zarPpmMvZJ6ezgxMlizvkfGGN3MMY+TysTxlGdfhAChAAhEG4EOjs7P8AY+1fG2Az83nxteRy9qXvzpp5oXLs453txpQUAfL+lpeW94WY/1Z4QIAQIgRAhgLPyGWN/e202/tEQz8JPtDEOQvl9GDMB5xLgZ54QNQOqKiFACBAC4UAgGo1+HADuZYylA0AnDekn5ZC+Hw7DOQBYyDn/jhDineFoHVRLQoAQIARSCAH8js85/0cAmMMYOwEAOHPcDwNCZaQOzgwANgPAVM75n6RQ86CqEAKEACGQWgjg+nB8yweALADAzpuMMWEgiwPoQB7lnD+P4Y5pMmFq9R1UG0KAEEhCBNrb29/PGLsTAHYAAIaeldXh03MISzMO4MoQjF44GTmYhE2HRCYECAFCIPkQwJnbnPPbACAbAHrJ6JPTk2AO9GO+A0zMRFEKk68/IYkJAUIg4AhgJjzO+c0AsImW6ZHBT7DBNxsZiGGEwmuTCCkbYsD7FRKPECAEAorAteV637uWjpYHuNM3Mwh0LryfEuowdTJmPgxoEyOxCAFCgBAIFgLYYeJkq2u568mAhteAporuMdtjDuf8FswhEazWRtIQAoQAIZBgBDBuOwD8AAB2AsAQve3TMH+KcqAdQxNHo9G/SnCTo+IJAUKAEEgsApFI5LOMsVkA0JiiHX6qvMVSPeSPxByjiYOJ7X+odEKAEPAZAYywxjmfci0mOwXokW9YyFgnF6aYtGg95/zbFF/A586IiiMECAF/EACAj+C3fQBopbd9GuInDuhyACcOPtPT0/MJf1ollUIIEAKEgIcIYBpWxthyAMA3HXo7JQyIA/E50IdtBj+Redg06dGEACFACHiDAAB8EwC2UrY9cnrI8XPMgUEAWMc5/6I3rZSeSggQAoSAJARwNj9+3weAUur0HXf69IYc/w05bBjhXJkszEMgqanSYwgBQoAQkIMAhudljD0CAHVk+MnwEwe84wDnPBcA/kFOy6WnEAKEACHgEIHOzs4PXJvY10WdvnedPmFL2OpwoIgx9j2HTZduIwQIAULAGQL4xv9fiXh+AwCdOh1T2IZnqb40ZJ8wDnDOj2OeDAyd7aw1012EACFACFhAQAjxbsbY47SUj95IyfELHAeqGWP3CCHeYaEp0yWEACFACFhDAGOYc84fpoh9gev0E/bmSQ5AYLlwiXP+EDrr1lo3XUUIEAKEgA4C+DYBAA9QYp7AdvbkANDnByMONDPGHsXImzpNmw4RAoQAIaCPwLVUvHcDwAV60yPjTxxIag6cY4z9m35Lp6OEACFACKgQwJjkAHCSOv2k7vSN3grpeHhHDHYBwBdUTZ12CQFCgBB4CwEMO4rBRsjwk+EnDqQsBwYA4EVcvkv9HiFACBACk9ra2t4HAHMAoI86/pTt+OnNP7xv/nq6bwGAn9DSQTIAhEBIEcDUowAwFQCayfCT4ScOhJID5QDwjZB2gVRtQiCcCADA3wNAGXX6oez09d4I6ViIRwg45xtjsdinwtkbUq0JgZAg0NXV9WnGWDoZfjL8xAHigJoDnPMezvmzFD8gJMaAqhkeBDBLHwA8iY1c3ehpn4wAcYA4oOEABhK6OTy9I9WUEEhhBKLR6FcAAL/10TAvYUAcIA5Y5UB+NBr96xTuGqlqhEDqIoBDeQAwDwAGyfiT80MckMuBK81t4tjZi6Ky9rK4cKVZNLd1CpZ6zsUQY+xVWjaYunaCapaCCFwL5nOeOn25nT7hGW48S6vqxOyN+8W9L2aKH72wbsL/5BnrxV3zM8TDL2WLpdmHROHJ86Kjq9vqG3eQr6vHPiUFu0qqEiGQOgh0d3d/CADeAIARMlbhNlakf3n6P3n+snjklW0TDL6eE6A9duvsjWL6ujyxrbhS1De2BtnIx5MN+5RFNEkwdewF1SSFEOCcTwaAJur45XX8hCVhub+8Wtw2e6Mj4691BvD3b1buFgUVNYIxFs/gBvX8mUgk8jcp1HVSVQiB5EUgGo1+HACyyViRsSIOyOXAhn1lYrLOUL+eYbd7bNrSbLGtqDJZPxEMXFsyeEPy9pwkOSGQ5AgAwA8AoJ06frkdP+FJeP5hS6G0t34z5+Du+RliTe5RcbWlPahv/GZylTLGPp/k3SiJTwgkFwJNTU3vAYAVZKjIUBEH5HMAZ/ebGW0vzv14zkaRdqBcdHVHzAxu4M5dCyD0cHL1oCQtIZCkCOD3NwA4Rx2//I6fMCVMkQNPr9rjuwOgOBUPvZQtjpy+EDhDH69tcM7zYrHYJ5O0WyWxCYFgI4CZuwDgKQDAlJ5J10GQzKSzZOBAWfUlU+OPb+qvbisWhRXnRU19o8Dr84+fGx3Gf/jlrab3KkbeyhaXG15KvlUDXYyx24Pdk5J0hECSIYCJOgAgPxk6UJKRDH0ycwANr5GBvmdBhsAlgWb1O3vxqjRnAFcf4ETEZPsswBjLYIx9OMm6WRKXEAgeApzzWwCgy6zToXNkdIkDcjjw+PIdhg6A3aF5xRl4cMkWw2caORvq49OWZoniU7WmjkcA9d/IGPte8HpUkogQSAIE2tra3gcAqwPYsJOtIyJ56ZORZQ7cv3izrrHG407X7ndHmNhefErct2iT7rPVxt5sf+aGfeLi1RbLdQlC38EYW97S0vLeJOhySURCIBgIAMCfA8DZIDRgkkHOmyXhmBw4YuQ+PSP87Ooc14YXwwJn5B8fDResV4aVY/hZIOvQSdey+MzHqkgk8rlg9K4kBSEQYAQA4D8BgPncQJOtQyF56a1eOgc6u7p1jT8a5l+8slVaea0dXaPzBG6fk2ZYXjxn4IX1e0Vja1LFDuiKRCLfDXDXS6IRAolD4Nos/zkUxz853hTJQUtNPd2/SP8TAL55y07sgwZ8+Y7D4pZZGxw5Avct3CRKquqkOSY+cHoIAJ5IXC9LJRMCAUQAAP4Y19H60ACTqbMgWekt33cOzNq4z9AY7y0764k8VXUNoyMM8d769c5jqOLn1uSKOWn7xaLNB8XL24rE67uOiLV5x0T6geMi+9BJcbCiJmhzB9ZRUqEAGiISyX8ErgX2qSfjn5pvlKTX5NJr2v5yQwcAs/p5pU8cXcD4AnpGXtaxO+ali9+u3C1e3V4sdh45PbqkUfaohg18jlHgIP/tDZUYIAQAYCoA9NpoNJ51QCRDchkq0pc3+sIhdSODi2/bGPjHS+yLKmvFvS9mGspgJJvT41NmrhfPrMoRWYUViRglaAaAbwSoSyZRCAHvERBC3MgYW+ZlR0LP9sZAEK6pjStOBMQEPUYGFScDeh2YBxMDTV+311AGI9lkHH902fbRzwenLlzx1NFRtaN+AHjA+16XSiAEAoBANBr9GAAcUTUAvxoalUPf1IkDFjiwck+JqfHF6Hx+tF9MF3zHXOcrBdw6BBj7AOcT1DU0e15fxtgrQoh3BKCLJhEIAW8Q4Jx/EQAu+dF5UBmp/aZK+vVOvxhs5+YZ6w2dAIwVUHvFe6OIOsbRAExNjJ8f3Bp0p/dPnrFe4LJDjITILDhQLrh5kHP+UW96X3oqIZBABDjn3wGAbheNw3MvnGTzzqgQtsmFLUbdMzOYMgID2eFEZe0V8evXd5nKZCavrHMPv5Q9urKgraPLq/6oPhqNfiWBXTUVTQjIRYAxdg9l8UsuA2Cnc6ZrU0+3x8/VxzW2uUfPeGUEdZ+Lb9+YhRCH5X/35h6Bs/plGXa7z7l9bppYtr1YXGlq05XVTZvgnPdwzm+T2wvT0wiBBCDAGJvupjHQvalnXEinyaHTBZn5pgYWDfAFnz4F6HEGHYLaK01iX1m12FRwYnTyHgYWwngAszbsE0+v2iPwjR1n+ts18FavxwBJb+4pFS3tndIdAQCYgwHSEtBtU5GEgDsEcKY/AKzTa7h0LDkMAOkp3Hq63NQmfjxHPzeAYiBx1jyuHAgyV3DVwtlLV8X+8upRJwGDBuFqhikznUUgVOqu3t41P0NkFpzwAotdlEzInS2iu31GoLu7+0MAUBDkToFkC7dxI/1b03/aAePAQIoBxEl6yYgnBgHCKIGLtxwU9yyQE3sAQynvKjktIozJxORwV1fXB33uxqk4QsA+ApFI5LOUyc9a55qMnSbJHC7d4tvzEyt2xB1CR6OXzNzAVMfl1ZdG5xdMW5odt76K82O0xREGmXkKOOfHAeAj9ntkuoMQ8AmBSCTyVQBoTeaOgGQPl4EjfcfXd31Tq5i6cJOpUcSlgRjTP1XwrL7UKFbnHnWVuhidA5yP0NTWIQuXMz09PZ/wqTunYggB6wgAwDcpjW/8zjRVOkiqR7h0jasC4mXt+9nSLNHqzWQ4WQbU9nPaO7vF5oMVwihLotEIgPo4fl7IOyYtkdKF7u7uz1jvmelKQsBjBDDPNS5dIaMQLqNA+g6XvjGBjtqw6e1j/IBU5EV3JDLqCODyP716Wzn2+7V5svINNADAFzzu1unxhEB8BADghwDQl4qNnuoULgNH+o6vbysZ+3YcPpWSTgDyA1dGzE7b79gJwFUVOKKAcw5c8q0lGo3+dfwemq4gBDxCgDF2OwAMuiSy24ZA93sbnpTwJXzHONAdYaNBeMzeeDF+P84bSOV+oajyvLhvkfm8CDOMMJAROhMuMepijH3do+6dHksIGCOAGawAYNglgd02ALqfjBNxwGcONLZ2iAeXbDF9C56+Li/l9dLc1iHmZRwwxcHMCbhnQYZAR8JlHwqc828Z99R0hhCQjABj7DEAGHFJXLfEp/t97vhJ3/GHyMOCEc6Sj/c93O9QwYnCfm/ZWXHXfGdhiTHJ0Yqdh92mWI4xxr4nuZunxxECExHgnD+bqIZG5ZIBIg4EhwP49oqZ8ozecjE6XkNLeygcdRzOf25NriEWRhgpxzHWgsuwyv2c88kTe2w6QghIQgAA5lMHHJwOmHRBukg0BzD8rWLE9LYYdjfRMvpZfnbRSYH5AfSwiHcM507gaIILeYcYY3dL6u7pMYTA2wiQ8Sdj46JjctOp0b0B/9SDoXTNjFv+8XOh0uH5y03iydd2mmJihhdmO3SxSmCEc/7Q2z037RECLhGgYX8y/mT8iQNGHMBwwZh1z8ioTX0xU7R2dHnqBODzK2oui7qGFk/LMcJAexxzAazfV+Y44RBOonSJ2a9ddvt0OyEwadK1CX+BaFTaRka/ySgRB4LBgdIzdYYOADoGuPbdC12t3F0iHlg8fkXC3fMzBAbd2VtW7UmZdupxqvaK+PnLW02xMXKcMJ9AXUOzmzr8jmwYIeAYgWtL/Wi2f8CHYO10SHRtMAxmKuphQWaBoaGbtjRLMA/aUVFlrbjZZCLii5kFAmMXJBJvTJe8fMdhQ2yMHAA8js7MsbMX3ch/v2MDQDeGF4FrQX5onb8HnVYiOyMqmxwArziAM/7vnGe8HE7CmnddQ5h96KSpcX1zT6nufV7hYPTcgooaU3yMHIEpMzcIF9EVhwDg++G1ZFRz2whcC+9LEf7I+Aei4zTqUOl48JyZbcWVhsYYl8l5pbNXtxcblotr7Y+eqfOsbDt1wiH9xy2kV9ZzBlbuKXFahxgA/J1tQ0A3hA8BTOxDsf2D17Ha6WToWtJfojiAs9cfXbZd1xijIa6pb3RqxEzvw0l3OHFOz3DisWc9dD7sYo2TJl/eVmQoq1Ed8PiyHYedfkrp5Jx/MXwWjWpsGQFM6UtZ/ch42O3Q6HrijJoDOUfPGBq3V7YVmRpy9XPs7rd1domf/mH8hEC1MT3nkfNhV07lelzzf/sc+9kFl2YfcuQEcM4vx2KxT1o2CHRheBCIRCJfBQCmkJO21KkTB4gDTjiAb7hTF+onykGD19re6ZkTgEP9ONKgNvzK/vbiSs/KdYIT3lNzuUngbH9FRqvbRZsPChz1cFDu6e7u7g+Fx7JRTeMiEIlEPgsArQ7I5ISAdA/NLSAOpDgHcA28kTHzakmg0n+9ajC8jksGlWuCtMX1/s+uzjHEywjH+Rn5Tlc4HBJCvDuuYaALUh8B9AYB4GyQGgTJQm+exIHk5sDVlnZxy6wNukYN33i91G9HV7f42ZKsCWVvKjjhablu6tQdiYh4ERX1HIFZG/c5TSSULYS4PvUtHNXQEAEhxI0AUOCGuHRvcnfUpD/Sn1ccMIsLcPbiVU+NcUnVxMBEGCnQq7rKeu66vccmOC56hl99DCc/YqwBuzIwxpYbGgc6kfoIAMA6u6Sh68lgEAeIA1Y4gGvX1YZKvb8qx/u1+Y8t3zFW/q2zNzp9U7ZtWK1gY3bNntIq2yGE8RMCjnyYPVfvHOf8+dS3dFTDCQgwxqbrEYKOUedOHCAOyODAqQtXxgyw2vjj/oNLsmwbK7sy7Txyeqz8JVmFnpdnVz6z60ur6sQdJkGVtHji79+u3C3anOVc+OkEA0EHUhcBxtg9ZuSjc2QAiAPEAbccwO/aRvMA0GBVnPd2SB7fiO+anzGaK8BlYp2EOA9nL10V9y/ePObE6Bl97bEnX9/lZJUFRgv8YepaPKrZGAKc8+8AwIDbxk33k4EgDhAH4nEADZLWSCm/V+w87Llh3bi/3HNHIx4Gbs5jdkO7TgBGGmxu67CLLUYL/PsxQ0E7qYcARoICgG43hKR7qdMnDhAHrHJgbZ7xpLb7Fm5yk/feroFL2utrrzSL+xbpx1VQnCnt9pevbnMyEtDFOf/L1LN8VKNJ0Wj0YwBwyWrDpeuokycOEAfccgCH+bXGSf376BlXme6S1qjbxRVDKE99MdMUSzWuuI8TA+1mQsRogQDwx2QyUwiBa8v9jtglHV1PBoA4QBxwwwHMDYApbbXGSfmNYW3dPD9M91ZfahT3LDDGUsFUvXWCL+c8l2IEpJADwBhbFqaGQnUlo0UcCA4HFmTmGzoAOEkPJwuSvqzpq6quYXRio9rIx9vPyD9uG19cJZZCJjC8VQGAqdS4rDUuwolwIg7I50CuSXIgNF5FledtG6gw6+lU7RVbSwQxN0L+iXN2MR5mjH0vvJYzBWoeiUT+BgB6w9xYqO7yO3TClDC1w4HG1nYxecZ6w1EAjBho53l0LYiKmnpx+1zrmQRvm71RVNZesYtzR1dX16dTwBSGrwo4keO/3v7rqbFQZ00cIA4kmgMYpMZoqBozBDqJYpfoOiW6/LLqS6ZxFrR4Y4bGS42tdp2AYziHLHwWNIlrjBM4OOd5iSYolU+GhzhAHEAO7C+vNnQA0FDheeKKfa6oox1qDb7e70de3WY7WiDOIUticxg+0QFgDjUm+42JMCPMiAPecACXo92/yDiqHWa1I+ydYb9se7Gpc6V1BH6/Nk9EGLOFN2PszvBZ0iSsMQD8JwCMUGNy1pgIN8KNOOANB9L2lxsaKgwZnIzheoPAFXSunlmdY4it1gHA369sK7LlAHDOezjnX0pCkxgekQHgzwGABYGUJIM3nSjhSrgmKwcaWzsEZuXTM0h4DLPgJWvdEi03hv7FBEtG2Ood31JYYRfvc+3t7e8Pj0VNopq2tbW9DwDOJpqIVD4ZKOIAccCIA4u3HDQ0Us+vybVrkOh6eJtrGCjIzsoAXJlRfKrWLoabk8gshkdUAFht1Ojo+NuNhLAgLIgDieMABrLRexvFY1Nmrhe4ZJD041w/hRXnBa77N8JYe/zeFzPF1RZ7mDPGHg+PZU2CmnLOb6FG47zREHaEHXHAPw6YLQncWlRJDoDqrd4JLzfsK7PsAKBD8ML6vXYxH6TMgQFxDGKx2KcAoMsJUege/zo9wpqwJg68xYEDx88ZGqhfvLLVrjGi63UchnkZBwwx1o4C4O/txafs4tjIOf+TgJjBcIqB6/0BIJ86FjIuxAHiQLJwYHRJ4GLjJYFHTl+wa4zoeo0TgIGVcM2/nrHXO4aRAs9fbrKLY74Q4oZwWt8A1BoAnkqWRk9ykoEiDhAHFA6YLQl8fm2eXUNE12scAMQZ51tMmbnBshPwxIqdttMHA8DcAJjC8IlwLc7/gNKgaEudK3GAOJAsHGhq6xB3GMSyx0lsOKM9WeoSZDnX7T1m2QHAkYE1uUft4j7COf9W+CxwAmvc1NT0HgA4F2TikWxkjIgDxAEzDphNVlu4mRIEmWFn9Rx+bnl8xQ7LTsDNM9aLEzX1dp2AWiHETQk0ieEqGgBWWCUAXUedMHGAOBBEDuB3akxQo/dNGkcBTp6/bNcQ0fU6nwJwNAUjLerhrHcMAwq1dXbZxXJhuKxwgmoLAD8IYmMmmcjIEAeIA3Y5gLPP9YwQHvvVazsF0zFodsug60GkHzhuiLMe/n/YUmjXARhijH09QWYxHMVGo9GPA0A7EZo6WuIAcSAVOIBD1A+9lG1onHaXUHhgGXrG5D9Pvr7LEGc9JwCDCtksu4pSB3voiwBAtk2F2FUgXU9vHMQB4oCvHMg3iQtw1/wMceFKs6/ypGofW3O5SeByPz1jr3fs4Ze3Oska+IKHJjC8j+acT05VYlK96G2WOBBuDjz52k5Dw4SGqKW9k5wACY7p5oMVhjjrOQE5pWfs4j4QjUb/KryW2oOad3d3fwgAmqiTDHcnSfon/acqB46dvWhqmJ5bk+tkjbpd45Xy1zPGhFkoZq0TgBMC8TONTd6VUYAgiY4AALxhUwF2FUbXS/CuSUdkoIkDzjkwfV2eqRNgN4c96UJfF/hJ5cdzrH8K2HHYdphgtCdPSTSB4X0U5/zbADBCZNYnM+FCuBAHUoMDZy9eFZiiVvsWqv6dfegkvaxIeFnJOnTSFGc15vcv3iy6uiN2ce8FgC+E13JLqLkQ4t0AcJ46uNTo4EiPpEfigDkHMACQ2vho9zFQTemZOrvGiK7XOA24KgATL2nxNfrt0PE6JIS4ToIpDOcjAGAedRjmHQbhQ/gQB1KHAw3NbeKeBRmmhumeBZmivrGVjLrGqNttB0WVtaY4q52B+xZuEhi4yW4ZnPOfh9N6u6x1NBr9CgBg3mXboNM9hBlxgDiQrBw4WFET1zA9szqH+kUJtuHZ1TlxsVYcgU0FJ5xgzru7uz/j0hyG63acQQkA5cnagEluMj7EAeKAGw4sySqMa5gcpK91YsBS+h7MGBhv3oXiAOBcAAcrAgTnPC9cFtxlbQHgSTeNh+6lzpc4QBxIZg60d3aLaUuNIwSiUXpzT2lKG2e/9IdhfxUjH2+7v7zaKeZTXZrFcNze1dX1ac55j1/Kp3LIUBAHiANB5MDFqy0CgwAZGSWMDRBEuZNNpivNbZaXBT71xi6nmHdhKPtwWHEXtWSMpScbgUheMiDEAeKAFxxoausQvzaIYY9pbr0oM4zPXLf3mKGjpXXAKmuvOMU924VpTP1bAeDvw0g+qjMZD+IAccCIA/vKqnWN08MvZTs1RHSfZgIhzvC/b5F+amatA7Ags8AxftFo9J9T35I7qCGulwSAMqNGQMepgyQOEAfCyIEZG/bqOgBz0w84NkRhxDFenTHzotbY6/2eMnODwM8G8Z6nd55zfpxiA+g4CAAwVQ8wOkadPnGAOBBWDuAnADQ4eoZoa1GlIyMUVizj1RvzBDy6bLsu1lr8V+cedYw9Y+wOHRMY3kNtbW3vA4DmeAqi82QIiAPEgTBxYFtRpaFBomWA8tsCRlnUGnu93xiMqdNBYKBr3L0ohLgxvBZfU3MAmBOmRk11ld9wCVPCNBU5gLPO9QzQI69uc/wGmoo4yazTC+v1P7lo9bCr5LRjHTDGHtOYwXD+jEQinwWAPpkKpGeRMSAOEAeSnQMY7ldrdJTf6/eVOTY+yY6L1/LX1DcKzLmgYG20/aU7J6yjq6vrg+G0+qpaA0CW1wql55MxIA4QB5KNA9uLTxkaITRSyVafZJIXZ/obGX71cZeJmeaqTGH4dq+l+iUia5akJFNDIVnJsBIHvOHAzA37dI3QI6/Q8L/XnDt76aqY/MI6XfzVDgCu0HAhSywWi30yfJZ/0qRJQojrAeCkC/DcAE/3ktNBHCAOBJYDmH/+9jlpugYIg9ZQv+mN06XG1Wj5pdoBwDwCF640u9HHm6F0ABhjd6vBpn3vCU0YE8bEgeTgQGmV8Wz0czT878bgWr634vxlXQdM7QDg/vIdhy0/U6f9DXPOvxQqJ0AI8Q4AuKADhhsg6V56oyMOEAdSggOv7Tqia3x+8crWlKhfsvT9z6yKny749rlporWjy41edoXKAQCAB5IbOKBsAAAgAElEQVSFACRncrwxkZ5IT6nEAZxhrn3TxN80/O8vz0tMRmLU+tl8sMKNA4Apg78VCicAAyBwzi+nUmOluvjbKAlvwjuVOdDW0WWYo776Es3+91v3T6zYqeuMqR0AzCOA8zZcyHYsFCGCOecPuwDJDcB0Lw0PEweIA4HngNH3/weXZAVe9lTs2wsqauI6AOgMuA3NzDm/NaVHAYQQ7waAxlQkCdWJ3kqJA8QBGRzYsK9M1+DM2riPHIAEOLAMQODcC/Ubv97+A4s3i+6Iq1GAC0KId6asE8AYe1xGA6FnUEdLHCAOpCoHpq/TD0W7xkUCmlTFyq965Rw9E9cBQKdg5xHn4YGxLoyxR1LSAWhpaXkvALT6pTAqhwwEcYA4kIwcuHt+hq6x2V9eTSMACRgBQA51R5j46R+26OpFPRqAn2nwWhe8a2tvb39/yjkBAPAbF6C4AZTuTVCjIX2TASYO2OMAZvhTGxT1Pk0AtIelbO7hN361Poz2c0rPuLI5jLHpKeUAdHZ2fgAAOmUrhJ6X2AZB+BP+xAG5HDAaap4yc4Pb78uujBLpGUbT/059MTOuE/DwS9k4lO8G746mpqb3pIwTwDl/nggkt6MgPAlP4kDqcWBVTqmugaH4/8HQdXr+cV39aEcD9paddeMAYFyAh1LCAbj27b+LOqtgEJj0QHogDgSXA3PTD+gamPkZ+a4MCulcjs4xRsOd89J1daR2AtBhw9UDLnA/j/lykt4JwFmNLkBwAyDd646AhB/hRxzwmQOPr9iha1xwaSD1o64MqjT8Vuce1dWR2gHA/fwT59yW+cOkdgCEEDcAwEUibjCIS3ogPRAHgs0Bo7fLgxU1bo0J3S/JmWts7RC3zd4Y1wl4bPl2t5gfSmoHgHM+hTqcYHc4pB/SD3EgGBxoauswNCouU866NUR0v8Z5wAyA2jd+vd+HTp53hR1j7GtJ6wQAQCl1LsHoXEgPpAfiQLA5cNIg/ezkF9a5nVXuyggRbybypr6pVdwya0NcJ+BXr+10hT1jLD0pHQAA+CYRZyJxCBPChDhAHNDjQN6xs7oG5dbZG10ZEb2y6Jh7Di7JKtTVl3Yk4MjpC270N9jV1fXppHMCAGArkcw9yQhDwpA4EA4OrDfIAXDHvHQ3BoTu1Qzfy2pPtVeaDLM2qp2A36zc7VYHi5LKAWCMfR4AhmUBTc8JRwdIeiY9h5kDS7MP6b5R3vtiplsDQvd75AQYLdtUOwC4f+zsRTc6YBhML2mcAMbY8jA3ZKo7GTLiAHHALgcWbirQdQDuX7zZjfGgez0y/qjfqroGXZ1pHYBnVuW41cOvksIBAICPAEDMLvnpeuowiQPEgTBzYE7afl1jMm1pllvjQfd76AT8fm2ert60TkBZ9SXHeuCcXxZCvCPwTgCF/aVOPMydONWd+O+UAy+s108DjLnonT7T6n0NzW2el2FVlmS7Dof3tcZe77fbuQCc8x8H2gEQQryTUv5SB5hsDZjkJc4GgQPPrM7RNSSPL9/hqXHefLBCPL1qj6dlBAFfL2VAJ03P6GuPHT5V6wbnskA7ABT4hzpSLxsZPZv4lcoceOqN3bpG5Nev73JjNEzv3Xnk9GiZGGugrqHZ9NpUxt5t3bIKK3R1p3UAMNSzm7I45/8YWCeAc77XTeXoXurgiQPEgbByAN/0tQYDf//uTW/ezmsuN40LaYsx7sOKvdt6t7R3jsNST4/KMZc5ArYH0gGIRCKfBYARt0DS/WQAiAPEgTBy4Ocv6w8jP78mV7phjjAmnnxt5ziH4yeLNgk8HkbsZdR58ZaD4/BUDL52i58LmHOch3GZfeCcAMbYLBkg0jOo8ycOEAfCyIEHl2zRNSA4OVA2Hhv3l+uWVVTp6hu1dDll19vL51UYhHLWOgD4O/foGcdYMcaWBcoBuJb1r9FLcOnZZBSIA8SBVOYAvoHrGYsnVriLJ6/F7MzFq4Zx7Gdv3O/YMGnLCePvR5dt19WhVq8/W5oluiOOR1t4U1PTewLjBADAD8KobKozGSTiAHFAFgeMjMc9C+RFAuyORIRROWikpszcIK62tJMT4DBuwPbiU5YcAMR6x+FTjnHmnN8WJAdgp6xGQM+hDpU4QBwIIweM4gCgsWjv7HZsLNRYrs07FtdAZRackFKWutyw7Ld1donb56bFxRh1ev+izaKrO+IU6x2BcABisdinAGAoLAqmepJxIg4QB7zgwEtb9XMBoLGovtTo1FCM3Ycz1a0YJ5yM6EX9wvLMl7cWWXIAUK8Yg8EhLgOMsQ8n3AmgyH/UGToksFPi030OhydJT8FuqxsMsgGioZAxOS/NYOIfPl/7f/xcPbUzh+3Man4AxBwTPTkd3eGc/yyhDoAQ4nqMUUwdS7A7FtIP6Yc4EHwO7C6pmmCIFcO8tajSlUHGoeapC/UnGSplqLd/2FLoqryw8027xFKNrXYfV2Q4xOtQQh0Axtj3HArutMJ0n0OvlPQUfANAOgq3jo6cvmDoALyxu8RV36dE/NMaH6Pft89JE/g9mzjpjJNmzpwW87vmpwv8POMA65Gurq5PJ8wJ4JynORDaSUXpHjL8xAHiQEpz4Fx9o6EDgHnn3fS1j7y6zfDZWoOk/N5S6Pj7tCtZ3dQzKPd2dHWLO+elW8bcRRTG3yTEARBC3AQAPCiAkxzOPFXCjXAjDgSDA60dXYYGw00sgNorTYbPVYy93va+hZtEZ5ec1Qdh5NjyHYct444jLo2tjpZfnkqIA8A5vzmMSqU6B6OzJD2QHlKRA0az9N3EAkg/cNyyIdI6ApjkJhVx9qNOZiM6Wpzx94qdhx1hzTn/ku9OAABs8gNEKoM6euIAcSAsHMBscXrGAY/hsLITHOxMSNOWfd8iGgVwgrlyz3Nrcg31qcX61tkbxeWmNic6nuurA9DS0vJeznmPUknaUgdNHCAOEAfcc8Bs2Lis+pJt43ClqU1gql+tsbHzO/vQSdvlEhfe4kJFTb0t7DEWhAPs6oUQ1/nmBGAYQgdCOqkY3UMTv4gDxIHQcODA8XOGBgOj+Nntd3H5oB1jr3ct5ihwEbHOtsx26xj066evy7OsAwzFXNfQ7ASzb/rmAABAdtBBJ/ncv40QhoQhccBfDjQ0txkai6fe2G3bMMzauM/weWpjjzECHn4p2/Da7CIaBXDaFk7VXjHEVa0DZR8nX76+64jAgEJWy2SMLffFAWhvb38/APRaFYyu87cDIbwJb+JAcnMAM8UpxkC9nTJzvWjrsLc2f9pSY6OufjZGCdxbdla3XLzOZdx6y4YsVbmLyzjVeFvd/8UrWwXq5uLVlngYdggh3um5E8AYuzNVlUT1Su6Ok/RH+ksFDiwzWT5WVHk+niEYO4+TBifPWB/X8Nwya8NoIBrGmECDY2Sc3EYjTAXdOK0DOm6/dBCLQdEFzuP47crdArMNmgQN+g/PHQAA2OEUBLqPOmjiAHGAOGDOAYzDr3T82i1OErSK3+kLDYbPUT/3d2/uGXum2RyE+xe7yl43VoZV+VPtuvqmVoGrKtTYO9n/8ZyNAnmgHRXAwHyeOgBdXV0fBID+VFMM1ce8QyJ8CB/igH8cYAACja2eccB4AFYn5OUcPaP7DO1z1+19e3Ihlm32prqt2F1OgrDzCL/rY9AfrQ6c/MZPQgsy88fmCuDKvLa2tvd55gQAwL1hVyDV37+OkLAmrMPKAZwEZmQUckrPWHqbXrm7xPAZ6mdrlxcerKgxvA8dE6fxCMKqS229EW9cWaHWgdt9jDdQUlUnGGN3eekAZGkrQ7+pkyYOEAeIA3I5YDZz3GpY4Onr9sY1Mvj9X29EwSyAjZPliMSP8fxobusQc9L2x9WPXcfg+bV5DZ44AEKIdwAAI0WOVyThQXgQB4gDXnDgmdU5hgai4vzluKMAVhIA4TV6stdeaRboHOgZIIxY53Ctum5ZeuWH5RhmDTQK/6yHfbxjOD9gw57SD0h3Ajjn/xgWpVA9qUMnDhAHEs2B8upLugYYjQC+oceTz8oSwHkZxlkG8U3fyOC8sH5v3PLjyUfn32pjDS3tIiP/uHj4ZeMVGEZ60Dv+6vbDT0l3AABgDimMOkXiAHGAOOAfB55ZZTwKgJP8zHRhNJFQbTTW7yszfAZmAnxwiX5MAnzGoZPWlySayUnn3ubTiZp6sSSr0FYqYbU+cX/mhv3l0h0AxtgJUtTbiiIsCAviAHHAaw7ghDFtB6/8vmdBhmhs7TA04LhiQLnWaJt//Jzh/Vi34lO1hs9A54DSBXvTBrojTJSeqRtd7vfgki2GOtDT68+WZvVJdQCi0ejHAWDEa7LT870hE+FKuBIHkpcDT6/aY2gAnl+bJ7ojEV0jbuXbck19o+69ar7M3mg8WU29hFB9D+3L5dvZS1fFxv3lAjM7Wknu9GZOqbzcALT8T64yqXEQnsQB4oBVDhw7e9HQAcA3QPyOj1H8tM8zmsSnvDXieXzT1N6n/V3f2Cpwcplyn3p72+yNEwLSaO+n33K5jvkiMgtOCLORgYWbD6ZLGwVgjKWTEuUqkfAkPIkDxAGrHMBofWrDq93HSXnqmfkY0Ed7jfb3Eyt2xDX+inw4SU17v/J7xgaaEKjg5OcWnT6M2aC3WuSpN3a3SHEAhBDXA0CnnxWjsqhjJA4QB4gDb3MA88pj5DfF6Opt8Y1+5Z6S0YRBGKxH7xr1sdW5Ry07APiZwSxPQFFlreVnkV7f1qssLKovNYqXth4SOCKDOpa2HJAx9reyhKTnyFc8YUqYEgfCwQEc9lUbcKP9O+aljyaOMTqvHNdGAIzHI7MJidOW0oTAePj5cb65rXP088BP/7BFSFkOyBh7wQ/BqYxwdGKkZ9IzccA5B2ZLih53x9w0S9//tbpauKnA0AlZsdN6oiLtc+m3c07oYYefB2qvNL/s+jMAABzVK4COyVUY4Ul4EgeIA/E4gGllH34p29AIK2/38bZOjfXVlnbDNeo4Ox0nLMarA533jefFrhyAzs7ODwDAMCnMN4VR4wHCmtobccCMA/i912hWfjzDj+dxeLi9s9txX2OWZRCf3drR5fjZZvWmc7bbRa8Q4p2OnQDG2L8S6LZBJ/KTEScOEAc85cCB4+cMY/XHcwIOn77gWrbFWw4ajkLgObIbwbAbjLGvu3EAZpAig6FI0gPpgThAHFBzAHPL240fb2fmv7os7T6uMjBbFYDL07T30G//+csYe8yxAwAA+aQ0/5VGmBPmxAHigBUOoCFemn3I8G1cGQ24fU6a2F9eLdUo46cIZdmZUo6yvffFTNHY2i61PCt40DXj2w1jLNORA4DpfznnPQToeEAJD8KDOEAcCBoHCivOC1whMHXhpnHOAP6em35AoLH2QuZdJafHlac4ALidtWGfJ2V6UY9UfSZj7IojB4Ax9rVUBYXqRR04cYA4kKocwIiABRU1uAzMFwP8osnSwD2lVb7IkKq6lFGvWCz2KdtOAH47kFE4PYM6WuIAcYA4kLocaOs0XpqI8QbUIYqJB/7zgHN+i20HAAC2kLL8VxZhTpgTB4gDycYB/MRw57x03c8Bv3x1m8C5CslWpxSSd7ETB6A5hQAg8tGyLOIAcYA44CEHjp+7ZDgpEDMWkj1JmGNbassBiEQinyNlJUxZ1FA87KSI18Rr4oB3HCiqPG+YtAgzChL23mFvgm2/EOJdlp0Axtg9Jg8jJZKBIg4QB4gDxAFdDmCkQAwLrF4RgPs3z1gvSqrqdO8he+O5Y/ANyw4AALxOCvFcIdQQqAMlDhAHUpIDmwwyF941P0PUNbSkZJ0DbjOftOMAnA54ZYhA1HESB4gDxIEAc+DNPaUTRgFwJODRZdtpUqD/esuy5AAIIW4EgEFyAGgEgDhAHCAOEAfccGBJVqGuEzA/I5+cN3+dgCZLDkA0Gv2yG4XTvdRhEAeIA8QB4gByAPPSv77riK4TkFlwgpwAH52A7u7uP43rBDDG7qbGS42XOEAcIA4QB2RxIKf0zITshTgpsJQmBfrmBDHGbo/rAADAi7KUTs+hDoQ4QBwgDhAHkAMVNfUTchXcPT9DXLxKkwL9aCOc85fjOgCc81w/hKEyqFMgDhAHiAPh4kB9U6t4fPmOcZ8EHltOkwK9bgdXW9rFgfJzNXEdAABo8loYen64Gj3pm/RNHCAOKBzAsMCYoVAdJ2BBZoFvQ+GKHKm8RYyPnL4gXtt1RPxy2fbRuAyYunm6ENcbOgEA8JFUBoXqRp0QcYA4QBwIBgc27CsbFzVw3d5j5AQ4nBTIAMSp2iti4/5y8fSqHHHrrI3jHCzF2VqVd8w4IBDn/J+ocQSjcZAeSA/EAeJAqnMAkwj97s09Y8Zqa1ElOQE2nIAIYyLv2Fnxi1e2jWGoGHu97Stbi541HAFgjD2a6oSj+lGnShwgDhAHgsUBNGL3LdwkJs9YL/aXV5MTEMcJwDf+HYdPiQeXbLFk+BVn4MVNBdsMHQAAeJMaRrAaBumD9EEcIA6EgQOdXd1i55HTo5EC8ft1GOrspI6NrR3iuTW5tgy/4gD8fm1etZkDUOZEILqHOijiAHGAOEAckMUBTC3c1R0hJ0AzEnCipl7cv3izI+OPTsBjy7czXQdACHE9AMRkKZCeQ50BcYA4QBwgDhAH5HHg5a1Fjo0/OgB3zcsY0XUAMEwgKUqeoghLwpI4QBwgDhAHZHIAMyliBEVlSN/JdnXekb+Y4ARwzr8tU1B6FhGfOEAcIA4QB4gDcjmwNPuQYwfgwT9sEZkF5fdOcAAA4D5SlFxFEZ6EJ3GAOEAcIA7I5EBzW4e4Z0GGZScAIy8ePXNRtLR3KnMq7p/gADDGXpApJD2LSE8cIA4QB4gDxAH5HNhdWmXZAcCgQPWNrYrxx+2cCQ4AAKwjRclXFGFKmBIHiAPEAeKATA5gHIDfrtxt2QlYtPngmAPAGMvUcwAOyRSQnkWEJw4QB4gDxAHigDccwCiKU2ZusOwEvLmnVHECyvUcgAZSlDeKIlwJV+IAcYA4QByQzYE1eccsOwC4YmBJVqGIMNY9zgEQQtwIAMOyhaPnEeGJA8QB4gBxgDjgDQcYY7ajAs7auE8cq7r08TEnIBKJfI4U5I2CCFfClThAHCAOEAe84gCuCsDlfXZiAqzYWXzbmAMQjUb/xSvh6LlEfOIAcYA4QBwgDnjHgaq6BvHjOfopgPUcg1e3Fj835gAAwAOkHO+UQ9gStsQB4gBxgDjgJQeOnb0obpttzQlYuKVwjdoBmO2lYPRsIj5xgDhAHCAOEAe85UBJVZ241YITMC99/4ExB4BzvpEU461iCF/ClzhAHCAOEAe85kBxZa24ZZb58sDpa/aeGXMAAOCA10LR84n4xAHiAHGAOEAc8J4DZWcvinsWZBpODPzNyt3NagfgJCnFe6UQxoQxcYA4QBwgDvjBgUuNLQLzAOhNAnzkla1RtQNAQYCASOkHKakM4hlxgDhAHPCHAx1d3eLFzIIJTsDUFzcNqR2AGCnEH4UQzoQzcYA4QBwgDvjJgb1l1eL+xZvHHIEpM9eLgoKCd0wSQtzkpyBUFhGfOEAcIA4QB4gD/nIARwPW5B4dWyWwMq/sS5NisdinSBH+KoLwJryJA8QB4gBxIBEcuHi1RcxJPyBe33X4x5Oi0eiXEyEElUnkJw4QB4gDxAHiQGI4gBGAJ3HO/4kUkBgFEO6EO3GAOEAcIA4kiAPfRwfglgQVruQmpi2tQCAOEAeIA8QB4oCPHOCc34YOwDRyAMgDJQ4QB4gDxAHiQKg4cB86AM+Q0kOldPKyffSyqW1R2yIOEAeCyAHO+cOTAGBxEIUjmajREAeIA8QB4gBxwDMOPIkOwFoC2DOA6W2b3raJA8QB4gBxIHAc4Jw/hw7AFnIAyAEgDhAHiAPEAeJAqDgwFx2AnaT0UCk9cJ4o8Y/4RxwgDhAH/OUA53wpTgLMI+D9BZ7wJryJA8QB4gBxIMEceB1HAA4mWAh6I6XvY8QB4gBxgDhAHPCRA5zzDegAlJADQJ4ocYA4QBwgDhAHQsWBbPwEcJyUHiqlk5fto5cd9rbFGBPdEfyPiK7uiGCEvSftDzFuae8U9Y2tovpSo6g4f1mUV18Spy80iPOXm8TlprbR83hd2DlJ9R+zdzk4AlBlBxDecVHE6rI9/++p3xs+orJuT3Htqc8NH6ZkcKTpvK2jS5SeqRPbi0+JN3aXiFkb94lfvrpN3DE3Tdwya4OYMnODuHnGejF5xvqxvOM/emHduP3bZm8Ujy3fLhZkFoiN+8tFQUXNqIGKMDJM8fphTOd6qvaKyCk9I1buKREz1u8VDy7JGkvvqsXa6Dfq6t4XM8VTb+wSi7ccFGn7y0X+8XPi7MWrAsuIJwedHzOgyY5VIToAtXYU2nt2hRBpk7z/z7hR8K7GZAfYlvw9F7d7iuvIlg/bkscOL+jalOkUxjjS2Nou8k+cEyt2HhaPL98xatyNjIrb42iUHnl1m5iXcUCs23ts9O017KMFWH80+IjHEyt2iskaZ8ot5nr3YxnooKGDgc4ejtqkStvOKqwQizYflPaPo1pJjk0ZfgK4bKcSfeVPe2qk1M5Fb/WbyQ6wLfkHiu/1HFuItNuSyQ436NrkdwJwGHnH4VPid2/u8cXg6Bkh5diDS7aItXnHRO2VptBwFo3+kdMXxJKsQnHfwk3jRk8UXPzc4ojN82vzxOaDFaKhJbn7jpkb9knFszP5R0uqcASgxU7HPVB8j+dGSnECBgt+GJqGD6xTjGz+I8+xjbacDg+mNPxvSddodAorzo8O6eObuJ8GxmpZT76+S2wtqhRNbR2W6mSnTwvCtfh5JevQSfHQS9mBxB/1hJ945qYfEKVVdUk5l4McgAkvKBfRAei20wAG933HcyOlOAAjmTcJ6G5NyQavxTx2IcsXXEM5t4IcAcM2hIb/0WXbA2t0tA4CGiHsyA+dPG9YJ23bCvLvi1dbxLLtxeL2uWlJowPUybSl2SKz4IRAxyXI+KplIwdgggPQjJ8AetQgxdsf3v5nvhgqxQmInd+YNASLh53Z+YFDt/uCa6xmbSjwNMOazoEoPlUrnlixI6mMjtYZeHrVHnH20tWk5DNOtsPPG7fO3pjUOpi6cJPYXVKVFCMC5ABMcAAYjgAM2ekQReZNvhgqxQEYKLwtKRu4HUzxu/zIpg/4gmtf5bzUx5Pe+A113NzWIWan7U9qo6N2BHDVAb5Bt3Umz5sornz46R+2pIwOUB/oTJ6oqTfkna3+0KP2Sw7ABAdg0JYDwNvrfDFSivHH7cjmDwr8Ph4EAnklQ6w2wzdc+48+mtJYeqWjVHguzur+yaLETyxTG3BZ+4+8sk3UNTQHmtsNzW3i92vzUsrwq/WHKwgWbi4I7GcBcgAmOABDtj4B9DQU+mao1E5ArG5roBu2W+MwUDjFN1wHCm9NaSzd6iIV78fgL6/vOpLwWf1qY+HF/l3zM0RJVV0g+V1WfUngcLkX9Q7aMx9+KXs0GFHQ2hI5AOMdAPz8jyMAXVYVFatZ75uhUjsAA8VTA9moreJmel13qxjZ9F7fcB3K+4fUxdKjoUNT/QW8TDT+c1JoyD+esVuafShw/MbJclNmGgdHilenZDz/4zkbxb6y6kDpghyA8Q4A2n50AJqtdnB9J+f6ZqjUDsBI1kcFsKQPuqDbGGI163zFFCdxWtU3XTehwSQVdmEz/mgoz1wMzqRAnOg3e2PqzLdw4ohgEKmgBHQiB2BCf9aMDkC91Y6+v+RhX42V2gnoqc9Jqs7XKqaDBf/pK6Y42mBVNrpuQoNJGuzCaPx/u3J3YPSDxv+ZVTmhGPKP5xi8vLUoEHohB2BCf1aPDsA5qx39YP73fTVWagegv+ShQJDIKlZWruNdzcLvVRWIadhCLFvRRapdg0Ph8TrmVDu/vzwYQ85k/Mfnf0Ce4UhAotsYOQATHIAadAAqrSpmaPdXEuYAjGz9VMIJZBUnq9f1Vq9KCJ7RpvKUw9Iq5mG4DoPkpJpxj1cfXN2Aox6J1i8Z/4nGX9Hdm3tKE6ofcgAmOACn0AE4ZrXRjGz544QYLGUkoOfKwYQSyCpOVq8bPPDvCcGz5+LOlMLRKt5huA7X+SditjmGEP7FK1tHo/RhpkDMJ4Bv5LtKTo/GkV+/r2w0gyAOB2MmwOfX5Ir7JC5J3LCvLOGcxoyGz63JDZ3zpRh4K9tNBScSpidyACY4AGXoABRZ6Rh5d2tCjJVi/HHbf+yJhJHHCkZ2ruFdV4XIeFdCMO09+3rK4GgH8zBcOz8j3xcDdM+CzNGlhZi4BsPZMofpfDHjID4jI/+4WJCZP+pEYHAfK8ZEuQadjyAkqnlt1xFbcivyO93iygJMx4wZ7jDTXVFlrTh+rn50Cd6VpjaB2NZeaR7NKIgxIPaWnRX4Fo7OF6YDdlqum/tQZpQxEW2RHIAJDkDxJMbYfivKiDYdT4ixUjsAqTSD3be0yjqpm/sqXkhIA7TCM7pmQiO1rCsM7+umc7Zy75Ov7RzNHe9lKtTW9s7RNMQ4j8FKxDwcUUg0b/KOnfEce9QPOkdowLG89s5uV/WuvtQoVuWUWsLYCjesXnP/4s0JSepEDsCEvuUAjgDsttJ4YnXbEu4AoDMQbTzqivRW6urHNYP7v5swPPtLpqUEhn7oKZnKeHa1d7PO75yXLrYVVyZkSVfN5abRN1yjFMUVCQ5Be+rCFYFpc60aQCfX4fNX7ikRGE1QNidxmd7RMxfFb1bu9rQO6npPX7fXdy6RAzDBAdiDDkC2FUL1Vr2cMIOlHgXoO/6M9AZgpf4yr+Gdl4VIf2fC8AxVmuWAB+qRxSt8m1N3sDL3cXldEIbYEatLja0i7UC5wNC/WMfHV+xIaH+AoxUPLN7sGfaTZ6wXS7IKxeUm+YZfj3tFlefFI6++ha1MDuk9a0thha+6IwdgggOwFT8BpOsRQXusv+yphBkstQMwvOuvfCWNFvxCdpEAACAASURBVAcZvxPtTA3lfD3pMZShh1R6xktbvVn2h2vZcWZ7ELGqqmsQFecvJ1Q2r3BHg4nzLBIR2hg/72CCJT2jLfPYHfPSR+cp+MUtcgDGOwCMsQwcAVhjRQF+patVG3uj/WjLqYQ2eit4mV0ztPc7CXWmhrf+96TGzwzbMJ5rbuv0ZAgaZ7QH1fgHQc/l1Zc8y6/w69d3ifqm1oS2U1zFcfucNE8dAT+DBJEDMN4BAIC1OAKw3EpjwhjyRgbZ7+N9FbMS2jCs4GV0zWhGxfQbEotlxo0CIPFrpo0wouMTGqop33Gpncw3s7fePjNEY2uHablh1lNXd0Q8/PJW6bgj9jiXozMgoy44v+L2ud45ATip8ewlf8I3kwMwvl/hnC/FEYDZVhry8LbPJNZoqWazJ/MQdu+pRYHAkXdcpM49ReYHeLH0L6f0DPHDhB9r8455YvxxomPQRl0wkyEm95HtZCrPw5EmKzbI7TXkAExwAJ7FEYBH4wLLIgmdtDZxhOE6wdtqfCFNXGxMOgm9e4dy/z4QDkD0auJDc+rhQ8fGN1IreEyVvKYb30CtlBvWa3BCHsYeUAyYrC0GUmrr7Aok9l4vMcXPKV7ziRyA8X0L53waOgC3xwOet50LhNFSOwK9pxZ6Tph4uNg9j06LSL8+EFjGLmxJOvzs4h2G672Y/Z+oQC3Joq9XthVJN/442z/RExrj4Y+rEWQ5O9rnYNbEeOW7PU8OwAQHYMqkaDT6z/GA7bm8PxBGS+0ADO39lueEiYeL3fN9lfMd4ziy6X2O71XjpuzjSgS78tP14xtQEPDACHDaztTNb3wLDUK9gioDTszz4u3/9V1HAo87LnmUGb5ZzVOcC4ARJb3UOzkA4/svzvm30QH463igx86tdm18RjLfI4Z3/Lnr5ygGTKTfIHhHYkJKxsPL6DzOXRiTXzWnwcqxgSM/dXyv3vP7yp/2tLEZYUDHxzdCt3gs3FQg1QHYfNDftdlu6+/3/S978Pb/s6VZgfvub4RroYeJprzOGEgOwPi+h3P+JXQAPm6kbOV4X8UM18YHJxH2l/3a9XPUxqz3zLKkMWLR1jNCpF3nrP4ZN4qehiJn9xo4GgPF9yUNdgoPaTu+ASMeT76+S6oDgPHjCeeJOCMmGIRI9tv/5BfWiWNnk2tCrheTTnE04I65aaKtw7s5EOQAjOc12v5JQoh3AMCIWaMfOPKga+MztOd/Szdig/v/NWk6q76KmY4xxLDBspMxDR74XtJgZ8bNsJ+7e36GNAfgwSU0L8SMT2tyj0rDWhn+9nMdvFnd7JzD5aEYpEipg8wtJiyyI4uda8kBGO8ACCHeOQn/AKDTDEg0Fuo3byf7mPoWy8AgNE7u170n412CdzV5RhgzTOyeG9r9Fcf17q1aOlrHkU3vd/wMLX5Du7+cFLjZxTlM17e0d0rthGeneT8RK5n1M21pllS8cX19q4dvvF5iva2oUioWihOBn7S8kpscgHEOQGTU+F9zAKrNQB/e9SXXhmeg+N5RxfaX/tz1s9TGLHZulWeEMcPEzrloS6XzOqdfL3j7hdE6Du/4gvPnaD4FjGT9SeBxs4NxGK/FJDRKxylju27vMeKEwbLeytrLUrFGfWG2w2TlLTouXiRAwpEFp6ml42FJDsA4B+CC2gEoNANvZPOHXBse/P6PZfTU57l+ltoBGCz4UeAbUd+J5x3XeSjn/4zVD1c+qOvuaj/9egHMu+9tZnyic+Ma4ph+7eKCAVpkGH7lGZhkx64MYbkeJ6gpOMnaVtZeSWq8F26WOwFVwfWkR/kdyAEY1++Uqh2AzYYNmXVKMTp9lQveIjuLiJGsj0l5JhpAXF0AEX8yZRliZPDWoFzvZgRFHfZ4oPBWabghdrytOqk7IAXfsG5Lz9RJNUrkAIzrIMfaBr6R3rdwk1SsH122fez5ycpfnLyoGG2ZW69GosgBGMfvXWMOAGNsmREJR4PXaIaPnbx5qofqBw7/RKohi51PD2xjijaVu6prtPnkWN36jz7q6llavfVcyR97tpH+6fi4RhMovA6fqpXaAXvV8SY7h0qr5DpaaCyzD73drpMVHwYgcAmjTOOPz/rVazs9aWfkAIzry9aoHYDpRiTEkLFaw+Hkd8+lXWNKjdVtl/JMRQ7MVGgkf6KP95X/znFdh3d+cVy9+irnOX6WgpV6Gzu/cdzznWDVc3G7wFUiA4fvFzjPY6DoTjFQeJsYPDhFDBb8pxjM/w+Bk0hxJcPgvu+Iobx/FEO53xAYE2Foz9+I4d1fFsM7/6cY3vkXYnj7n4nhbX8qehqC+200erV4dCIrTmaV9c/bax3pQfaabJoEOK6DHNOJ7Ah4t87eKDCDo5P2FrR7Nuwrk+4AYFRELxJRkQMwjt/zxxwAzvnDRsTCDl5tNJzuRxuPvk141ilkzCtQZMFnAQtmg3Izca+/7Km3MQMQsXNrpOhCwU1GOGUvokT2H/vVuHobcTMRx3EkS8FPxnZk8wcd11X2HIAHFm92LEsidOFHmZj178556VKN3IJM72a6+4GJugyMjIgGW/YoQO5R+cmoyAF42wEYzQOgeAAA8H21UtX7vdVyOjxt9jl8a5fRgSrPwFEFtdxB2I9ePeKqjto34Z76XFfPU7BStnIMLRMj2Z+QKhc6TUHQn54Mfcefk1pXTA6lV46VY3UNLdI73jMX/UnNaqV+QbimoKJGOsZHTr+1qicI9ZMhwzOrcqRjtCBT/udJcgDedgAikcj/Vez/JM75F42IgJP3FIPheJt+gwAWGdfR4Xd7x8/TmZOA8wqM6pCo4/3HnnRcx5Gtn5pQH1fLCfUwO3THhDKcYCU7TDHyAudOOJHF63sGiu5yrFM9vvcf+ZnjeuLbKUaSk/n2hZ2k1xgm0/Pnph+Qiu+UmeuTJuyvVT3h3BGZHMRnYYAr2csByQF42wFgjP3ZmAMghHgXAAzrKRyHofU6LjvHdNecd7eOzuC38xyza0fL0DgZevXx89jwts86xk7PMEiPBrjvO1I6+56LOxzX00infSemS5FNtr5lp3PurXrFVT1lpwLGzjfZl6fJ0jmm5pW91v3xFTtc6VtW3WQ+5/DpC9IdAORhRY3cXC/kAIw5AENjUQAVL4BzflmPFBgz3qiTtnocl8HpPRsniVl9hpXrMMaAXjmJOIbD91ZkNrpGPWlSLf/Ipg+4eq66PJx4p362433WJUY2/5E0uVDGoT1flSNbnCWaduss+3NHT0Ohq3q+sH6v9M7392uD047s6kfm9UfPyF/mtmx7sSt9y6yfrGfhhEbZI1HoAGC0QVky4nPIARhzAOoVuz+2BYADemAP5n/fdcc+tFf/TVPW/ALFqGGUQb06JOKYmyV7aEyNgvTIzKjoZgKaFlOc/a/oQc72OsHbzgVGn6P17W51ntBJ5xMMZrSE7lZXdcwsOCHdAcDO9/g5uW9fWr4kw2/MjIhYyPz3MtZ9IjF9+OWtUnFCzF+TnCKZHIAxByB/zPArOwDwmh6BhnL/znXHPlB4i24nx7sahch4l+vnKwYHl2Xp1cH/Y8xVzgOzZY1De78tDS/Eza0BUrCN1WZIlQtl6z21KCD6fKvh4EoWhWsytjImO8oOB6wYu1+8slU0tXUECn+Fa35tvYh0hxkF/ZLfz3IWbzko3QGYsX6vVKzIARhzAFYqdn9sCwBP6hFmeMfnXXd6Zm/mmNFPRmeqPEM7c16vTl4fc7s0LnY+zZD4uMZeqauMLU4slIJHpE2MbHqvVNmMRo6kyOvg04BsJ2fw4M2usceJUvcskJcRUHEAcPvEip0Cv4MnCu9El/vLV7dJNWo/WbQpZbHcXnxKKlbIPxxVkMkBcgDGHIDfjRl+ZQcA/lMPbBnfds0mdPWeeVWq0cCZ93r18PNYf8lDzuuUedNo6l8jefuPPub82TrD0D31OdLwwrwMMpySsWekv0PwzuDES+87OVdq/fpO/F4K9m/sLpHe+SqOAC7xwtUGRnxM1eNY5ykzN0jFFVcUpCpeVXUNUrFC/t0ya4PUlQDkALzlAHDOb1Ps/tiWc/6lCeRkXVK+eaKRn/Dsa29gvOOSwG+hY52+jpGyc07GsKqRrJaOY64DF+viMXKeWTl9lfOlYYW4qkM0m5Vr5ZzsIDkoX2/1G6Z4WJFL1jUY8dAOF+NdG7sgJ/DOhSvNnkzCUpyAWRv2iQhjgdGDLH2aPef0BfkGDecUmJWZzOeQHz+es1G6E3Dxaos0zMgBeMsBYIx9bczwKztCiJsAYERNQkxDG68Ts3I+XkeH4WGtPMfqNdGmMmmkUeNhZR/fqK3KqXdd79kVprLHata6er62zL6Tc0zLs1Jn5Rre1SR1TgfKOpj/A2nyKXI63Q7u+2ep2MtMxvTcmlzpna/iAOB2+ro80djaHhhdONWh1ft2l1RJx7Oo8nxK44fzRtSckbEvM2gSOQBjnwD+WLH747YAcFXdQKKNpVI6vJ4rB02J33dqoZRyFOPWd/xZ0/LUdZS97yooTvoNgndeNpVddjrl/tJfmJZnFx/ZczpGsz26nClvtw5G1w9v/x/SeDqy5SNScce1+16EZFV34pgRr6SqTqrcRlgn+viyHfLT/6Z6lEUvnFCZSwHJARh1ANg4o6/+AQAH1Q2v5+JOKR1etNU8rjMu9xJp10kpC50ATDCjrodv+6xbjGR91HE9cCQknqzRllOOn684SOotphiOV6ad8xjYRv18Gfs4+c6ODJ5cy7qFSH+ntLoNHvg36XXyIme92gHAfVzvvXJ3ieiOpPa8gN+u3C39bTZVEgAZtS8vVgIgp43Ks3ucHADAORUn1DZ/3D4AvKEGNXZutZQOD5f7qZ+rtz+0539LKUsxONGW03HL1JPDzTG3iZMw7HLc8kfXok+ShhUOa8ct08aMedlzOlCfGGNApoxOnuU2rbPCS2Xbd+J56XXCGfuY0EdrtL34jSsETtUGZ4KmE52a3XOH5ARA+H3crLxUOLcm96h07mGgK1nYkAMwOgKwbpzRV/8AgN+owZYzNH/dhDwA6jKU/b6KGdKMGnayMr9tKzLG22I6XKWDd7KNtp61RHYM4OPk+Xr3DHkwWjKU9w/S5EOZR7Z8WADrtoRNPB05PS87aJVRpEen8in34XdmLwy+3jNxNODFTQWiPsXWtnuRZEn2kjZF30HaBn0pIDkAow7AE2qbP24fAH6gJlR/+W9dd+S4Nlz9TKP9aPNJ12WpDdxQzv+xVK6RPLaPj6Y4dh4O144hxhC+6rq62R/WSTpku+6aEYK+Uy9Kk0+pW8+l3f7qU1Mnqcsvca5HV7Nn9ZGdwEbP+KuPYbz8VTmloq0jNWIGeJEBEL+Pu21XQb//0En5zqfMpYDkAIDgnP/TOKOv/hGLxT6pJtnA4Qdcd+S4JE79TLN9zBmgdPjut9cJ3u7frNvYhSxXstuZuIgBctzjc+0zQuZNlvVjpjv1OZzdLnNOB9a1v2SadDnVMsfbH9wnD/PhXX/taV0amtuk57BXG3yj/bvmZ4w6Alh+PDyDfH5rUaX0UZQ/bHGX8yHIeCmyebF0ErnWKsmxJAdgdA7Ah9U2f8I+ALQqCpWRrAcjCSrPi7ftK/+dPMOGa8hPL7ZcdjzZ4p0fOHSHK9lxxUW8MpTzA4d+7KosrfOAWQaVZ8vaDu35G6kyejFSYaeuI1v+WFp9Bg7fLx1vbV0KT56XHsjGyPBrj+NbG04IO3vpquf11NZbxu+0/eXSHYC1eceSEgs7eF5taZeOG3JLlkMZdgcAE/5NMPjaAwCwR1H6UN43XXd6aAiU58XbRhtLXJenNm6+hZKNtAs3WfpweVk8bNTn+48+LhWneKs01GVb3cfoj2pdyNjvaSiyhZNVWeNd99aIhryJl71nX/OlHvvLq8XNM9Z70ilrjb7R7+fX5iXd0sE395RKx2znEf8nJcfjtezzDGA0ep8RF5wer2uQ87ks7A4AAGzX2vsJvxljsxRiyPjWPLT3W7Y6O5lrrcVoKFnzdfVKXd1s3caI7z/6S1sY4WoBGQZVeYYX+ROizSekyoiy9pc9ZQsnNzpV3xur3SS1LtFm/yLC5R0743l8ACsd+6PLtot9ZdVJEVHw5W1F0h2A/OMBy2ypmeOi5rubfS/yUsgaSQq7A8AYe2GCwdceAIAfKQSQMewZL7StUpaylTrZCj8DnFnuudEYKJziykD0XN5nS8ZYzTpX5SmGX9nG6rJtla/oKt52eOcXpco5vPMvPZEzXj36jj8jrR6jKxo86nyN6rGr5LSnoYKtOADKNdOWZokdh08FOr/Agsx86Q5AqkcBVLh3/yL5y1BPnpfzEhd2BwBtu9beT/jd1dX16VFlsogQ6de77vjwe7VCDivbniv5rstUDBtuvQi4Mq4e3a2usuCNZP2JpWWS6jJ76vdKxcirePv9Zb+RKifqE1eLqLHwY38w//vS6oGREv2QWVvGtmL5E9sUo+5ki1EFMwtOBHLlwPR1e6U7AKVnwhFBcdrSbOnYHTt7UUqbCbsDEIlEPjvB4OsdAIB23nFRSqeHCVS0nZH5byZGsj8ppexRRyDj3Z4uuXL7Nj5QPNUmPiAwyJHayXG7j1nuzHUyFkPa1nXRq8VS5cR69lXMtCWDjHoNb/u0tHr0HX/Od/kVDLKLTiZ8ToDWWbhrfrpYnXs0UHkGfuNBFMDj5+oTpndF/35sH5GcQhn5UlRZKwW7kDsAET1br3uMc54XbTwmpdPrP/aEbeX1y866dm6NbRmsNha3KyVw+aDVssaui7RJ0Y3iOHiZQnl422ekyup3fAfe2SBVfgyvPaZHnz8FYLn4NjX1xUzpb2law273N0bK27CvTHR0JTbgE2LkhRE7dSF1oyaq+YwRIu3qPt71ByTNnwi5A3BQ19jrHQSAOT2X9kjp+JzkPMegL4pxkrEdPDjZk04Xg7mIzJscyzqy6X0CIh2OZBvZ/CHH5WoxdTIKoW70ZvuYbEhbnrvfGN9BzhuBmdzKOalcxEmpHgYAUmSOt73S3Ca8iHUfryO3ch5DGe8tsxYRM149nZ73Ipxy9aX44dCdyhuk+7zgVU6peS4Zq/UPswPAOV+iZ+t1j3HOp7gd2lY6+d5TC+0bOEyqI3Hd9Wg0woj84CRuw8MOHrzZPjbX3hplTrDDb9xWG5Hd62TPV0Be9Z5e4pm82vrh5xGFy263fo9eaOui/t0dYeKN3SXS39asGHkr1zz1xi5RWStn8pe63lb2ZecBwPrKWspmRf5EXuNJRsDiSintPcwOAABM1TX2egdxsgAG0XHb4Y121g7XPA8U3yOlfKUOsdpMKSRSN67BA//uSsbYuVWOZZIZmW4o9+8cy6HGQ3efRcRI1sdc4aToUNkO7vsX7+TVDMvLDLqEobV1MdKU6ec1BytqEhI10IoTgLkGMKBQS3unb7jhWnYv0ipfaZL/AuInT6yWNWO9/AmUmw/KWTYbcgfgz/VsveGx/rKnYkqH62YbO5/mqPHGLmyRajRkZ5TjXVeFyHiXcxkzbhRWsiQaNTy3kQfVOh3e8QVHOjKSTXscI9+py3O97xI7rXxmv4e3/ak02Xvq8zzF2aweZufw7fSZ1TmBHQ3ApWWlVf7Mosd8BlacE7vXpHoqYIVfXuShwLkhyvPdbEPsALQaGnqjE4MHpzS47qjTJomeizucKS/SIUY2vV9a5zuy+Y8EMHnJSnrPrnAlm9u3WJxcKUM/+Ayv16bH6rZLk1WpM35+cdMZWLmXt56VJvfofA/m35uslfppr8k9ekbcsyB4EwTR2OJoAOaG7/R4kuDlpjZPHIAgTG7U6tuL3ws3FUjHDxNNyZA1xA7AFiM7b3h8sOAHRUpn62bbc+WgY+W5DbCjlbvn4nbHsmgJOLj/u66Mg9vv2DK/TWO8B0/T7Y5mSpQ3aRH16tXETrWee8++7krHav4NHvieNO6pZZS9j2+qS7IKAxM4SPum/YtXtoqqugbPsGzwKJ69rIQ2svUt+3nzM+QHUZKVRyGsDgBj7FFDQ290oq9k2uPqDszpfrSp3HFjlTURUZEdsxvKIDzvvCxE+jtdGAf3M9l7zyxzUf7EuPYY90EGNkbPkPktHfX51sTOdm9lLrpbGsYYvtkImyAeP37ukkBjqzXAQfiNyYbSDpQL/F4vG7u2Tm8+AWCiHNmyBvF5szbuk84Z1LWMuobVAYhEIn9jZOcNj4uKxz7k6ht32ltGhrfVOFYe725xtcxOMfzKdiTr4wKAOZZHIWFv1cuuDMNQztddyxA7v9GVDAomyhbjPij182KLc0GUsmRtYxc2eyqzzO//XuPrhc66IxGRfuC4uGNumvROXYYjgcPNuJpBZt3RqZAhm/YZlxrlZ9yUWW9Zz/r92jzp+NEkQFeOLhNC3GBo6M1ODO3+X11uO2u3654xl4BbGdT32427r9cwMMug+pl292VEs8OAMnbLNbu+pz5Hakc6ATcMmewiZoKe7APF93oms9Tv/9mf8EzOCTh78Fbc2Noulm0vTlh6Ya0xVf/GsL2yv6/fNnujdCN2/nJTUnPAKs+eXrVHOnbbi09JwS6kIwA5Zjbe9Nxg4Y/263W8lo/ht2WXb9wyv8Oi3BiYxiqZ9a7j7XVCpN/gyvjKyAaHqXEt6+HaaIzZ9bGa9a5w0cNKe2yw4IdSZR7J+qjtPApamYx+Y34EM7zsnBs4dLvn2BrVQ+bx2ivNwotZ3mqD7mQfQ/fKXCroxURIL+ctyNSx22c9+fou6Q7AntIqKe0npA7A06ZG3uzkQMlD0+x0dNprcRa/W0KNhmJ19b19/PduDE3rRqbeU4tcGQYM4OOmfOXeaMspV3JodeV2UqIil9m2t3qlVJmxDj31uVLw1MotMw6FV8mWtDL79bvi/OXARRL85avbBEY4lIHBT/+wRboRQ8xkyBb0Z2DaZydOnNk9+8urpWAXUgfgm2Y23vScKJ/+npHM9zjutEey/5sUxQ3u+yfHMmgNHf6ONhQ5lmso9+9dydJf9mvHZasb/+hERAtv9nr11zvWd/xZKXKpZdTuvxU74UZX+Gllx/TR2nJk/B7e9llpcvL2857IKKOebp5RWHFePPyS/OxvZsbA7NyDS7LEhSvNrrH2YvKjrIx2bvTlx70Pvyx/4ijyTIbsIXQA+oQQ7zI18vFODuV8rV3b6Vr9Pbzjz6UoDt9OrZZp5br+sqccyYUTGt2mSO5pKHRU9oQGwLrlYlLykBy54nyDxvgHVnRk9ZrhXX8lXW7eVi1NxuGdfyldvglciIO5l9fjJLysQyfF3fMzpL/5mRl7o3MYNKix1Vl+DQWnJ1+Tn9Dm8OkLKc0DBTsvRk+OSMIuhA7AoXj2Pe75/sJbdlvtjLXXDe35qhTS8/YLrg2vWrbhnX/hSK6+yvmuDMPI1k85KldpXNotLoVT18vN/kDhLVJl08qq/O6tekmazG/V1/2SSkU2ZSvz+39/ycO+4KrInqgtfoN/bdcRgUv0jIyzX8dxJrqbJYLPrJIfFRFDLidKN36WO3XhJun6Pynp80nYHADG2Ky4Bj7eBQOlP7/bqWHB2fKyyIfx6p3KoXefk/gEuHxP71lWj2GaY1l44HNGsj/pSh613PiZRaZsRs96axLl9dLkxjr0Osw3YSSjzO//GNLaqJxUPI5D8LM37pduBOw6Dxn5xx3j7kU8+7xjic1w6BfXbvdgyaisPAphcwAikcj/jWff454XVdNvHNn0/hG1sbC6P5j/A8eNUEtYqZHv0iaJvhPP25It2npGiLTrXBku2bngcXjZqi7iXTe8+8u28NDqx85vt/MotHWRPXoxvP1/yME1/Z0CY1nYwSZVrsVhWy+Gg606AlNmrhcVNfWOsPcimp0bhyRZONHe2S3d8bt5xnoRYXJiPYTJAeCc9wgh3h3XwFu5YCj375q1na6V3wOFtzpqgHqEf8sAj5/Rb0UGo2uGdn/Flmy4dt/oWVaOy85FgBjJHBWR/XlCT4fKsb7Kea6w1OI9suUjrpebKrLxtnPSZENHR3luGLcYVe+VbUUJCyuMDoiTJDwYCtmqo2H1ule3F6c8FzDWgVU8rF6HczpktZ0wOQAAsMOKbbd0zWDhrdnaTtfK74Giu6QpD0mARttKuVavQafCKrnclu3FWnCML2+1rnGvy3i3ZSysYmZ0XVRikh2lXj0Nh6TIL3OpYt/J2VJkMsIxWY6XVV8S05ZmSTcOVozIrA37bOsAkw5Zebada2Zs2GtbjmTRryLn0TMXpeOGcQWU57vdhswBeNCScbdyUW/pE99ROlo724HDP5GmPFQ+DtvbKT/etfhZwQqpoi2VrsvF0L1WyrJzDY6wxKujnfN+Dle7dai09bL7SccIZ4wuqH2209/RFjkBTIxkTabjGK3PC8NqxQjvPHLaVtvLPnRSuiF7bLm8RGRB1Ttmk7SiDzvXzE7bb0t3ZtiEyQGIxWKftGLbLV8zvP1zfXY7wv4jP5OmPFQsTtyzK4PZ9TiEbkYY5ZxrxyPzJsG75ccCHzjyoFQ8/DRYrjHVxECQNdwu6/u/3U9MCtdSfYtGwu+VAg8s3iwwr4FVbHH+gh0jZeVaXCZptfxkvQ7zRljBws41y3ccloZbWBwAxtgJy4bd6oWDB39w2MyY6p3rL31EmvKURoGxBfTKcnQs/XqBSwyVZxtth3d9yVWZg/n/L24ZRmWbHcegQo7qrTGeyjOkxSiwsC5dtjOH2Rl5l7t46zK///edmO6Jzs34kCzn8JOA33EDdpVYHwWob2yVbsjQ6MnOWRA0fWO+CDvG3cq1mQUnpLWjEDkAM6zadcvXDRz5+U8UQ2F123/sCWnKU8gu2+jFC4Erw1D1nlkuHQfEo69illQHIHYhyxM5Fd1pt1KdubRJInY+3ZX8Mr//R5tPupJFi1Wq/ca8Ag/5GEUQ5yBYnU2OMQS8SAhUk+IJgbxY/pl/4py0dhQiB+Drk9MhuAAAIABJREFUlg271QuFmH79SNZHh60af7yuv/y30pSndICyk+DEW//eV/47d0Y2/QbBO5wtR1LqbLR1m5ZYq0tMvGRUlhfH+4896Q5bzUjGwOEHXMk/UDxVijw4YuQFXqn2TJyh/ysPou4ZvVnaCcfrRUx7WRHtgsoDLyIo1jXIW0YbEgegRQhxnVW7buu6wQPfrdYaDbPffcef86QjHN72aSkd9ajsOHTcecVQzuEdX3BV1lDePxg+221DjtWscyWbVnd9J+d4JqteXXHmvlYGN7+Ht/2pK/mHt39Oijx9x59xJYceVql6DBP43OdB9Dg9JwAjFVrF0YtYADsOy0lra7UOfl933yK5UQDvnOduRE9b/5A4AKtsGXU7F/cffmC6nQ5aRt57rRLxN6b0tSNHvGuNIslFrx5xXU5f5QLLnY5eXc2Oxeq2u5ZPjU3/sV95JqtRPYa3/nepdXA69D6a50EzoqDGxs5+tKnMdxyN8E2G4ydq6n2ZGDhtabZlvazNOyb9e/bSbDlLVYOo04aWdul4Pb1qj2V9WcEkDA4A53yyHZtu61pR8diH7GQHxNj5VhRj95qe+r1SjYbRJD0ZQ9S45t1u/axe33PloFQccAmc1bJlXYex8u0Y13jX9p5a6KgOvdVvSpHDaZ4JWXgm63NwqZ7eW7vsY7VXrE0U3Vt2Vro8mGUwWfUTT27MdSBbV6/bGLGJJx+eD4ED0N/e3v5+W0bd7sVDud9ojNcJK+d7Ty/2hvAsIkayPialwx6VNePduiFb3aaEHfI4vG60uUIeBmmTxGD+f3ijL5NVAT31uXLrcODfHNVB1vf//rLfOCrfSgeW6tcs2nxQuhHRGqWCE9aS8py+0CBdlskvrHMUmTAZ9P7mnlLpeMnOn5DqDgDnfK9de277+oHie95QDHy8bW/VK551hgOH75dqOGI1a8fJKuP7tNffgnnHRakYDOX+7TgMfOl4Rp25j0qrB2ZIhIj9dLCyvv/jZyNfcDNxqpK1fFwZMHnGeumGRO0EbD5YYUk/GNceDbb6Xhn7RZVyctsHTce/e3OPdKzO1Tda0pVVLELgAPzctkG3e0Pf0Se+INJvsNRhezmrXPb378GDU8aRrf/oo5bqaOYERRtLxj3TKlEtXxfpcC2jWv7hHZ/3Vl4DoyXr7VupS8+l3bbqEW05LQVHdCIs684Ai7DfjyFzZRhao2cssxFYBuPQGz3H6fE3c0pTjiO4vPLHczZKxQqfxyQlAVLaVIo7AIOc84/ateeOrh/a/eWI0tmabWPnVntHdtYlRjZ/SErHjXUY2fQ+AZH2a/Iy4XZyGn4+UIjn5VZk3iQPg6yP+iKzFo9YXba0OqAu7cafwLkqZjy2es5uuVoc6DcIXKrn1Lhauc9OboDn1+RKl+W3K+05p8nAiao6+Z9LEHvZdU9xB2C3I2Pu5KaBotszrXSKXsS/V5MCE+xYkcPqNbELb2We6rm83/VzvYiCqK67sj+S9XHXso7h42NCIEX+0W2kQ4xs+oC0ethNbTy099tSypaVkGgcNiEcKfBiDb7iHMxNP2DZsODnAuU+WVsMMGQnLHEycGFbcaV0nLIOyQ+klcoOAGPsDie23NE9faW//jyGXh0zHAbLpxSD6hWJMfJbPBnsnB8ounu0c+gvecj1c3Glglf1Vj9XdjQ9YJ2+yK2uA+7LTWx0naUQz1gu77oqrHA5Ho8wNoW2TvQbHGHy8rYi6QZFMeB2luLhnATlPpnbihpvAoMlim8LNxdIx6muodkRd8wwSGEHINrU1PQeR8bc6U1Dud9oitcp4nd6M4W4PhdpE3aWJcaTd2TLhwUawJHsT7hyAEay/kQAs558xA0OQzlfdyWrFhOvohbGq2Ps/Aap9eitfsMS92LnVkkpt//oLy2VFw8HOg9iw74y6QZFMeAr99ibl/Pwy1ulyyJ7eVsiOdPVHRH3LMiQihFi7kWdUtgBWO/Ujju+r//wT+ZpjYf2d88luYEc9EgxWPAjKR24Inu/29C/aZMETmrTk9WLY4P7vyu1/jghzgs54z6zu1WqMzdQeJulegwUTpGCX89l60PLcbEI4bC/GpM9pVVSDYpi/HGLGevUZcXbf2N3iXRZ0GCi4YxXdjKcP3D8nHR8vHKQUtUBYIx9z7Ehd3qjqJr+vpHNHxpRDKfeFr+le01iWW9wY/Jb+LQxdq3hp48tntdbwRVXL8STx8756FV56TcVGa1uBw9OllaXkdEJjcxcD6MTST/ousyR7E8KgDhlhdyoW+UAXldSVSfdqChOgN3kMpi5ULlX5nZ/ebU5N5OEL79fmycdHzs5G+zwKkUdgFYhxA1O7bir+wb3/2uVmXHxI70spoAVGe9y3Ymb1cPOufGrCZx9A7VDatnxEDAwj53yZV4rO7dBtKHItC49l3ZJ4Q3N/pfLcy+C8CjGG3MP2OEsLnHzInXxM6tzbMlhR2a/rr3c1CZulhy34Y556Z5NkkxFB4BzvtSVEXdz80DJzx8wM45+BUUZ3P+vUjpys7pYPYdvsX41QCwHjY9V2axc5/XETTNs+OhnAHnLGvtOTDfVhZQwxOnXi4R9NkmSt0Qzneud8yIMLzoADyx+a5WPXplmxxZukj/JDYMMeTHRzawess+l7S+X/vaPEwply6k8LxUdAMaY/NS/dpyC4W2fGTAyLNGmcs+UqSgVt71nXpVqBI3qY+V4b/UqX+qs1L/v+LNS6+63/Eo9lK3MOR1De79lqgvMHmhFp2bXDO77F9MylHrR1vooAX4DVt7YZW7tLAFU6wuH62XKoTwr2YMCTVuaJR2XivOXPWtPKegAnLdjqz25dvDg5ANGHWS0xZ/0l7zjkrAandBIVinHM24UvEtu+Ep1R6S331cxy7URU9e99/QSzxqgnvzaY7Fza6TVZ/RzjMFqjGjjMSnl4FJUbR3ot3Vjr4eVF2Fl0ehaDQOslam1o8uTbIVTF24S3ZHknDvixdyIx5fv8LQtpZoDwDn/vSdG3c5DB0t/9U2Rdp1uZ8rb/JvoMpT3j7oyqI2b1/uD+/7ZUwJrOyb83XfqRan19iqFs57sesd4d4uQGd3QKDUvfh5wy4eR7P8mgHX7rnM93FLlGAMQt89Nk/5miQ6Am/X3z3kQFRBlyvYg4I0fXHh2dY50He0q8XYFUqo5AIyxP7Njqz271ig0MG+v861z7Du10HWH7tYgJOLtubdqqdR695c95ZvOjDqqwYIfSquTUT4KGfETcMmoUR3ouLNRgJr6RumGBQ3tLbM2uFp650W0O5Tr9jlp4uLVlqTi0e4S+cs075qfLjq6vHWmU8wBOOCZQbf74IFDd63RM568s8E3YvO2c8JoJEJPNvnHMPqc/5m+es+ukGYsEZP+kmm+6czISGIOCVn66T/yswn1QcdUpF/vroz0GwRyzqgOdNyZA7DSg3X3aGiffG2nK12hcfJiNQDKhqMLycKXhuY2gcYa5Zb5/9ou77NoppIDwDmfYtdOe3Z9tPTpj41sev+EmAA4q9tPYg/lfM1dp26wrt+KMcI3Sj/rqpQl01hiPQeK7kxIPZT64JZ3NUv7DICcUD8b93vPLHPNk8H8/zfhudpy6Lc9JwC/td/h0fD/mtyjrvW1OveoVKOnNqBeD3/L4uKsjfukY4ArIjDssiwZjZ6TQg5AkxDiHZ4ZdCcPHjzw7ye1hhJYl+dKVSsbv19rZfDrd1/FDF/rqtQ7dj5Nap0H83+QkHoo9VG2g/nfl1MvTHCk4eFg/n+4fjZmMFRkpa09Q2+EV3r+cenGBY3s5BnrpQyzX21pF7fOlpv2VnEC7pyXLq402YtRYISjV8e9iPqH9fdy6Z8ai1RxABhjLzix0Z7e01f66HfHD8Ff53sHGW2pdN2xO3UYos0nfK8vkjt2IUtqnYf2fich9VA3VNzH5YhOdaG9L3q1+O06ScgfMbztM77letDikqq/MTTufQs3eeIAYLQ6WbhhMiHFaMveztjgTwIxJ1g0t3WIqS9mSq87ZkfEgEJOZLJ7T4o4AEOxWOyTnhpzpw8fyvla+1jnm/EuX5SqJcHwri9JMxxjdYnzaWB4518kpK5Yd1nR7JS6Du35asLqotblWxEe3y1Fl71VL43VCQMdKXV1uo0XYEhdD9q3Njqw88hp6cZFMdAHK2rG9O9WHzhUPWXmBs9kXZt3TJqsbuuq3I/zH55ZJX/WP+pn3V7/6psiDkC2U/vs+X2DJQ/8XulUR9dgJyBS2f9v70qg5KrKdIgBAgoKw4g6guI2B4/KjCLIgIrLnEHBYRiRJSoIUQRMUCKggjLIFggECTsmEiUhne7sCSEbSWcnC9n37qwd0vSS7n73v6+q9/4nf1GVUxS9VNXb7nvvyzk5r6r6Lfd+97v/99/77v3/FheS+WTqkO+xdc0dgXXaxIEFjgUtu56dMz8XWF0yBidzdCvCY9vyG47WqW359c7wKjmW/dzdksEin2NlVfXReuZzvinnNFkW3/rUVE9E9YaR7u+19ypQUcZhMckJaGhsSi1SzJTNzePgkZM8X/mfzfEoOAC2bX/XcyEv9gHM9/XvnHZmKjJgKrVuAA6AfegNZwa+j9F+tlhmPvuR8yCbyNmfEweXulpfSYWcff8gP7dsetSVuh2d1ZBUz5NOcXRPv0M954v/vkO1qa1utzw1NZXxTlZr53tt0Oc9P3OFJ+IvYiUL99yunyxWlCA+boph7r0kbbFSwQYJqqlv8Ez8pb5zVm9zvW16a+sIOAAVzHxMsfrsy3Xti6+eJsLYNeUjvjZudsN3zvi0IyOfEfZ8ju9kgstvmjO7jG59tg+tcrWuXWXvD6zdcjFxK1qf8EHu7cZ6CXnlkltOE74/Ne3d76avfGAci8FbsrGCJaGNCWXsrgxehdkVgXFr8V935fYyZXHGGZDtgYdq6wNpu827q/imJ90P9Zup27AXZrEEfeoOW69+i4ADMMwXEXfykOSaYWd0lZ7IndM+7mvjZpOmdfXtropib45A68qbAqun1Nl+e6O7dS0ZEGh9sttRPsuMRG/45/O3zKxG29JBju7VOfOzRmGTwSoz+s8Y19zjdSNK+ckpS3j55kpHwXAyz3PrKGlfvYr6JxiIwXerrLn3EfGS2AK5WLv9XabJpd1yn+/Vd3kdIyGTvdrtIPhc8/ArvGOfvyHTBa+QOwBJy7JOcaLNvl0raYI7Z3zKN9LmdoZEVbkjQ5+PqGTOSez1Nn51bt1yv+va7a7X1aTc9k5FW9qpq+xkJqs+dcy0WzHHlo3DA+N0brtnf88d/fcmQpJudURpOS9av9PX96/Z5RXxnLDwTddTyWbX248Ie7sOVKci+WU/16vPsghvU2WVZ/yT1w3z1mzzdNSfwUayPWbzwa/PIXcAxvom4E4f1LJm6A86Z50dSCO/QybFMjVfjJEv5JquSR96zx5zv8iceU4qql0R6xZ6q6eIZeb+QR+bd4xx3o4lA1iS9vRW5z7/NnEg6wbvMpUVi3Nfo/+M0e3uKKO8u196jWXR2epte1kWfBVbjnyvExG79x/zPB85T1220fO6SJ29Sl3cXXtJwJx7/z6X563Z7przJmGIJa3vrU9P87xNpE7PzcjakhvyVwCSEEnyS3j+v+IAHz6szneqy75e37bsJwfyNQpenCchYPs06g6Fs23pNb4Ymd7wkeyDbtdTtuD19kw//6brd7sS4lkCHDnBqW3ptcZgko1/IaP/7kQl+zeJl/+7MbNTC+dWbtnNsvc7+1nFfpZtZBJERu6d/TyvPv9+zGxf3y8/PW2ZL/XKxktenYwoXcRTlm7kdTv3cX1Dfs6bCH75hl0pp09wEqci+75efr7zr6+yvGIolkdOr3N7BsBLrLLvPeyFmY2+ircbD2uuLBvstMGcXJ/YN9uRwc9HLJIV4wMj81FsrHrX66kP7w++XlmjA1diO5Qc6winxIHXjcJE2t/J6D/bwPT2WSLUSZrWhye8zhKnf8byzSzOwe6qt/lQ7WHef6iWKw5U89Y9B3n9rv28auseXrqxIjUylpXsYvS93DefW3aZ1ZDyHO0fWTzy6jcJYiQY5ZbFz++y4HHwE5N46LPTWYT9/nHz+aFXXud7xs7hYS/M5JtHTWV5/eNnmbKfdf1jpb4F/OmpncPqADw/Y9lv3dBkX+8h2xWIaHNPjeH576qJuyaf5sjo9+oElJ7Afuc66B4z5Xodg0hq1H3d3lkl3LpqqOt17LVtc2aGOuZe6Kug9IZF9t/cHP1nG+swf5ZwwtkY+fV5f3WtL+/Pw9g2sh5Dpsv9aouenhNGB+DXz80gX4XbzYdJxqKeGsOP39uWX+eZcLQv/H7ghM5gyBOPc7Wedm0wi3Qy9ck9JvdMc7V+hYi/nBv0Qs9cPOS7H6P/sImNbC0LcsujtMkv/jI5sFG2ie0lmQM3VJixdiaMDsCz05b/yU1N9vVe6VmALd0ZMD9+S+6e7JlwNG973hgHoKvsJFfrKVsL/WifvJ/RVMs88XhX65ivE9Ax53yzsEhPaWP0/+531zL1Lcl68uaUR68G5B37z5+YBCfgzy+ncgds2/tW4G2S4UTYHIAhz0xL+CrYXjxMa/2jTAP4frQOs9vimBIOyQVv0Htyt191SAAe39uqD4PcMf+bgTgAJmb9ky1bv35uBkQmvYBN3nG7tWDRDd7L+oi4OwFSf9NCU4fNAXh6+rLhXmiyr/dMzwJsdaNjFXOPtiU/cl04OuZdZJRAur3l8V3Z8/oQ5mLapJhrJAFPvqN2t87reO3LRrVzNm5NlkoFbBk0fEKsHYG7Rs9mCc2bjY0JnyWCn2yxNHFa3usySThqWRxqQjtklyFMDsAtT01tvu8+7u+rWHv1MK31VdkN4efn5K5xrguHxKj3sw59Patz+lmu1lECKfX1TL//ntg7w9U65uMkJCvLjMMhF3eJ+S/51P3czuW1gOR7fwmOk+/2t1zc/Pgu6xG8ThyUL1Z+nvfTRyfy+AVrjXPMwuQAjJq29Cmv9Nj3+zJzfyLa5keny32GbqphLj3BVfGwa/1NYpFbp9zvEnQpH0HL95zEfvfyp+eWtdjvgnm+5XfjvM7Z5xgv/tlYrtu5P/CtaH6KzH0vz/MlcFE2xsV+lnwHshLeT3xMeJZsIZUgU6a8ngmLA3DTk5Nby8vLB/gu1F4+UGt9dbEdyOl17Ysuc008TBSGjtnnuFY/EU8jE94oi3niQFfr2ZujkKyYECoHQPqIrA2YuWJzpLejyV52iVUvr0Cc2gU/r5cp8UcnLoqdEyCOiAQtkpgQQSU2yrRzWByAv0xZPNpLLQ7k3ulZgO2ZxvDz2Lz9r64JR8ubdxtneDrmnOda/UQUZdudn+2T77PcnunoyQGQwEMm5UPIF5/MeTL1vGjdzlQQHhNGgm6UQQLdSEIjE1b6Z3Au5ihR+25/IdigQW60RzH3uPqhV/iFWSu4KqBU1WFwAAY/Mal9bHn5wEBE2uuHaq2vKabTOL1GNxxkdhgJLiMW9qE3jBPHjnnfcNcBqCw1ro7CATdncjLt2d1Rto865Zwp10t0vocmvJ5KjVuM0TbhmrtGv8qbPUyE43dbyUzNq29s4ZuejGfMAAk5/cz0ZalYFn5iHwYHYOSk8vFe63Bg9w9yFqB9wbcdi2Tn9E8aKQztC77ruG7ZQigLJ/3smPk+q3X1ba7WM7vOmc8d879lZN3zxain8/YcfDsV43/IM/4kfXHDcbhxZFkqQ11PdQr77+IILNtUybKeQWY43MAsTPeQENEyqyPc9KMtTXcAbni8rKOsfOsHAhNoPx6slLrWj8bOfUbz1lGOxaN11RBfiJpb9r6+ty+61HHdMgIox+YdLxlZz5Z197haz+w6pz6X9Gf7rZVG1r0vDhTyd0ljKxngZP+8aYIhkeNGTlrMSzZWsMTYL6ReYT53z8EaHj37Db7h8TLj2sRrjvzw/nH8eFk5Cy+9bEPTHYDHyhZP8UODA31GehZgh5cN3d29JW1u++IfOvpv4v54qatsS3Rat+zrE/vnetoRu2uffH5rWX+vpw6AhI7OpxxROkcWp01ZsiGVojeoleo/e6yUJbKhJBkK2+I+L7iwfe9bXFq+PpX6V96bey3AufeXVxN/+Ntrvm8tlVmQRyYuZKm/F7ia7ABcN6K0c8zclacGKs5+PVwpNciLBsY930meE1UcWjb82TMHoKv0RDYtCZLf7SipWmWR2rgFa1MCIO9qc8XB6fdU1rqRk1KpgZ+fuSKVJEamwv2ua1ieJ7MgkmGxZOE6fmLyYpb1ELLP3mk7ZK6XGYf7x89P7dtfsWU3V2elgA5qa6nEtHhw/ALevLvKVV4Ivxsam4z8X3e46Ta/9Dfw56RnAXaGpROinGY4Fi0bHvTMAZDXC2jnd7ezGEsRn7FzV/NjZeU8vGQhyyjq//4xL5Vm9ndjZvNvX5yVCkv8q6en8S9HTUmlpJWEOJKSVqZ1/z53dWrBm9xHQuQGmQ8+Su0rQi0CPW/N9lSKZpkxkD33L766kkdNXZracijtJZ9lC96EhW+mzpOYBDLTsqmyKq/V+JmtpdeNKHXN6cg4H/kcZX3Ehl1mpSf3gEfbmTla+/778jKUUj/2AEgYcUNC93rRti0bh3viAHRN/ZghqZ3fLcBeYIh7AuNiOFBT38DPzVzBVz4QzGLFP46dk3J4iim76dcopb7Xl15G7u8yC6CUWm9646B85hjM1rW/88QBaN7+IhzHCDuO6MPu9eEd+w6xhGDOZ/Tu9jmyViWCbTkncuKeb4WI6MIINmgUSWpEndoXfs91B6Bj9r+FOugP+o974gYs88dSAk3Jqx63Rb6n+w0eOSmKu0Latdafz1cvI3keEY1Dx8u/48UZq65pH3fXASgZwPbBZUY4N3FuV9Q9nP3/cGMTvzx/DfuxU2H68k2R66dKqWcjKeqFVCqRSHyUiDSMQDiNgF/tpg/vd1f8J/Tj1jV3RM6o+NUeeA76a4YDe9+qSUWb7Gn07vR3mWmI4OLRJiI6rRCtjOy5RHRnhkw4wrB0x4HE3pmuOgCdM/+VyaqHA4B3/+CASxxYtW0PexFpctbKLVFso2GRFfRCK8bMxxHRru4MP36DQyAcaFv2E/ccgJL+nDjwehSNCurkkpjB7hRndySQkyzWk1TATkf+cv3No6ZEMThUBTMfW6hORvp8pdQl6HTFdbqo42bXbGEuGeCaA9D6xq0QSgglOOAhByT1r8QgcJrjYM7qbVFsp8sjLebFVo6IZkRdzFC/wp2ctuXXuyb+ktBJN9VG0aigTh4KGvpt4f1WMJNofhK9sJjZgFufnsaS2jpi2C8qVh8jf51lWZ8iopaINXjUCOxrfeza7a6lcuYJx3Bi36u+lh9cLk44gFt0cFNEPHf1toITHS1YuyNqfbXTtu1zIi/kTiqolHoAnT86nd9RW1qHWdLzvidr34R+Rf3WtuLGqBkU1Aej/tBwoK6hMRWWOJ8cE0Ofmc7iODiyH+ZdP9qJNsbi2urq6hOVUlURa/ioEdn7+qgmbl/0g6KEvjuHQVb960Z/8o6Du5Ez3N7z3Tyx8qzOlVXVfN/L83t9LbBo/U7Pnh9Q/yTbtk+PhYg7raTW+qqAGilqpAtpfRS3LR3kmvh3lb2f7eq1IcUCYgpbEE0OLNtUwTePmvoeR+A3z8+I4uj/9051MVbXE9EidPxodvy+2rX1jVtcE3+ZDUju/DvEP0YjzL74hb+bY1ck3bGkOr724QlHHYGlGyui1l+3ylb3WAm408pqrb9ARO3orOZ0Vq/bwq7ZzG7H+8eWv/jwx2t+4v7ecanq7bpUyuk7XpwVNfHvsCzrXKd6GMvrtdaj0Om863TGYNtUy6lMfxMHujry75h7AZNqjJpBQX0wmxFZDkh+AWPskjs8Gx5L8Xaj0k1NTR8iopqIESISBJfY/KScdVZdt4ubtzzJndPOcFX4Zdq/a8qHWddHbioxEtxBf46BU++OeIad79uY+Xg3tDC29yCiH8BgmGcwWt/8A3eVncztiy7llg33c/OOv3Fi32y2q9exbqx+b8dVTazrK1MheOVaScMr+/K7W7Hv+LeS93Fi32vvLQOMEjABB8ABfzjQoZQ6L7bC7WbFiWgMnACznAAR8d6EWlbed874NHe++kXumnI6c0n/Xs/v7V6F/q1l48Mwcv4YOeAMnMGB7jnwqJsaGOt71dXVfYCI9sIJMMcJ6MsBKFS03Tq/de2dMEjdGyTgAlzAAX84sIOZB8ZatN2uPBFdRESdcALMcAJMdABaV98OA+ePgQPOwBkc6J4DnUqpr7mtf7hfv379iOhROABwALqbLWhdNQQGqXuDBFyACzjgHwceg1h7hIAEUyCiTXACgncCTJoBaF35Sxg4/wwcsAbW4ED3HNiJqX+PxD9zW9u2v0RErXACgnUCTHEAWlffBmPUvTECLsAFHPCPA/J6+j8yOoWjhwgQ0V1wAOLtAHRNPpWTlRNh4PwzcMAaWIMDPXNgpIeSh1tnI8DM/YloGZyA4JyAIGcAOuZeyLoucrnCYVx7Nq7ABtiYzIEKZj4hW6Pw2WMELMs6i4g0nIBgnIBAHICS/izPdRqBEJwJhjPAHbhHkAMy9X+Rx3KH23eHABENjiChTPZ0j5at5c27fQvsI0GE2hf/L9uHVh19PtodYgIOgAMGcGBEd9qE33xCgIhmGkCC+AmTauBkZSm3l/8P88TjvXEGSvpz25Ir2T60Jn74YsoXbQ4OmM6BZcw8wCepw2O6Q8C27dOJqA5OQHCjAd1wkJu3juKO+RdzV+kJjp2Bzllnc+uqoam8AmjX4NoV2AN7cKBHDtQmEomPdadJ+M1nBI7EBrgCRO2RqP560aqBE1WLuGXDg9y+8PvcOf3MXp2CrrKTUjkD2suv4OZtz2JxH0Z9/vIVeAPvwjnQadv2d3yWOTyuNwSQMMgQB6CHzqSbatmu3caJg0vZbezbAAAN00lEQVQ4UbWY7drtTFYdjE8PeMGhNZvPaJ/4to/W+k+9aRH+FgACEoGJiNaiY8a3Y6Lt0fbgADjgJQe01nNlG3oAEodH9oVAMpk8g4hqvSQA7g0DAw6AA+BA/DiglKoiotP60iH8PUAEtNbfJKJ2dND4dVC0OdocHAAHPOJAGxFdEKC04dH5IqCUus0jEuCdNd5ZgwPgADgQMw4opX6Tr/7gPAMQIKKX4QRgNAAOgAPgADjgkAOTDZA0FKEQBGRRoNZ6ncOGh6cfM08ffIFYgAPgQBYHKhsaGk4uRHtwriEINDY2nklE9VmNCUGHoIMD4AA4AA7kw4GkbdvnGCJnKEYxCGitv4VFgfDo4QSCA+AAOFAgB24sRnNwjWEIyAKOAhs+H+8Q52AUAQ6AA+BANDkw1jAZQ3GcIKC1Hg8nACMAcAAcAAfAgT44IEl+jneiN7jWMASY+QSl1Po+Gh7efDS9ebQr2hUcAAfy4cBOpdSphskXiuMGAk1NTZ8gosNwAjACAAfAAXAAHMjhQI1lWWe5oTW4h6EISBYnIurIafh8PEOcgxEEOAAOgAPR5IBtWda5hsoWiuUmAlgUCM8fDiA4AA6AA2kOyIDwMjc1BvcyHAEiGgEDAAMADoAD4EC8OaC1vsVwuULxvECAiF5C549350f7o/3BgVhz4BEvtAX3DAECzPw+IpoOAxBrA4B3utF8p4t2Rbv2ygGlVAkzHxMCqUIRvUJAcgYQ0WI4AXACwAFwAByIDQeWYK+/V6oasvtKsgfECIhNx+91VAABAA/AgchzYLtlWaeETKZQXC8R0Fp/mIgq0Pkj3/nhAGBqGByILwfebmpq+qSXWoJ7hxQBIQYRHYITACcAHAAHwIHIcUD2+n8lpPKEYvuBgNb6C0TUiM4fuc6PUV98R31oe7R9u1Lq+35oCJ4RcgSI6AKtdQJOAJwAcAAcAAdCz4F2rfWVIZclFN9PBJRSlxBRGzp/6Ds/Rn8Y/YED8eWAiP+P/NQOPCsiCCilriWiLjgBcALAAXAAHAgdByD+EdHiwKqhlBqCjh+6jo8RX3xHfGh7tL1wQMT/qsCEAw+ODgJKqfvgBMAJAAfAAXAgFBzo0FpfHR0FQk0CR0BrfS86fyg6P0aAGAGCA/HlAMQ/cLWMaAHSaYSxJiC+xgXCgrYHB8zlgIj/NRGVH1TLBASIaDARdWI2ALMB4AA4AA4YwwGIvwkCGYcyyOISbBE0puNjRGbuiAxtg7bxgwMdsmMrDtqDOhqCgFLqUiJqxggAjgA4AA6AA4FxAOJviCbGrhha64uJSKPzB9b5/Rhd4BkYxYIDZnJAxH9Q7IQHFTYHAaXUecgdAAcATiA4AA74ygGIvzkyGO+S2Lb9RSKqgQHw1QBgVGbmqAztgnbxmgM2EV0Wb9VB7Y1CQCn1Wa31ATgBcALAAXAAHPCMAzWWZZ1rlPFHYYCAINDY2HgmEVWg83vW+b0eWeD+GL2CA+ZyYIdlWWdBbYCAsQjYtn06EW2CEwAnABwAB8AB1ziwVCl1qrGGHwUDAhkELMs6hYhWofO71vkxKjN3VIa2Qdt4ygGlVCkzH5+xrzgCAeMRqKur+wARzYQTACcAHAAHwIGiOfAYMx9jvMFHAYFALgLM3J+IHkbnL7rzezqyQLugXcABYznQqbX+Va5NxXcgEDoEJEEFESVhbIw1NnA0MI0NDhjCAa11goj+O3SGHgUGAj0hYFnWl48kEjoIJwBOADgADoADPXKgVoKr9WRH8TsQCC0C6R0CK9D5e+z8GIUZMgoDR8HRADiwy7KsT4XWwKPgQKAvBJj5OCJ6KYDOBXGFuIID4ICpHFhORP/Ul/3E34FAJBBQSv2aiDrgCGCkBQ6AAzHnwBhmHhgJw45KAIF8EbAs6z+RSAjGP+bG39QRKcrl8WxJerHf9fnaS5wHBCKHgFLqM0S0HSIARwAcAAdixIFdkkQtcgYdFQIChSLQ0NBwMhHNilHnx+jK49EVuARnwlQOSGS/+vr6kwq1kzgfCEQWgXTQoOGmdlqUC4ICDoADDjnQqpQaGlkjjooBAacIKKWuJSLJd41RMjAAB8CBSHBAUqUrpc53ah9xPRCIPAJKqc8S0Ro4AXCCwAFwIAIceA1b/CIvW6igmwgw8wCl1INE1BkBAxCJUQzaAWIMDhTEgQ6t9T1I5uOmMuBesUKAiL5ORPtheAoyPHA4MHUODgTLgRqt9bdjZaxRWSDgBQKNjY0f1Fq/AicATgA4AA6EgANLE4nER72whbgnEIgtAkqpQURkhcAAYPQV7OgL+AP/IDggkU2Hy+vL2BppVBwIeIlAU1PTJ4hoKZwAjATBAXDAIA7sUEp9zUvbh3sDASDQr18/iRkgi2uIqN0gAxDEiAPPxEgXHAiWAzLqfxSx/CFNQMBnBJRSXyWiCjgBGAmCA+BAABzYjr39Pht9PA4IZCNQU1PzfiIaHUDnx8gr2JEX8Af+QXFARv2PMPPx2bYIn4EAEAgIASK6gogOwxHASBAcAAc85MA2pdR5AZk5PBYIAIGeELBt+yNa6/Eedv6gRhx4Lka74ECwHMis8MeovycDjN+BgAkIaK0vRophjALhCIIDLnFgq6w3MsG2oQxAAAjkgQAzH0tEdyGxEETAJRHACDzYEXgQ+Muo/2G868/D4OIUIGAiAslk8gwimgIRgCMADoADBXBgq2VZ55po01AmIAAECkRAKXUJEe0uwAAEMeLAM+M3ykSbm9XmEmn0DmY+rkATg9OBABAwGQEJ1qG1/j8iaoYjgNEgOAAOZHFApvtf0Fr/s8k2DGUDAkDAIQKWZX2aiCRHN0ZfwAAcAAcW2rb9JYdmBZcDASAQJgQkdoDW+gAcAThC4EAsOVBJRJeHyWahrEAACLiIQDqS4CNE1AYRiKUIYAYgfjMA8p7/t3jP76Ihxa2AQJgR0FqfTUSz4QTACQAHIssBvOcPs5FG2YGA1wgQ0QVKqdchApEVAYz44zfiZ+nTtm1/0Wv7gfsDASAQAQTS0QSXwxGAIwAOhJoDeM8fAXuMKgCBQBBIxw9YCxEItQhg1B+/UX8dEQ3De/5AzCYeCgSihYCsFj6ya2ATHAE4AuCA0Rw4pJT6TXV19YnRskCoDRAAAoEiwMzHaK2vIqIdEAGjRQAj/viN+PdprW9G3P5ATSQeDgSijwAzv08pdR0R7YEjAEcAHAiUA7uI6GfMPCD6lgc1BAJAwBgExOgQ0S+UUlUQgUBFACP++I34N2utr2Hm/sYYBBQECACB+CEg045KqaFHnIFDcATgCIADnnJAFuReLq/j4mdpUGMgAASMRYCZj5VRCRGthAh4KgIY8cdvxL9MKfVfxnZ+FAwIAAEgkEHAsqyvENE/iKgFzgCcAXCgOA4opRZorb+Z6Vc4AgEgAARCg4CkF9Va/5GI3oIIFCcCwC12uGki+qtlWV8OTUdHQYEAEAACPSEgCwbTWwgRXTB+09d4ZZFfm2+UrXz19fUn9dSP8DsQAAJAINQIJBKJfyeisUTUjNFt7Ea3cAaynAGtdYKIXlJKnR/qTo3CAwEgAAQKQYCITjuShvhuIjoIRwCOQMw4sEUpNaSxsfGDhfQZnAsEgAAQiBQC6dcDVxLR0piJAEbDWaPhGLS9zHi9TEQXRqoDozJAAAgAATcQIKLPaa3vJaJtMRAEOADxcAB2SHx+pdSpbvQR3AMIAAEgEHkEJH85ET1ERLvhDOAVQcg4oIhoHLbwRd5MoYJAAAh4jYBS6qtE9DjWC8ARMNgRaEwvbr0MSXm8tgi4PxAAArFDQEKgEtFFSqlniKjGYDHA9H48pvfrZM++ROmTSJix65CoMBAAAkAgCAQkK6Ft298hotFE1ABnALMDPnGgWin1rNb6W8LBILiPZwIBIAAEgEAaARl9KaUuTa+yJp+EAKP8eIzyWTJeaq2flNknZOCD2QECQAAIGIqAOANE9HWl1J+JaAURtcMhwOxAERzYQ0QjJEgPsu8Z2tlRLCAABIBAbwhIaFUiuiw9gttShBBgpB+PkX4tEZVprW/VWp/dG6fwNyAABIAAEAghArZtf0Qp9eN0CNYqOASxnR3IFvzPh5DKKDIQAAJAAAg4QSAdfOgWIppCRLKVCyP+aGIAwXfSUXAtEAACQCDKCMgCL8uyziWi32ut5xFRPRyC0DpEEPwod1bUDQgAASDgNQLJZPJfZIeB1voeIppERJVE1AXHwCjHQLaBLtZaP0VEP9daY0rf646B+wMBIAAE4ohAemGhBCQaQkRjjiwyfPPIrEELnALPnYI2ItqktR5PRHcppS4RBy2OHESdgQAQAAJAwBAEJKuh5C9QSv2UiEYe2Yq4EAGKHDkEkib6NSJ6RCk1SLBFtD1DyI5iAAEgAASAQN8IJJPJMyRqnFLqOiK6Wyn1HBHNUkptIKLDMZ41SKYTPS3RWk+QXA8yo6K1/oZlWaf0jSzOAAJAAAgAASAQYgSY+QSl1GfSToLMHmSchJlpJyFsCxE7iejt9GuRGUqp57XWfySiGyRmvtb6CxD4EBMWRQcCQAAIAAH/EGDmgWkn4WIiulxrfQ0R3ai1/hUR3am1vlemytOL4EZrrV8hoqla67lEtISI1hLRViLam06iJOlqJUKi/Jd/smJ+HxFt11qvI6LlSqkFRCQCPlGy3KVnLkYqpR5IOym3a61vPnLd9Ufey18hEfOSyeTH5VWIf8jgSUAACBSLwP8DLqXpSStvHaMAAAAASUVORK5CYII=;" parent="1" vertex="1">
          <mxGeometry x="2079" y="639" width="72" height="72" as="geometry" />
        </mxCell>
        <mxCell id="TaerqS0B0yZli5gVPiHv-36" value="&lt;h1&gt;&lt;font style=&quot;color: light-dark(rgb(0, 0, 0), rgb(0, 0, 0));&quot;&gt;&lt;b&gt;High Level Architucture&lt;/b&gt;&lt;/font&gt;&lt;/h1&gt;" style="text;html=1;align=center;verticalAlign=middle;resizable=0;points=[];autosize=1;strokeColor=none;fillColor=none;fontSize=13;" parent="1" vertex="1">
          <mxGeometry x="1746" y="519" width="360" height="88" as="geometry" />
        </mxCell>
      </root>
    </mxGraphModel>
  </diagram>
</mxfile>
